<svg width="79" height="79" viewBox="0 0 79 79" fill="none" xmlns="http://www.w3.org/2000/svg">
<path d="M39.5 0.5625C31.7989 0.5625 24.2707 2.84614 17.8675 7.12465C11.4643 11.4032 6.47355 17.4844 3.52646 24.5993C0.579371 31.7142 -0.191721 39.5432 1.31069 47.0963C2.8131 54.6495 6.52154 61.5875 11.967 67.033C17.4126 72.4785 24.3506 76.1869 31.9037 77.6893C39.4568 79.1917 47.2859 78.4206 54.4008 75.4736C61.5157 72.5265 67.5969 67.5358 71.8754 61.1325C76.1539 54.7293 78.4375 47.2011 78.4375 39.5C78.4257 29.1767 74.3196 19.2797 67.02 11.98C59.7203 4.68039 49.8233 0.574278 39.5 0.5625ZM39.5 72.875C30.6484 72.875 22.1594 69.3587 15.9003 63.0997C9.6413 56.8407 6.12502 48.3516 6.12502 39.5C6.12502 30.6484 9.6413 22.1593 15.9003 15.9003C22.1594 9.64128 30.6484 6.125 39.5 6.125V39.5L63.0878 63.0878C59.9944 66.1922 56.3182 68.655 52.2703 70.3346C48.2224 72.0141 43.8825 72.8775 39.5 72.875Z" fill="url(#paint0_linear_591_2969)"/>
<defs>
<linearGradient id="paint0_linear_591_2969" x1="39.5" y1="0.5625" x2="39.5" y2="78.4375" gradientUnits="userSpaceOnUse">
<stop stop-color="#6B44D9"/>
<stop offset="1" stop-color="#6CFFED"/>
</linearGradient>
</defs>
</svg>
