<svg width="23" height="34" viewBox="0 0 23 34" fill="none" xmlns="http://www.w3.org/2000/svg">
<path d="M11.4551 33.372L4.10491 29.3873L0.591126 23.5553L5.87223 4.40625L11.4551 7.63526L11.4551 33.372Z" fill="url(#paint0_linear_291_1502)"/>
<path opacity="0.8" d="M11.4551 33.3735L11.455 20.1484L4.9634 23.9719L4.10492 29.3888L11.4551 33.3735Z" fill="url(#paint1_linear_291_1502)" fill-opacity="0.7"/>
<g opacity="0.8">
<path d="M11.4551 33.3718L18.8065 29.3865L22.319 23.5553L17.0379 4.40625L11.4551 7.63526L11.4551 33.3718Z" fill="url(#paint2_linear_291_1502)" fill-opacity="0.7"/>
<path d="M11.4551 33.3718L18.8065 29.3865L22.319 23.5553L17.0379 4.40625L11.4551 7.63526L11.4551 33.3718Z" fill="url(#paint3_linear_291_1502)" fill-opacity="0.5"/>
</g>
<path d="M5.87229 4.40603L11.4554 7.63496L11.4554 1.1771L5.87229 4.40603Z" fill="url(#paint4_linear_291_1502)"/>
<path d="M11.4551 23.2033L15.1519 25.3413L11.4551 27.4793L7.75829 25.3413L11.4551 23.2033Z" fill="url(#paint5_linear_291_1502)" fill-opacity="0.5"/>
<path d="M17.0379 4.40603L11.4547 1.1771L11.4547 7.63496L17.0379 4.40603Z" fill="url(#paint6_linear_291_1502)" fill-opacity="0.8"/>
<path d="M11.4551 2.53613L14.4496 4.26799L11.4551 5.99985L8.46053 4.26799L11.4551 2.53613Z" fill="url(#paint7_linear_291_1502)" fill-opacity="0.6"/>
<path opacity="0.8" d="M11.4541 33.3735L11.4542 20.1484L17.9458 23.9719L18.8043 29.3888L11.4541 33.3735Z" fill="url(#paint8_linear_291_1502)"/>
<path d="M22.3185 23.5586L18.8048 29.3907L17.9463 23.9738L22.3185 23.5586Z" fill="url(#paint9_linear_291_1502)" fill-opacity="0.7"/>
<path d="M11.4551 18.1658L17.4716 21.6454L11.4551 25.125L5.43857 21.6454L11.4551 18.1658Z" fill="url(#paint10_linear_291_1502)" fill-opacity="0.7"/>
<path d="M11.4551 18.1658L17.4716 21.6454L11.4551 25.125L5.43857 21.6454L11.4551 18.1658Z" fill="url(#paint11_linear_291_1502)" fill-opacity="0.7"/>
<path d="M11.4551 25.1239L17.4715 21.6445L15.1518 25.3414L11.4551 27.4792V25.1239Z" fill="url(#paint12_linear_291_1502)" fill-opacity="0.9"/>
<path d="M11.4551 25.1243L5.43866 21.6448L8.46067 4.26953L11.4551 6.00143L11.4551 25.1243Z" fill="url(#paint13_linear_291_1502)" fill-opacity="0.6"/>
<path d="M11.4551 25.1243L17.4715 21.6448L14.4495 4.26953L11.4551 6.00143L11.4551 25.1243Z" fill="url(#paint14_linear_291_1502)" fill-opacity="0.9"/>
<path d="M11.4551 25.1239L5.43867 21.6445L7.75836 25.3414L11.4551 27.4792V25.1239Z" fill="url(#paint15_linear_291_1502)" fill-opacity="0.9"/>
<path d="M0.590652 23.5547L4.10441 29.3868L4.96289 23.9699L0.590652 23.5547Z" fill="url(#paint16_linear_291_1502)" fill-opacity="0.7"/>
<defs>
<linearGradient id="paint0_linear_291_1502" x1="32.839" y1="2.37966" x2="34.4059" y2="24.0329" gradientUnits="userSpaceOnUse">
<stop stop-color="#3D79ED"/>
<stop offset="0.265625" stop-color="#3458C1" stop-opacity="0.7"/>
<stop offset="0.618879" stop-color="#3753B8" stop-opacity="0.7"/>
<stop offset="0.895833" stop-color="#5BB0FF" stop-opacity="0.9"/>
<stop offset="1" stop-color="#5BB0FF" stop-opacity="0.6"/>
</linearGradient>
<linearGradient id="paint1_linear_291_1502" x1="10.5857" y1="31.6282" x2="6.80452" y2="23.2423" gradientUnits="userSpaceOnUse">
<stop offset="0.046875" stop-color="white"/>
<stop offset="0.427083" stop-color="#DFF4FF"/>
<stop offset="0.994792" stop-color="#0E42C8"/>
</linearGradient>
<linearGradient id="paint2_linear_291_1502" x1="22.319" y1="34.1699" x2="9.73519" y2="24.5688" gradientUnits="userSpaceOnUse">
<stop offset="0.280479" stop-color="white"/>
<stop offset="0.469567" stop-color="#FF79DA"/>
<stop offset="0.692708" stop-color="#3D3AE3" stop-opacity="0.9"/>
</linearGradient>
<linearGradient id="paint3_linear_291_1502" x1="22.319" y1="32.8276" x2="9.8793" y2="20.8887" gradientUnits="userSpaceOnUse">
<stop offset="0.161458" stop-color="white"/>
<stop offset="1" stop-color="white" stop-opacity="0"/>
</linearGradient>
<linearGradient id="paint4_linear_291_1502" x1="11.4692" y1="1.28444" x2="8.53745" y2="6.08829" gradientUnits="userSpaceOnUse">
<stop stop-color="#1AD6FF"/>
<stop offset="1" stop-color="#496BE4" stop-opacity="0.6"/>
<stop offset="1" stop-color="#1F3CA3"/>
</linearGradient>
<linearGradient id="paint5_linear_291_1502" x1="13.5769" y1="26.5474" x2="8.48965" y2="25.3413" gradientUnits="userSpaceOnUse">
<stop stop-color="#81FF6C"/>
<stop offset="1" stop-color="#31F3FF"/>
</linearGradient>
<linearGradient id="paint6_linear_291_1502" x1="17.0379" y1="4.07491" x2="11.7158" y2="3.5804" gradientUnits="userSpaceOnUse">
<stop stop-color="#FF79C9"/>
<stop offset="1" stop-color="#1F3CA3"/>
</linearGradient>
<linearGradient id="paint7_linear_291_1502" x1="13.8709" y1="4.67357" x2="10.3386" y2="4.26798" gradientUnits="userSpaceOnUse">
<stop stop-color="#52FF6E"/>
<stop offset="1" stop-color="#31FFFF"/>
</linearGradient>
<linearGradient id="paint8_linear_291_1502" x1="17.3667" y1="31.275" x2="14.6173" y2="21.5174" gradientUnits="userSpaceOnUse">
<stop offset="0.103809" stop-color="white"/>
<stop offset="0.436548" stop-color="#FFAACE" stop-opacity="0.8"/>
<stop offset="0.71875" stop-color="#6F97FF" stop-opacity="0.8"/>
</linearGradient>
<linearGradient id="paint9_linear_291_1502" x1="20.1324" y1="27.8859" x2="17.9463" y2="23.5586" gradientUnits="userSpaceOnUse">
<stop stop-color="white"/>
<stop offset="0.591466" stop-color="#FF94D4"/>
<stop offset="1" stop-color="#C994FF"/>
</linearGradient>
<linearGradient id="paint10_linear_291_1502" x1="14.9083" y1="23.6083" x2="6.62885" y2="21.6454" gradientUnits="userSpaceOnUse">
<stop stop-color="#81FF6C"/>
<stop offset="1" stop-color="#31F3FF"/>
</linearGradient>
<linearGradient id="paint11_linear_291_1502" x1="11.4551" y1="24.8751" x2="11.4551" y2="18.007" gradientUnits="userSpaceOnUse">
<stop stop-color="white"/>
<stop offset="1" stop-color="white" stop-opacity="0"/>
</linearGradient>
<linearGradient id="paint12_linear_291_1502" x1="17.7649" y1="21.6445" x2="11.6075" y2="27.2043" gradientUnits="userSpaceOnUse">
<stop offset="0.149863" stop-color="white"/>
<stop offset="0.300261" stop-color="#8CFF31"/>
<stop offset="0.449118" stop-color="#45C3EB"/>
<stop offset="1" stop-color="#72E6FF"/>
</linearGradient>
<linearGradient id="paint13_linear_291_1502" x1="8.76883" y1="25.1243" x2="-0.774705" y2="18.437" gradientUnits="userSpaceOnUse">
<stop stop-color="#6CFFED"/>
<stop offset="1" stop-color="#197F9F"/>
</linearGradient>
<linearGradient id="paint14_linear_291_1502" x1="32.4812" y1="17.3055" x2="22.5126" y2="6.86784" gradientUnits="userSpaceOnUse">
<stop offset="0.464598" stop-color="white"/>
<stop offset="0.790313" stop-color="#6DF390"/>
<stop offset="1" stop-color="#21CAFF" stop-opacity="0.9"/>
</linearGradient>
<linearGradient id="paint15_linear_291_1502" x1="5.43867" y1="21.6445" x2="11.3029" y2="27.1962" gradientUnits="userSpaceOnUse">
<stop offset="0.125" stop-color="white"/>
<stop offset="0.297772" stop-color="#8CFF31"/>
<stop offset="0.447917" stop-color="#5BF5FF"/>
</linearGradient>
<linearGradient id="paint16_linear_291_1502" x1="4.33316" y1="29.8601" x2="3.48542" y2="23.5547" gradientUnits="userSpaceOnUse">
<stop stop-color="#DFF4FF"/>
<stop offset="0.994792" stop-color="#0E42C8"/>
</linearGradient>
</defs>
</svg>
