<svg width="114" height="99" viewBox="0 0 114 99" fill="none" xmlns="http://www.w3.org/2000/svg">
<path d="M113.271 11.8639V95.8303C113.271 96.4402 113.029 97.0251 112.598 97.4563C112.167 97.8875 111.582 98.1298 110.972 98.1298H13.4353C12.8254 98.1298 12.2405 97.8875 11.8093 97.4563C11.378 97.0251 11.1358 96.4402 11.1358 95.8303V11.8639C11.1349 11.5614 11.1938 11.2617 11.309 10.982C11.4242 10.7023 11.5934 10.448 11.807 10.2338C12.0206 10.0196 12.2744 9.8497 12.5538 9.73375C12.8332 9.61779 13.1328 9.5581 13.4353 9.55811H110.972C111.274 9.5581 111.574 9.61779 111.853 9.73375C112.133 9.8497 112.386 10.0196 112.6 10.2338C112.814 10.448 112.983 10.7023 113.098 10.982C113.213 11.2617 113.272 11.5614 113.271 11.8639V11.8639Z" fill="#0E42C8"/>
<path d="M110.972 98.7597H13.4354C12.6589 98.758 11.9148 98.4488 11.3657 97.8998C10.8167 97.3508 10.5075 96.6066 10.5059 95.8302V11.8638C10.5059 11.0862 10.8143 10.3405 11.3635 9.79008C11.9127 9.23969 12.6578 8.92965 13.4354 8.92798H110.972C111.749 8.92965 112.495 9.23969 113.044 9.79008C113.593 10.3405 113.901 11.0862 113.901 11.8638V95.8302C113.901 96.6071 113.593 97.3523 113.043 97.9017C112.494 98.451 111.749 98.7597 110.972 98.7597V98.7597ZM13.4354 10.188C12.992 10.1896 12.5674 10.3669 12.2545 10.681C11.9415 10.9951 11.7659 11.4204 11.7659 11.8638V95.8302C11.7659 96.273 11.9418 96.6976 12.2548 97.0107C12.5679 97.3238 12.9926 97.4997 13.4354 97.4997H110.972C111.415 97.4997 111.839 97.3238 112.152 97.0107C112.466 96.6976 112.641 96.273 112.641 95.8302V11.8638C112.641 11.4204 112.466 10.9951 112.153 10.681C111.84 10.3669 111.415 10.1896 110.972 10.188H13.4354Z" fill="#0F1021"/>
<path d="M102.864 3.17616V87.1426C102.864 87.4445 102.805 87.7436 102.689 88.0225C102.574 88.3015 102.404 88.555 102.191 88.7685C101.977 88.9821 101.724 89.1515 101.445 89.267C101.166 89.3826 100.867 89.4421 100.565 89.4421H3.02803C2.72605 89.4421 2.42703 89.3826 2.14804 89.267C1.86905 89.1515 1.61556 88.9821 1.40203 88.7685C1.1885 88.555 1.01912 88.3015 0.903563 88.0225C0.788003 87.7436 0.728524 87.4445 0.728524 87.1426V3.17616C0.727695 2.87366 0.786562 2.57396 0.901751 2.29425C1.01694 2.01453 1.18619 1.76029 1.3998 1.5461C1.61341 1.3319 1.86719 1.16196 2.14659 1.046C2.42599 0.930047 2.72552 0.87036 3.02803 0.870361H100.565C100.867 0.87036 101.167 0.930047 101.446 1.046C101.725 1.16196 101.979 1.3319 102.193 1.5461C102.406 1.76029 102.576 2.01453 102.691 2.29425C102.806 2.57396 102.865 2.87366 102.864 3.17616V3.17616Z" fill="#4460D9"/>
<path d="M100.565 90.0719H3.02813C2.64343 90.0719 2.26248 89.9962 1.90706 89.8489C1.55164 89.7017 1.22869 89.4859 0.956664 89.2139C0.684634 88.9419 0.468848 88.6189 0.321626 88.2635C0.174405 87.9081 0.0986328 87.5271 0.0986328 87.1424V3.17604C0.098631 2.3985 0.407072 1.65272 0.956279 1.10234C1.50549 0.551948 2.2506 0.241903 3.02813 0.240234H100.565C101.342 0.241903 102.087 0.551948 102.637 1.10234C103.186 1.65272 103.494 2.3985 103.494 3.17604V87.1424C103.494 87.9194 103.186 88.6645 102.636 89.2139C102.087 89.7633 101.342 90.0719 100.565 90.0719ZM3.02813 1.50023C2.58478 1.5019 2.16015 1.67919 1.84723 1.99329C1.53432 2.30738 1.35863 2.73268 1.35863 3.17604V87.1424C1.35863 87.5852 1.53453 88.0099 1.84762 88.323C2.16071 88.636 2.58535 88.8119 3.02813 88.8119H100.565C101.008 88.8119 101.432 88.636 101.745 88.323C102.058 88.0099 102.234 87.5852 102.234 87.1424V3.17604C102.234 2.73268 102.059 2.30738 101.746 1.99329C101.433 1.67919 101.008 1.5019 100.565 1.50023H3.02813Z" fill="#0F1021"/>
<path d="M102.864 3.17616V87.1426C102.864 87.4445 102.805 87.7436 102.689 88.0225C102.574 88.3015 102.404 88.555 102.191 88.7685C101.977 88.9821 101.724 89.1515 101.445 89.267C101.166 89.3826 100.867 89.4421 100.565 89.4421H35.6748V0.870361H100.565C100.867 0.87036 101.167 0.930047 101.446 1.046C101.726 1.16196 101.979 1.3319 102.193 1.5461C102.407 1.76029 102.576 2.01453 102.691 2.29425C102.806 2.57396 102.865 2.87366 102.864 3.17616V3.17616Z" fill="#0F1021"/>
<path d="M100.565 90.0719H35.6749C35.5078 90.0719 35.3476 90.0056 35.2294 89.8874C35.1113 89.7693 35.0449 89.609 35.0449 89.4419V0.870234C35.0449 0.703148 35.1113 0.542905 35.2294 0.424757C35.3476 0.306609 35.5078 0.240234 35.6749 0.240234H100.565C101.342 0.241903 102.088 0.551948 102.637 1.10234C103.186 1.65272 103.494 2.3985 103.494 3.17604V87.1424C103.494 87.9194 103.186 88.6645 102.636 89.2139C102.087 89.7633 101.342 90.0719 100.565 90.0719ZM36.3049 88.8119H100.565C101.008 88.8119 101.432 88.636 101.745 88.323C102.059 88.0099 102.234 87.5852 102.234 87.1424V3.17604C102.234 2.73268 102.059 2.30738 101.746 1.99329C101.433 1.67919 101.008 1.5019 100.565 1.50023H36.3049V88.8119Z" fill="#0F1021"/>
<path d="M102.864 3.17616V12.6262H0.728524V3.17616C0.727695 2.87366 0.786562 2.57396 0.901751 2.29425C1.01694 2.01453 1.18619 1.76029 1.3998 1.5461C1.61341 1.3319 1.86719 1.16196 2.14659 1.046C2.42599 0.930047 2.72552 0.87036 3.02803 0.870361H100.565C100.867 0.87036 101.167 0.930047 101.446 1.046C101.725 1.16196 101.979 1.3319 102.193 1.5461C102.406 1.76029 102.576 2.01453 102.691 2.29425C102.806 2.57396 102.865 2.87366 102.864 3.17616V3.17616Z" fill="#4460D9"/>
<path d="M102.864 13.2624H0.728633C0.561546 13.2624 0.401303 13.196 0.283155 13.0779C0.165007 12.9597 0.0986328 12.7995 0.0986328 12.6324V3.18238C0.098631 2.40485 0.407072 1.65907 0.956279 1.10868C1.50549 0.558295 2.2506 0.248251 3.02813 0.246582H100.565C101.342 0.248251 102.087 0.558295 102.637 1.10868C103.186 1.65907 103.494 2.40485 103.494 3.18238V12.6324C103.494 12.7995 103.428 12.9597 103.31 13.0779C103.192 13.196 103.031 13.2624 102.864 13.2624V13.2624ZM1.35863 12.0024H102.234V3.18238C102.234 2.73902 102.059 2.31373 101.746 1.99963C101.433 1.68554 101.008 1.50825 100.565 1.50658H3.02813C2.58478 1.50825 2.16015 1.68554 1.84723 1.99963C1.53432 2.31373 1.35863 2.73902 1.35863 3.18238V12.0024Z" fill="#0F1021"/>
<path d="M8.60987 8.55641C9.78591 8.55641 10.7393 7.60304 10.7393 6.42701C10.7393 5.25097 9.78591 4.29761 8.60987 4.29761C7.43384 4.29761 6.48047 5.25097 6.48047 6.42701C6.48047 7.60304 7.43384 8.55641 8.60987 8.55641Z" fill="#F56132"/>
<path d="M8.60999 9.17993C8.06423 9.17993 7.53073 9.0181 7.07695 8.71489C6.62316 8.41168 6.26949 7.98072 6.06064 7.47651C5.85178 6.9723 5.79714 6.41747 5.90361 5.8822C6.01008 5.34693 6.27289 4.85525 6.6588 4.46934C7.04471 4.08344 7.53638 3.82063 8.07165 3.71415C8.60693 3.60768 9.16175 3.66233 9.66596 3.87118C10.1702 4.08004 10.6011 4.43371 10.9043 4.88749C11.2076 5.34127 11.3694 5.87478 11.3694 6.42054C11.3677 7.15186 11.0765 7.85276 10.5593 8.36989C10.0422 8.88702 9.34132 9.17827 8.60999 9.17993V9.17993ZM8.60999 4.92113C8.31344 4.92113 8.02354 5.00908 7.77697 5.17383C7.53039 5.33859 7.33821 5.57276 7.22472 5.84674C7.11124 6.12072 7.08154 6.4222 7.1394 6.71305C7.19725 7.00391 7.34006 7.27108 7.54975 7.48077C7.75945 7.69047 8.02661 7.83327 8.31747 7.89112C8.60832 7.94898 8.9098 7.91929 9.18378 7.8058C9.45776 7.69231 9.69194 7.50013 9.8567 7.25356C10.0215 7.00698 10.1094 6.71709 10.1094 6.42054C10.1061 6.02448 9.94684 5.64567 9.66619 5.36619C9.38553 5.08672 9.00606 4.92908 8.60999 4.92743V4.92113Z" fill="#0F1021"/>
<path d="M17.2095 8.55641C18.3855 8.55641 19.3389 7.60304 19.3389 6.42701C19.3389 5.25097 18.3855 4.29761 17.2095 4.29761C16.0334 4.29761 15.0801 5.25097 15.0801 6.42701C15.0801 7.60304 16.0334 8.55641 17.2095 8.55641Z" fill="#FFBC0E"/>
<path d="M17.2091 9.17993C16.663 9.18117 16.1289 9.0204 15.6743 8.71795C15.2197 8.4155 14.865 7.98498 14.6552 7.48088C14.4454 6.97677 14.3899 6.42175 14.4956 5.88607C14.6014 5.35038 14.8637 4.85812 15.2493 4.47158C15.635 4.08504 16.1267 3.8216 16.6621 3.71462C17.1975 3.60763 17.7527 3.66191 18.2573 3.87058C18.7619 4.07924 19.1932 4.43292 19.4967 4.88684C19.8002 5.34075 19.9622 5.8745 19.9622 6.42053C19.9605 7.15077 19.6701 7.85072 19.1543 8.36766C18.6386 8.88461 17.9393 9.1766 17.2091 9.17993V9.17993ZM17.2091 4.92113C16.9122 4.91988 16.6217 5.00676 16.3743 5.17075C16.1269 5.33475 15.9338 5.56849 15.8193 5.84235C15.7049 6.11622 15.6743 6.4179 15.7314 6.70917C15.7886 7.00043 15.9308 7.26819 16.1403 7.47852C16.3497 7.68884 16.6169 7.83227 16.9079 7.89064C17.1989 7.94901 17.5007 7.91968 17.7751 7.80638C18.0494 7.69308 18.284 7.50091 18.449 7.2542C18.6141 7.00749 18.7022 6.71735 18.7022 6.42053C18.7005 6.02505 18.5427 5.64623 18.263 5.36658C17.9834 5.08693 17.6045 4.92909 17.2091 4.92743V4.92113Z" fill="#0F1021"/>
<path d="M25.8022 8.55641C26.9783 8.55641 27.9316 7.60304 27.9316 6.42701C27.9316 5.25097 26.9783 4.29761 25.8022 4.29761C24.6262 4.29761 23.6729 5.25097 23.6729 6.42701C23.6729 7.60304 24.6262 8.55641 25.8022 8.55641Z" fill="#70CC40"/>
<path d="M25.8024 9.17993C25.2566 9.17993 24.7231 9.0181 24.2693 8.71489C23.8155 8.41168 23.4619 7.98072 23.253 7.47651C23.0442 6.9723 22.9895 6.41747 23.096 5.8822C23.2025 5.34693 23.4653 4.85525 23.8512 4.46934C24.2371 4.08344 24.7288 3.82063 25.264 3.71415C25.7993 3.60768 26.3541 3.66233 26.8584 3.87118C27.3626 4.08004 27.7935 4.43371 28.0967 4.88749C28.3999 5.34127 28.5618 5.87478 28.5618 6.42054C28.5601 7.15186 28.2688 7.85276 27.7517 8.36989C27.2346 8.88702 26.5337 9.17827 25.8024 9.17993V9.17993ZM25.8024 4.92113C25.5058 4.92113 25.2159 5.00908 24.9694 5.17383C24.7228 5.33859 24.5306 5.57276 24.4171 5.84674C24.3036 6.12072 24.2739 6.4222 24.3318 6.71305C24.3896 7.00391 24.5324 7.27108 24.7421 7.48077C24.9518 7.69047 25.219 7.83327 25.5099 7.89112C25.8007 7.94898 26.1022 7.91929 26.3762 7.8058C26.6501 7.69231 26.8843 7.50013 27.0491 7.25356C27.2138 7.00698 27.3018 6.71709 27.3018 6.42054C27.2985 6.02448 27.1392 5.64567 26.8586 5.36619C26.5779 5.08672 26.1984 4.92908 25.8024 4.92743V4.92113Z" fill="#0F1021"/>
<path d="M24.4288 20.6396H7.05969C6.8926 20.6396 6.73236 20.5733 6.61421 20.4551C6.49606 20.337 6.42969 20.1767 6.42969 20.0096C6.42969 19.8426 6.49606 19.6823 6.61421 19.5642C6.73236 19.446 6.8926 19.3796 7.05969 19.3796H24.4288C24.5959 19.3796 24.7561 19.446 24.8743 19.5642C24.9924 19.6823 25.0588 19.8426 25.0588 20.0096C25.0588 20.1767 24.9924 20.337 24.8743 20.4551C24.7561 20.5733 24.5959 20.6396 24.4288 20.6396Z" fill="#DFEAEF"/>
<path d="M27.39 28.4517H12.7677C12.6006 28.4517 12.4404 28.3853 12.3222 28.2671C12.2041 28.149 12.1377 27.9887 12.1377 27.8217C12.1377 27.6546 12.2041 27.4943 12.3222 27.3762C12.4404 27.258 12.6006 27.1917 12.7677 27.1917H27.39C27.5571 27.1917 27.7173 27.258 27.8355 27.3762C27.9536 27.4943 28.02 27.6546 28.02 27.8217C28.02 27.9887 27.9536 28.149 27.8355 28.2671C27.7173 28.3853 27.5571 28.4517 27.39 28.4517Z" fill="#DFEAEF"/>
<path d="M29.3935 36.27H17.2345C17.0674 36.27 16.9072 36.2036 16.789 36.0855C16.6709 35.9673 16.6045 35.8071 16.6045 35.64C16.6045 35.4729 16.6709 35.3127 16.789 35.1945C16.9072 35.0764 17.0674 35.01 17.2345 35.01H29.3935C29.5606 35.01 29.7208 35.0764 29.839 35.1945C29.9571 35.3127 30.0235 35.4729 30.0235 35.64C30.0235 35.8071 29.9571 35.9673 29.839 36.0855C29.7208 36.2036 29.5606 36.27 29.3935 36.27Z" fill="#DFEAEF"/>
<path d="M25.4238 44.0881H10.0392C9.87209 44.0881 9.71185 44.0218 9.5937 43.9036C9.47555 43.7855 9.40918 43.6252 9.40918 43.4581C9.40918 43.291 9.47555 43.1308 9.5937 43.0126C9.71185 42.8945 9.87209 42.8281 10.0392 42.8281H25.4238C25.5909 42.8281 25.7511 42.8945 25.8693 43.0126C25.9874 43.1308 26.0538 43.291 26.0538 43.4581C26.0538 43.6252 25.9874 43.7855 25.8693 43.9036C25.7511 44.0218 25.5909 44.0881 25.4238 44.0881Z" fill="#DFEAEF"/>
<path d="M21.2851 51.9001H7.05969C6.8926 51.9001 6.73236 51.8338 6.61421 51.7156C6.49606 51.5975 6.42969 51.4372 6.42969 51.2701C6.42969 51.1031 6.49606 50.9428 6.61421 50.8247C6.73236 50.7065 6.8926 50.6401 7.05969 50.6401H21.2851C21.4522 50.6401 21.6124 50.7065 21.7306 50.8247C21.8487 50.9428 21.9151 51.1031 21.9151 51.2701C21.9151 51.4372 21.8487 51.5975 21.7306 51.7156C21.6124 51.8338 21.4522 51.9001 21.2851 51.9001Z" fill="#DFEAEF"/>
<path d="M24.4292 59.7185H11.8292C11.6621 59.7185 11.5019 59.6521 11.3837 59.534C11.2656 59.4158 11.1992 59.2556 11.1992 59.0885C11.1992 58.9214 11.2656 58.7612 11.3837 58.643C11.5019 58.5249 11.6621 58.4585 11.8292 58.4585H24.4292C24.5963 58.4585 24.7565 58.5249 24.8747 58.643C24.9928 58.7612 25.0592 58.9214 25.0592 59.0885C25.0592 59.2556 24.9928 59.4158 24.8747 59.534C24.7565 59.6521 24.5963 59.7185 24.4292 59.7185Z" fill="#DFEAEF"/>
<path d="M20.0881 67.5305H7.05969C6.8926 67.5305 6.73236 67.4641 6.61421 67.346C6.49606 67.2278 6.42969 67.0676 6.42969 66.9005C6.42969 66.7334 6.49606 66.5732 6.61421 66.455C6.73236 66.3369 6.8926 66.2705 7.05969 66.2705H20.0881C20.2552 66.2705 20.4154 66.3369 20.5336 66.455C20.6517 66.5732 20.7181 66.7334 20.7181 66.9005C20.7181 67.0676 20.6517 67.2278 20.5336 67.346C20.4154 67.4641 20.2552 67.5305 20.0881 67.5305Z" fill="#DFEAEF"/>
<path d="M24.4292 75.3298H11.8292C11.6621 75.3298 11.5019 75.2634 11.3837 75.1453C11.2656 75.0272 11.1992 74.8669 11.1992 74.6998C11.1992 74.5327 11.2656 74.3725 11.3837 74.2543C11.5019 74.1362 11.6621 74.0698 11.8292 74.0698H24.4292C24.5963 74.0698 24.7565 74.1362 24.8747 74.2543C24.9928 74.3725 25.0592 74.5327 25.0592 74.6998C25.0592 74.8669 24.9928 75.0272 24.8747 75.1453C24.7565 75.2634 24.5963 75.3298 24.4292 75.3298Z" fill="#DFEAEF"/>
<path d="M52.9806 20.6396H42.3966C42.2295 20.6396 42.0693 20.5733 41.9511 20.4551C41.833 20.337 41.7666 20.1767 41.7666 20.0096C41.7666 19.8426 41.833 19.6823 41.9511 19.5642C42.0693 19.446 42.2295 19.3796 42.3966 19.3796H52.9806C53.1477 19.3796 53.3079 19.446 53.4261 19.5642C53.5442 19.6823 53.6106 19.8426 53.6106 20.0096C53.6106 20.1767 53.5442 20.337 53.4261 20.4551C53.3079 20.5733 53.1477 20.6396 52.9806 20.6396Z" fill="#739AFF"/>
<path d="M67.5965 28.4517H45.8741C45.7071 28.4517 45.5468 28.3853 45.4287 28.2671C45.3105 28.149 45.2441 27.9887 45.2441 27.8217C45.2441 27.6546 45.3105 27.4943 45.4287 27.3762C45.5468 27.258 45.7071 27.1917 45.8741 27.1917H67.5965C67.7636 27.1917 67.9239 27.258 68.042 27.3762C68.1602 27.4943 68.2265 27.6546 68.2265 27.8217C68.2265 27.9887 68.1602 28.149 68.042 28.2671C67.9239 28.3853 67.7636 28.4517 67.5965 28.4517Z" fill="#FFBC0E"/>
<path d="M62.2037 36.27H45.8741C45.7071 36.27 45.5468 36.2036 45.4287 36.0855C45.3105 35.9673 45.2441 35.8071 45.2441 35.64C45.2441 35.4729 45.3105 35.3127 45.4287 35.1945C45.5468 35.0764 45.7071 35.01 45.8741 35.01H62.2037C62.3708 35.01 62.5311 35.0764 62.6492 35.1945C62.7674 35.3127 62.8337 35.4729 62.8337 35.64C62.8337 35.8071 62.7674 35.9673 62.6492 36.0855C62.5311 36.2036 62.3708 36.27 62.2037 36.27Z" fill="#FFBC0E"/>
<path d="M53.5855 44.0884H44.2111C44.044 44.0884 43.8837 44.022 43.7656 43.9038C43.6474 43.7857 43.5811 43.6255 43.5811 43.4584C43.5811 43.2913 43.6474 43.131 43.7656 43.0129C43.8837 42.8947 44.044 42.8284 44.2111 42.8284H53.5855C53.7525 42.8284 53.9128 42.8947 54.0309 43.0129C54.1491 43.131 54.2155 43.2913 54.2155 43.4584C54.2155 43.6255 54.1491 43.7857 54.0309 43.9038C53.9128 44.022 53.7525 44.0884 53.5855 44.0884Z" fill="#739AFF"/>
<path d="M57.3146 51.9004H46.7306C46.5635 51.9004 46.4033 51.834 46.2851 51.7159C46.167 51.5977 46.1006 51.4375 46.1006 51.2704C46.1006 51.1033 46.167 50.9431 46.2851 50.8249C46.4033 50.7068 46.5635 50.6404 46.7306 50.6404H57.3146C57.4817 50.6404 57.6419 50.7068 57.7601 50.8249C57.8782 50.9431 57.9446 51.1033 57.9446 51.2704C57.9446 51.4375 57.8782 51.5977 57.7601 51.7159C57.6419 51.834 57.4817 51.9004 57.3146 51.9004Z" fill="#F56132"/>
<path d="M62.7076 59.7185H46.3654C46.1983 59.7185 46.038 59.6521 45.9199 59.534C45.8017 59.4158 45.7354 59.2556 45.7354 59.0885C45.7354 58.9214 45.8017 58.7612 45.9199 58.643C46.038 58.5249 46.1983 58.4585 46.3654 58.4585H62.7076C62.8746 58.4585 63.0349 58.5249 63.153 58.643C63.2712 58.7612 63.3376 58.9214 63.3376 59.0885C63.3376 59.2556 63.2712 59.4158 63.153 59.534C63.0349 59.6521 62.8746 59.7185 62.7076 59.7185Z" fill="#739AFF"/>
<path d="M50.3346 67.5305H42.3966C42.2295 67.5305 42.0693 67.4641 41.9511 67.346C41.833 67.2278 41.7666 67.0676 41.7666 66.9005C41.7666 66.7334 41.833 66.5732 41.9511 66.455C42.0693 66.3369 42.2295 66.2705 42.3966 66.2705H50.3346C50.5017 66.2705 50.6619 66.3369 50.7801 66.455C50.8982 66.5732 50.9646 66.7334 50.9646 66.9005C50.9646 67.0676 50.8982 67.2278 50.7801 67.346C50.6619 67.4641 50.5017 67.5305 50.3346 67.5305Z" fill="#739AFF"/>
<path d="M62.7074 75.3301H45.3195C45.1524 75.3301 44.9921 75.2637 44.874 75.1455C44.7558 75.0274 44.6895 74.8672 44.6895 74.7001C44.6895 74.533 44.7558 74.3727 44.874 74.2546C44.9921 74.1364 45.1524 74.0701 45.3195 74.0701H62.7074C62.8745 74.0701 63.0348 74.1364 63.1529 74.2546C63.2711 74.3727 63.3374 74.533 63.3374 74.7001C63.3374 74.8672 63.2711 75.0274 63.1529 75.1455C63.0348 75.2637 62.8745 75.3301 62.7074 75.3301Z" fill="#70CC40"/>
<path d="M79.3649 75.3301H67.9493C67.7822 75.3301 67.622 75.2637 67.5039 75.1455C67.3857 75.0274 67.3193 74.8672 67.3193 74.7001C67.3193 74.533 67.3857 74.3727 67.5039 74.2546C67.622 74.1364 67.7822 74.0701 67.9493 74.0701H79.3649C79.532 74.0701 79.6923 74.1364 79.8104 74.2546C79.9286 74.3727 79.9949 74.533 79.9949 74.7001C79.9949 74.8672 79.9286 75.0274 79.8104 75.1455C79.6923 75.2637 79.532 75.3301 79.3649 75.3301Z" fill="#FFBC0E"/>
<path d="M75.6608 36.27H67.5968C67.4297 36.27 67.2695 36.2036 67.1513 36.0855C67.0332 35.9673 66.9668 35.8071 66.9668 35.64C66.9668 35.4729 67.0332 35.3127 67.1513 35.1945C67.2695 35.0764 67.4297 35.01 67.5968 35.01H75.6608C75.8279 35.01 75.9881 35.0764 76.1063 35.1945C76.2244 35.3127 76.2908 35.4729 76.2908 35.64C76.2908 35.8071 76.2244 35.9673 76.1063 36.0855C75.9881 36.2036 75.8279 36.27 75.6608 36.27Z" fill="#739AFF"/>
<path d="M87.1585 28.4517H71.629C71.4619 28.4517 71.3017 28.3853 71.1835 28.2671C71.0654 28.149 70.999 27.9887 70.999 27.8217C70.999 27.6546 71.0654 27.4943 71.1835 27.3762C71.3017 27.258 71.4619 27.1917 71.629 27.1917H87.1585C87.3256 27.1917 87.4859 27.258 87.604 27.3762C87.7221 27.4943 87.7885 27.6546 87.7885 27.8217C87.7885 27.9887 87.7221 28.149 87.604 28.2671C87.4859 28.3853 87.3256 28.4517 87.1585 28.4517Z" fill="#0E42C8"/>
<path d="M84.5873 36.27H80.045C79.878 36.27 79.7177 36.2036 79.5996 36.0855C79.4814 35.9673 79.415 35.8071 79.415 35.64C79.415 35.4729 79.4814 35.3127 79.5996 35.1945C79.7177 35.0764 79.878 35.01 80.045 35.01H84.5873C84.7544 35.01 84.9147 35.0764 85.0328 35.1945C85.151 35.3127 85.2173 35.4729 85.2173 35.64C85.2173 35.8071 85.151 35.9673 85.0328 36.0855C84.9147 36.2036 84.7544 36.27 84.5873 36.27Z" fill="#F56132"/>
<path d="M64.9756 51.9004H60.4396C60.2725 51.9004 60.1122 51.834 59.9941 51.7159C59.8759 51.5977 59.8096 51.4375 59.8096 51.2704C59.8096 51.1033 59.8759 50.9431 59.9941 50.8249C60.1122 50.7068 60.2725 50.6404 60.4396 50.6404H64.9756C65.1427 50.6404 65.3029 50.7068 65.421 50.8249C65.5392 50.9431 65.6056 51.1033 65.6056 51.2704C65.6056 51.4375 65.5392 51.5977 65.421 51.7159C65.3029 51.834 65.1427 51.9004 64.9756 51.9004Z" fill="#F56132"/>
<path d="M87.1579 51.9004H68.7052C68.5381 51.9004 68.3779 51.834 68.2597 51.7159C68.1416 51.5977 68.0752 51.4375 68.0752 51.2704C68.0752 51.1033 68.1416 50.9431 68.2597 50.8249C68.3779 50.7068 68.5381 50.6404 68.7052 50.6404H87.1579C87.325 50.6404 87.4852 50.7068 87.6034 50.8249C87.7215 50.9431 87.7879 51.1033 87.7879 51.2704C87.7879 51.4375 87.7215 51.5977 87.6034 51.7159C87.4852 51.834 87.325 51.9004 87.1579 51.9004Z" fill="#FFBC0E"/>
<path d="M71.6288 59.7185H67.5968C67.4297 59.7185 67.2695 59.6521 67.1513 59.534C67.0332 59.4158 66.9668 59.2556 66.9668 59.0885C66.9668 58.9214 67.0332 58.7612 67.1513 58.643C67.2695 58.5249 67.4297 58.4585 67.5968 58.4585H71.6288C71.7959 58.4585 71.9561 58.5249 72.0743 58.643C72.1924 58.7612 72.2588 58.9214 72.2588 59.0885C72.2588 59.2556 72.1924 59.4158 72.0743 59.534C71.9561 59.6521 71.7959 59.7185 71.6288 59.7185Z" fill="#0E42C8"/>
<path d="M87.1584 75.3301H84.588C84.4209 75.3301 84.2607 75.2637 84.1425 75.1455C84.0244 75.0274 83.958 74.8672 83.958 74.7001C83.958 74.533 84.0244 74.3727 84.1425 74.2546C84.2607 74.1364 84.4209 74.0701 84.588 74.0701H87.1584C87.3255 74.0701 87.4857 74.1364 87.6039 74.2546C87.722 74.3727 87.7884 74.533 87.7884 74.7001C87.7884 74.8672 87.722 75.0274 87.6039 75.1455C87.4857 75.2637 87.3255 75.3301 87.1584 75.3301Z" fill="#739AFF"/>
</svg>
