<svg width="182" height="136" viewBox="0 0 182 136" fill="none" xmlns="http://www.w3.org/2000/svg">
<path d="M132 56.7422H47.5349C44.5686 56.7422 42.1641 59.1468 42.1641 62.113V107.127C42.1641 110.093 44.5686 112.498 47.5349 112.498H132C134.966 112.498 137.371 110.093 137.371 107.127V62.113C137.371 59.1468 134.966 56.7422 132 56.7422Z" fill="#4460D9"/>
<path d="M131.994 112.788H47.5348C46.034 112.786 44.595 112.189 43.5337 111.128C42.4725 110.067 41.8756 108.628 41.874 107.127V62.1188C41.8756 60.6173 42.4723 59.1778 43.5334 58.1156C44.5945 57.0534 46.0334 56.4552 47.5348 56.4521H131.994C133.496 56.4552 134.935 57.0534 135.996 58.1156C137.057 59.1778 137.654 60.6173 137.655 62.1188V107.127C137.654 108.628 137.057 110.067 135.996 111.128C134.934 112.189 133.495 112.786 131.994 112.788ZM47.5348 57.0321C46.1868 57.0337 44.8945 57.5703 43.9418 58.524C42.9891 59.4778 42.454 60.7707 42.454 62.1188V107.127C42.4556 108.474 42.9913 109.765 43.9438 110.718C44.8964 111.67 46.1878 112.206 47.5348 112.208H131.994C133.341 112.206 134.633 111.67 135.585 110.718C136.538 109.765 137.074 108.474 137.075 107.127V62.1188C137.075 60.7707 136.54 59.4778 135.587 58.524C134.635 57.5703 133.342 57.0337 131.994 57.0321H47.5348Z" fill="#231F20"/>
<path d="M104.601 92.592H74.934C73.9026 92.592 73.0664 93.4282 73.0664 94.4596V106.686C73.0664 107.717 73.9026 108.554 74.934 108.554H104.601C105.632 108.554 106.469 107.717 106.469 106.686V94.4596C106.469 93.4282 105.632 92.592 104.601 92.592Z" fill="#4460D9"/>
<path d="M104.601 108.844H74.9282C74.3569 108.842 73.8096 108.614 73.4063 108.21C73.0029 107.805 72.7764 107.257 72.7764 106.686V94.4538C72.7764 94.1712 72.832 93.8914 72.9402 93.6303C73.0483 93.3693 73.2068 93.1321 73.4066 92.9323C73.6064 92.7324 73.8436 92.5739 74.1047 92.4658C74.3658 92.3577 74.6456 92.302 74.9282 92.302H104.601C104.884 92.302 105.163 92.3577 105.424 92.4658C105.685 92.5739 105.923 92.7324 106.123 92.9323C106.322 93.1321 106.481 93.3693 106.589 93.6303C106.697 93.8914 106.753 94.1712 106.753 94.4538V106.686C106.753 107.257 106.526 107.805 106.123 108.21C105.719 108.614 105.172 108.842 104.601 108.844ZM74.9282 92.882C74.5113 92.882 74.1115 93.0476 73.8167 93.3424C73.522 93.6371 73.3564 94.0369 73.3564 94.4538V106.686C73.3556 106.893 73.3957 107.098 73.4743 107.289C73.553 107.481 73.6686 107.655 73.8147 107.801C73.9607 107.948 74.1342 108.064 74.3253 108.143C74.5164 108.223 74.7213 108.264 74.9282 108.264H104.601C104.808 108.264 105.013 108.223 105.204 108.143C105.395 108.064 105.568 107.948 105.714 107.801C105.86 107.655 105.976 107.481 106.055 107.289C106.133 107.098 106.174 106.893 106.173 106.686V94.4538C106.173 94.0369 106.007 93.6371 105.712 93.3424C105.418 93.0476 105.018 92.882 104.601 92.882H74.9282Z" fill="#D1D3D4"/>
<path d="M128.862 60.6863H50.6668C49.0203 60.6863 47.6855 62.021 47.6855 63.6675V85.2319C47.6855 86.8784 49.0203 88.2131 50.6668 88.2131H128.862C130.509 88.2131 131.844 86.8784 131.844 85.2319V63.6675C131.844 62.021 130.509 60.6863 128.862 60.6863Z" fill="#4460D9"/>
<path d="M128.862 88.503H50.6667C49.7996 88.5015 48.9685 88.1564 48.3553 87.5432C47.7422 86.9301 47.397 86.0989 47.3955 85.2318V63.6732C47.3955 62.8051 47.74 61.9725 48.3533 61.3581C48.9666 60.7437 49.7986 60.3978 50.6667 60.3962H128.862C129.73 60.3978 130.562 60.7437 131.176 61.3581C131.789 61.9725 132.134 62.8051 132.134 63.6732V85.2318C132.132 86.0989 131.787 86.9301 131.174 87.5432C130.561 88.1564 129.729 88.5015 128.862 88.503ZM50.6667 60.9762C49.9524 60.9778 49.2679 61.2626 48.7634 61.7682C48.2589 62.2738 47.9755 62.959 47.9755 63.6732V85.2318C47.9755 85.9456 48.259 86.6301 48.7637 87.1348C49.2684 87.6395 49.953 87.923 50.6667 87.923H128.862C129.576 87.923 130.261 87.6395 130.765 87.1348C131.27 86.6301 131.554 85.9456 131.554 85.2318V63.6732C131.554 62.959 131.27 62.2738 130.766 61.7682C130.261 61.2626 129.577 60.9778 128.862 60.9762H50.6667Z" fill="#D1D3D4"/>
<path d="M49.0664 116.72H68.8908C69.426 115.418 70.0682 114.163 70.8106 112.967C73.9658 108.496 78.31 105.735 80.6706 99.4243C83.0312 93.1139 83.8258 88.1143 81.9814 87.1921C80.137 86.2699 77.9214 93.6359 75.5376 95.4803C75.5376 95.4803 73.7454 86.6237 75.1896 82.6797C76.6338 78.7357 79.586 75.7777 79.1916 73.3997C78.7972 71.0217 77.701 71.6597 75.9378 73.1561C75.0156 73.9449 73.4786 76.4853 73.4786 76.4853C73.6259 75.1937 74.0599 73.9512 74.7488 72.8487C76.5468 70.1749 72.2954 68.9917 69.1402 73.7245C69.1402 73.7245 70.3698 68.8583 67.9802 70.3025C65.5906 71.7467 63.1546 77.3205 63.1546 77.3205C63.1546 77.3205 64.4712 69.9545 61.4494 71.9265C58.4276 73.8985 57.285 83.3699 57.6794 87.5865C58.0738 91.8031 58.9554 101.57 56.2758 105.079C55.4232 106.228 52.5406 110.92 49.0664 116.72Z" fill="white"/>
<path d="M68.8906 117.01H49.0662C49.0149 117.01 48.9645 116.996 48.9198 116.971C48.8752 116.945 48.8377 116.909 48.811 116.865C48.7839 116.821 48.7695 116.769 48.7695 116.717C48.7695 116.665 48.7839 116.614 48.811 116.569C52.871 109.859 55.2838 105.932 56.0668 104.9C58.7116 101.42 57.772 91.3973 57.4182 87.6157C57.0006 83.1729 58.1606 73.7537 61.31 71.6947C61.9654 71.2713 62.5164 71.1959 62.9456 71.4859C63.8098 72.0659 63.8272 74.0727 63.6938 75.5981C64.6218 73.8117 66.2342 71.0567 67.8524 70.0707C68.4324 69.7111 68.908 69.6589 69.256 69.9199C69.836 70.3491 69.8012 71.5729 69.6678 72.5531C71.1932 70.7609 72.7998 70.1635 73.9018 70.2331C74.1921 70.2312 74.4775 70.3072 74.7285 70.453C74.9794 70.5989 75.1866 70.8094 75.3286 71.0625C75.4519 71.3897 75.4858 71.7438 75.4266 72.0884C75.3675 72.433 75.2175 72.7555 74.9922 73.0229C74.5879 73.6421 74.279 74.3186 74.0758 75.0297C74.5522 74.2747 75.1125 73.5762 75.7462 72.9475C76.9642 71.9035 77.8052 71.3467 78.4954 71.6019C78.9942 71.7817 79.3016 72.3385 79.4756 73.3419C79.725 74.8441 78.7564 76.5029 77.637 78.4285C76.7868 79.8043 76.059 81.2522 75.462 82.7553C74.2556 86.0439 75.3808 92.9691 75.7288 94.8947C76.7251 93.6816 77.5758 92.356 78.2634 90.9449C79.6322 88.4335 80.8212 86.2643 82.1146 86.8849C84.8116 88.2363 82.19 96.1649 80.9546 99.4767C79.3828 103.664 76.9468 106.321 74.5746 108.884C73.31 110.21 72.1303 111.615 71.0424 113.089C70.3101 114.269 69.6758 115.506 69.1458 116.79C69.1316 116.848 69.0993 116.901 69.0536 116.941C69.0078 116.98 68.9509 117.005 68.8906 117.01ZM49.5766 116.43H68.7166C69.2408 115.171 69.8673 113.956 70.59 112.799C71.6941 111.305 72.8933 109.883 74.1802 108.542C76.5002 106.013 78.8956 103.403 80.4268 99.3201C82.8802 92.7777 83.437 88.2305 81.8826 87.4533C81.088 87.0473 79.87 89.2803 78.797 91.2465C77.8284 93.0271 76.8192 94.8715 75.7462 95.7067C75.7079 95.7381 75.6617 95.7585 75.6127 95.7657C75.5636 95.7728 75.5136 95.7665 75.4678 95.7473C75.4215 95.7314 75.3801 95.7038 75.3476 95.6673C75.3151 95.6307 75.2926 95.5863 75.2822 95.5385C75.2126 95.1731 73.49 86.5543 74.9458 82.5813C75.5535 81.045 76.2969 79.566 77.1672 78.1617C78.2286 76.3347 79.145 74.7571 78.9072 73.4579C78.7796 72.6981 78.5708 72.2399 78.3272 72.1413C77.8806 71.9847 77.0164 72.6459 76.1522 73.3883C75.288 74.1307 73.7742 76.6247 73.7568 76.6479C73.7233 76.7039 73.6719 76.747 73.6108 76.7702C73.5498 76.7933 73.4827 76.7952 73.4204 76.7755C73.3584 76.7541 73.305 76.7131 73.2684 76.6587C73.2318 76.6043 73.2139 76.5394 73.2174 76.4739C73.3681 75.1317 73.8201 73.841 74.5398 72.6981C74.7041 72.5131 74.8182 72.289 74.871 72.0473C74.9238 71.8056 74.9136 71.5543 74.8414 71.3177C74.7419 71.1581 74.6022 71.0275 74.4363 70.9389C74.2703 70.8504 74.084 70.807 73.896 70.8131C72.823 70.7319 70.996 71.5091 69.4126 73.8987C69.3746 73.9553 69.3178 73.9966 69.2522 74.0155C69.1867 74.0343 69.1166 74.0295 69.0543 74.0018C68.9919 73.9741 68.9414 73.9253 68.9114 73.864C68.8815 73.8027 68.8742 73.7329 68.8906 73.6667C69.1748 72.5067 69.3836 70.7145 68.937 70.3839C68.7572 70.2505 68.386 70.4419 68.183 70.5637C65.9152 71.9499 63.4966 77.3961 63.4734 77.4483C63.4452 77.5131 63.3943 77.5654 63.3302 77.5954C63.2661 77.6253 63.1933 77.6307 63.1254 77.6107C63.0581 77.5883 63.0009 77.5428 62.9637 77.4824C62.9266 77.4219 62.912 77.3503 62.9224 77.2801C63.2414 75.5053 63.4444 72.4951 62.6498 71.9673C62.4352 71.8223 62.0698 71.8919 61.658 72.1819C58.845 74.0147 57.598 83.2541 58.0214 87.5635C58.4158 91.7627 59.338 101.611 56.5598 105.253C55.7826 106.245 53.4394 110.004 49.5766 116.43Z" fill="#231F20"/>
<path d="M104.404 81.9896C103.18 81.1138 101.777 84.095 102.664 88.4798C103.552 92.8646 108.801 102.156 112.832 106.013C113.893 107.022 115.488 110.41 117.274 114.852H136.536C131.792 105.886 127.738 98.2586 127.39 97.7714C126.508 96.5418 125.586 88.7582 125.829 84.182C126.028 79.9959 125.72 75.8011 124.913 71.6888C124.292 68.9686 123.312 68.0754 121.949 68.0754C120.586 68.0754 121.265 73.4752 121.265 73.4752C120.65 70.2562 118.545 66.5442 116.689 66.173C114.833 65.8018 117.1 72.64 117.1 72.64C116.358 70.6622 112.31 64.3344 110.512 65.3378C109.932 65.6626 108.464 66.0918 110.813 70.4244C113.162 74.757 113.133 77.1118 113.133 77.1118C108.244 68.7598 104.433 69.044 103.227 70.7956C102.02 72.5472 105.152 73.6028 107.612 77.3206C110.071 81.0384 108.661 90.4344 108.661 90.4344C105.982 88.6538 105.634 82.8654 104.404 81.9896ZM121.526 74.7802V74.7164V74.7802ZM121.485 74.5714L121.427 74.2582L121.485 74.5714ZM121.392 74.0726C121.392 73.9798 121.358 73.8812 121.334 73.771L121.392 74.0726Z" fill="white"/>
<path d="M136.525 115.142H117.263C117.205 115.142 117.148 115.123 117.101 115.09C117.053 115.057 117.017 115.011 116.996 114.957C115.024 110.05 113.551 107.109 112.623 106.222C108.661 102.434 103.296 93.1777 102.368 88.5319C101.661 84.9997 102.368 82.3897 103.407 81.7227C103.578 81.6051 103.783 81.5447 103.991 81.5499C104.199 81.5551 104.401 81.6257 104.567 81.7517C105.147 82.1635 105.489 83.3177 105.935 84.7793C106.481 86.5599 107.148 88.7407 108.383 89.8659C108.627 87.8881 109.357 80.5859 107.31 77.4539C106.462 76.2179 105.474 75.085 104.364 74.0783C103.024 72.7849 102.044 71.8511 102.931 70.5983C103.197 70.2219 103.555 69.9209 103.972 69.7247C104.389 69.5285 104.85 69.4438 105.309 69.4789C106.614 69.5311 109.23 70.4417 112.594 75.7313C112.147 73.9042 111.451 72.1476 110.523 70.5113C109.41 68.4639 109.009 67.0313 109.282 66.1149C109.359 65.8853 109.484 65.6749 109.649 65.4978C109.814 65.3207 110.015 65.1811 110.239 65.0883L110.338 65.0303C110.516 64.9371 110.713 64.8855 110.914 64.8795C111.114 64.8735 111.314 64.9131 111.498 64.9955C112.936 65.5233 114.804 67.9825 116.062 70.0299C115.697 68.4581 115.447 66.7007 115.981 66.0975C116.076 65.9931 116.197 65.9163 116.332 65.8754C116.466 65.8346 116.61 65.8311 116.747 65.8655C118.278 66.1729 119.85 68.4059 120.807 70.8651C120.807 69.7051 120.917 68.5451 121.352 68.0405C121.423 67.9554 121.512 67.8865 121.612 67.8385C121.712 67.7904 121.821 67.7644 121.932 67.7621C123.573 67.7621 124.571 68.9221 125.174 71.6017C125.989 75.7404 126.301 79.9625 126.102 84.1761C125.853 88.8161 126.821 96.4779 127.604 97.5799C127.917 98.0149 130.916 103.612 136.774 114.69C136.798 114.733 136.811 114.782 136.811 114.832C136.811 114.882 136.798 114.931 136.774 114.974C136.751 115.022 136.715 115.062 136.672 115.092C136.628 115.121 136.577 115.139 136.525 115.142ZM117.46 114.562H136.02C129.031 101.344 127.32 98.2179 127.117 97.9395C126.177 96.6229 125.255 88.7697 125.505 84.1645C125.702 80.0056 125.397 75.838 124.594 71.7525C123.915 68.7655 122.854 68.3653 121.914 68.3653C121.882 68.3655 121.851 68.3735 121.822 68.3887C121.794 68.4038 121.77 68.4257 121.752 68.4523C121.207 69.0671 121.317 71.8337 121.52 73.4345V73.4751C121.531 73.5149 121.531 73.5571 121.52 73.5969C121.545 73.6291 121.561 73.667 121.566 73.7071L121.624 74.0087C121.63 74.0394 121.63 74.0708 121.624 74.1015C121.642 74.1299 121.654 74.1614 121.659 74.1943L121.723 74.5017C121.707 74.5488 121.707 74.5996 121.723 74.6467H121.682L121.723 74.6989C121.726 74.7142 121.726 74.73 121.723 74.7453C121.717 74.8063 121.692 74.8638 121.651 74.9097C121.611 74.9555 121.557 74.9873 121.497 75.0005C121.44 75.0111 121.382 75.0053 121.328 74.9837C121.275 74.9622 121.229 74.9257 121.195 74.8787C121.192 74.8614 121.192 74.8438 121.195 74.8265C121.192 74.8112 121.192 74.7954 121.195 74.7801V74.7279C121.192 74.7029 121.192 74.6776 121.195 74.6525C121.182 74.6288 121.172 74.6035 121.166 74.5771L121.16 74.3799V74.3335C121.157 74.3104 121.157 74.287 121.16 74.2639C121.137 74.2312 121.121 74.1935 121.114 74.1537L121.056 73.8521C121.05 73.8156 121.05 73.7784 121.056 73.7419C121.035 73.7102 121.022 73.6747 121.015 73.6375C121.012 73.6282 121.012 73.6178 121.015 73.6085C120.377 70.3025 118.266 66.8631 116.665 66.5441C116.52 66.5151 116.474 66.5441 116.451 66.5963C115.923 67.1763 116.689 70.4649 117.396 72.6051C117.414 72.6754 117.405 72.7499 117.371 72.8139C117.337 72.8779 117.28 72.9267 117.211 72.9507C117.143 72.9748 117.068 72.9723 117.001 72.9437C116.934 72.9152 116.881 72.8626 116.851 72.7965C116.201 71.0565 113.197 66.3353 111.329 65.6509C111.228 65.6017 111.117 65.5761 111.005 65.5761C110.892 65.5761 110.781 65.6017 110.68 65.6509L110.564 65.7089C110.409 65.767 110.269 65.8585 110.154 65.9768C110.039 66.095 109.951 66.2373 109.897 66.3933C109.671 67.1357 110.071 68.4639 111.092 70.3431C113.452 74.6931 113.412 77.0769 113.412 77.1755C113.409 77.2385 113.386 77.2989 113.346 77.348C113.306 77.397 113.252 77.4321 113.191 77.4481C113.131 77.464 113.067 77.4596 113.009 77.4355C112.951 77.4114 112.903 77.3689 112.872 77.3147C109.294 71.2015 106.608 70.2039 105.332 70.1517C104.97 70.119 104.606 70.1822 104.276 70.3349C103.946 70.4876 103.662 70.7245 103.453 71.0217C102.873 71.8279 103.453 72.4427 104.816 73.7477C105.955 74.7863 106.969 75.9542 107.838 77.2277C110.326 80.9977 108.998 90.1559 108.934 90.5677C108.928 90.6159 108.909 90.6617 108.879 90.7003C108.85 90.739 108.811 90.7693 108.766 90.7881C108.723 90.8109 108.675 90.8229 108.627 90.8229C108.578 90.8229 108.53 90.8109 108.487 90.7881C106.834 89.6861 106.057 87.1341 105.431 85.0867C105.048 83.8397 104.688 82.6623 104.271 82.3665C104.198 82.3077 104.107 82.2756 104.013 82.2756C103.919 82.2756 103.828 82.3077 103.755 82.3665C103.035 82.8363 102.281 85.1331 102.972 88.5783C103.865 93.0443 109.236 102.307 113.058 105.978C114.015 106.75 115.465 109.615 117.46 114.562Z" fill="#231F20"/>
<path d="M73.0668 114.852C72.597 114.852 51.3574 107.637 51.3574 107.637C51.3574 107.637 41.7004 125.078 38.7598 130.53L66.7042 135.013L73.0668 114.852Z" fill="#68E1FD"/>
<path d="M134.071 106.39L111.712 110.56L117.785 132.212L146.164 130.06L134.071 106.39Z" fill="#68E1FD"/>
<path d="M132 0.986816H47.5349C44.5686 0.986816 42.1641 3.39141 42.1641 6.35762V51.3714C42.1641 54.3376 44.5686 56.7422 47.5349 56.7422H132C134.966 56.7422 137.371 54.3376 137.371 51.3714V6.35762C137.371 3.39141 134.966 0.986816 132 0.986816Z" fill="#4460D9"/>
<path d="M131.994 57.0322H47.5348C46.034 57.0306 44.595 56.4337 43.5337 55.3725C42.4725 54.3112 41.8756 52.8722 41.874 51.3714V6.35757C41.8817 4.86073 42.4813 3.42772 43.5419 2.37146C44.6025 1.31519 46.038 0.721483 47.5348 0.719971H131.994C133.495 0.721506 134.934 1.3184 135.996 2.37968C137.057 3.44095 137.654 4.8799 137.655 6.38077V51.3946C137.648 52.8914 137.048 54.3244 135.987 55.3807C134.927 56.437 133.491 57.0307 131.994 57.0322ZM47.5348 1.29997C46.1878 1.30151 44.8964 1.8373 43.9438 2.7898C42.9913 3.7423 42.4556 5.03373 42.454 6.38077V51.3946C42.4556 52.7416 42.9913 54.033 43.9438 54.9855C44.8964 55.938 46.1878 56.4738 47.5348 56.4754H131.994C133.341 56.4738 134.633 55.938 135.585 54.9855C136.538 54.033 137.074 52.7416 137.075 51.3946V6.35757C137.068 5.01456 136.529 3.72907 135.577 2.78158C134.625 1.83408 133.337 1.30148 131.994 1.29997H47.5348Z" fill="#231F20"/>
<path d="M46.8965 5.71948H133.421V52.2703H46.8965V5.71948Z" fill="#0F1021"/>
<path d="M133.421 52.5605H46.9199C46.843 52.5605 46.7692 52.5299 46.7148 52.4755C46.6604 52.4212 46.6299 52.3474 46.6299 52.2705V5.71969C46.6299 5.64277 46.6604 5.56901 46.7148 5.51463C46.7692 5.46024 46.843 5.42969 46.9199 5.42969H133.421C133.498 5.42969 133.572 5.46024 133.626 5.51463C133.681 5.56901 133.711 5.64277 133.711 5.71969V52.2705C133.711 52.3474 133.681 52.4212 133.626 52.4755C133.572 52.5299 133.498 52.5605 133.421 52.5605ZM47.1867 51.9805H133.131V6.00969H47.1867V51.9805Z" fill="#231F20"/>
<path d="M133.421 11.6239H46.9199C46.843 11.6239 46.7692 11.5934 46.7148 11.539C46.6604 11.4846 46.6299 11.4109 46.6299 11.3339C46.6299 11.257 46.6604 11.1833 46.7148 11.1289C46.7692 11.0745 46.843 11.0439 46.9199 11.0439H133.421C133.498 11.0439 133.572 11.0745 133.626 11.1289C133.681 11.1833 133.711 11.257 133.711 11.3339C133.711 11.4109 133.681 11.4846 133.626 11.539C133.572 11.5934 133.498 11.6239 133.421 11.6239Z" fill="#231F20"/>
<path d="M50.4003 9.03343C50.9341 9.03343 51.3669 8.60064 51.3669 8.06676C51.3669 7.53289 50.9341 7.1001 50.4003 7.1001C49.8664 7.1001 49.4336 7.53289 49.4336 8.06676C49.4336 8.60064 49.8664 9.03343 50.4003 9.03343Z" fill="#F56132"/>
<path d="M50.6806 9.5941C50.434 9.5941 50.1929 9.52096 49.9878 9.38394C49.7827 9.24692 49.6229 9.05216 49.5285 8.8243C49.4341 8.59644 49.4094 8.34571 49.4576 8.10382C49.5057 7.86193 49.6244 7.63973 49.7988 7.46534C49.9732 7.29094 50.1954 7.17217 50.4373 7.12406C50.6792 7.07594 50.9299 7.10064 51.1578 7.19502C51.3857 7.2894 51.5804 7.44923 51.7174 7.6543C51.8545 7.85937 51.9276 8.10046 51.9276 8.3471C51.9284 8.51107 51.8966 8.67357 51.8342 8.82521C51.7718 8.97685 51.68 9.11462 51.5641 9.23057C51.4481 9.34652 51.3103 9.43835 51.1587 9.50074C51.0071 9.56314 50.8446 9.59487 50.6806 9.5941ZM50.6806 7.6859C50.5484 7.6859 50.4192 7.72517 50.3094 7.79872C50.1996 7.87227 50.1141 7.97679 50.0638 8.09901C50.0135 8.22122 50.0007 8.35563 50.0269 8.48517C50.0531 8.61471 50.1172 8.73355 50.211 8.82659C50.3049 8.91964 50.4243 8.9827 50.5541 9.00778C50.6838 9.03286 50.8181 9.01882 50.9399 8.96745C51.0617 8.91607 51.1654 8.82968 51.238 8.71923C51.3106 8.60878 51.3487 8.47926 51.3476 8.3471C51.3476 8.25978 51.3303 8.17332 51.2967 8.09272C51.2631 8.01212 51.2139 7.93897 51.1519 7.8775C51.0899 7.81602 51.0163 7.76744 50.9354 7.73455C50.8545 7.70167 50.7679 7.68513 50.6806 7.6859Z" fill="#F56132"/>
<path d="M54.541 9.39105C55.0695 9.39105 55.498 8.96259 55.498 8.43405C55.498 7.90551 55.0695 7.47705 54.541 7.47705C54.0124 7.47705 53.584 7.90551 53.584 8.43405C53.584 8.96259 54.0124 9.39105 54.541 9.39105Z" fill="#FFBC0E"/>
<path d="M54.5409 9.681C54.294 9.68215 54.0523 9.60999 53.8465 9.47366C53.6407 9.33734 53.48 9.14299 53.3847 8.91524C53.2894 8.68748 53.2639 8.43657 53.3113 8.19429C53.3588 7.95202 53.4771 7.72928 53.6513 7.55431C53.8254 7.37933 54.0476 7.25999 54.2897 7.2114C54.5317 7.16281 54.7827 7.18717 55.0109 7.28138C55.2391 7.37559 55.4342 7.53541 55.5715 7.7406C55.7088 7.9458 55.7821 8.18712 55.7821 8.434C55.7821 8.76372 55.6515 9.08002 55.4189 9.31371C55.1863 9.54741 54.8706 9.67946 54.5409 9.681ZM54.5409 7.7728C54.4085 7.77165 54.2787 7.80994 54.1682 7.88279C54.0576 7.95564 53.9712 8.05975 53.92 8.18186C53.8688 8.30397 53.8551 8.43856 53.8807 8.56848C53.9062 8.6984 53.9698 8.81778 54.0635 8.91141C54.1571 9.00504 54.2765 9.06869 54.4064 9.09424C54.5363 9.11979 54.6709 9.10609 54.793 9.05489C54.9151 9.00369 55.0193 8.9173 55.0921 8.80673C55.1649 8.69616 55.2032 8.5664 55.2021 8.434C55.2006 8.25911 55.1304 8.09181 55.0068 7.96813C54.8831 7.84446 54.7158 7.77431 54.5409 7.7728Z" fill="#FFBC0E"/>
<path d="M58.8798 9.39105C59.4084 9.39105 59.8369 8.96259 59.8369 8.43405C59.8369 7.90551 59.4084 7.47705 58.8798 7.47705C58.3513 7.47705 57.9229 7.90551 57.9229 8.43405C57.9229 8.96259 58.3513 9.39105 58.8798 9.39105Z" fill="#70CC40"/>
<path d="M58.8798 9.68101C58.6332 9.68101 58.3921 9.60788 58.187 9.47085C57.982 9.33383 57.8221 9.13908 57.7277 8.91122C57.6334 8.68336 57.6087 8.43263 57.6568 8.19073C57.7049 7.94884 57.8237 7.72665 57.9981 7.55225C58.1724 7.37785 58.3946 7.25909 58.6365 7.21097C58.8784 7.16286 59.1292 7.18755 59.357 7.28194C59.5849 7.37632 59.7796 7.53615 59.9167 7.74122C60.0537 7.94628 60.1268 8.18738 60.1268 8.43401C60.1268 8.76474 59.9954 9.08192 59.7616 9.31577C59.5277 9.54963 59.2105 9.68101 58.8798 9.68101ZM58.8798 7.77281C58.7476 7.77282 58.6185 7.81209 58.5087 7.88564C58.3988 7.95919 58.3134 8.0637 58.2631 8.18592C58.2127 8.30814 58.1999 8.44254 58.2261 8.57208C58.2523 8.70163 58.3164 8.82046 58.4103 8.91351C58.5041 9.00655 58.6235 9.06962 58.7533 9.0947C58.883 9.11977 59.0173 9.10573 59.1391 9.05436C59.2609 9.00299 59.3646 8.91659 59.4372 8.80615C59.5098 8.6957 59.548 8.56617 59.5468 8.43401C59.5453 8.25812 59.4743 8.08995 59.3494 7.96612C59.2245 7.84228 59.0557 7.77281 58.8798 7.77281Z" fill="#70CC40"/>
<path d="M53.5839 52.5603C53.507 52.5603 53.4333 52.5298 53.3789 52.4754C53.3245 52.421 53.2939 52.3473 53.2939 52.2703V11.3339C53.2939 11.257 53.3245 11.1833 53.3789 11.1289C53.4333 11.0745 53.507 11.0439 53.5839 11.0439C53.6609 11.0439 53.7346 11.0745 53.789 11.1289C53.8434 11.1833 53.8739 11.257 53.8739 11.3339V52.2703C53.8739 52.3473 53.8434 52.421 53.789 52.4754C53.7346 52.5298 53.6609 52.5603 53.5839 52.5603Z" fill="#231F20"/>
<path d="M69.4759 14.6401H57.2959C57.2189 14.6401 57.1452 14.6095 57.0908 14.5551C57.0364 14.5007 57.0059 14.427 57.0059 14.3501C57.0059 14.2731 57.0364 14.1994 57.0908 14.145C57.1452 14.0906 57.2189 14.0601 57.2959 14.0601H69.4759C69.5528 14.0601 69.6265 14.0906 69.6809 14.145C69.7353 14.1994 69.7659 14.2731 69.7659 14.3501C69.7659 14.427 69.7353 14.5007 69.6809 14.5551C69.6265 14.6095 69.5528 14.6401 69.4759 14.6401Z" fill="#4460D9"/>
<path d="M76.4652 14.6401H72.4921C72.4152 14.6401 72.3415 14.6095 72.2871 14.5551C72.2327 14.5007 72.2021 14.427 72.2021 14.3501C72.2021 14.2731 72.2327 14.1994 72.2871 14.145C72.3415 14.0906 72.4152 14.0601 72.4921 14.0601H76.4652C76.5421 14.0601 76.6158 14.0906 76.6702 14.145C76.7246 14.1994 76.7552 14.2731 76.7552 14.3501C76.7552 14.427 76.7246 14.5007 76.6702 14.5551C76.6158 14.6095 76.5421 14.6401 76.4652 14.6401Z" fill="#231F20"/>
<path d="M87.2528 14.6401H78.8486C78.7717 14.6401 78.6979 14.6095 78.6435 14.5551C78.5891 14.5007 78.5586 14.427 78.5586 14.3501C78.5586 14.2731 78.5891 14.1994 78.6435 14.145C78.6979 14.0906 78.7717 14.0601 78.8486 14.0601H87.2528C87.3297 14.0601 87.4035 14.0906 87.4579 14.145C87.5122 14.1994 87.5428 14.2731 87.5428 14.3501C87.5428 14.427 87.5122 14.5007 87.4579 14.5551C87.4035 14.6095 87.3297 14.6401 87.2528 14.6401Z" fill="#231F20"/>
<path d="M65.5906 18.3056H57.2734C57.1965 18.3056 57.1227 18.275 57.0683 18.2206C57.0139 18.1663 56.9834 18.0925 56.9834 18.0156C56.9834 17.9387 57.0139 17.8649 57.0683 17.8105C57.1227 17.7561 57.1965 17.7256 57.2734 17.7256H65.5906C65.6675 17.7256 65.7413 17.7561 65.7957 17.8105C65.85 17.8649 65.8806 17.9387 65.8806 18.0156C65.8791 18.092 65.8481 18.1649 65.794 18.219C65.7399 18.2731 65.667 18.3041 65.5906 18.3056Z" fill="#4460D9"/>
<path d="M102.443 18.3056H68.1191C68.0427 18.3041 67.9697 18.2731 67.9157 18.219C67.8616 18.1649 67.8306 18.092 67.8291 18.0156C67.8291 17.9387 67.8597 17.8649 67.914 17.8105C67.9684 17.7561 68.0422 17.7256 68.1191 17.7256H102.443C102.52 17.7256 102.594 17.7561 102.649 17.8105C102.703 17.8649 102.733 17.9387 102.733 18.0156C102.733 18.0925 102.703 18.1663 102.649 18.2206C102.594 18.275 102.52 18.3056 102.443 18.3056Z" fill="#231F20"/>
<path d="M121.822 18.3056H105.065C104.988 18.3056 104.915 18.275 104.86 18.2206C104.806 18.1663 104.775 18.0925 104.775 18.0156C104.775 17.9387 104.806 17.8649 104.86 17.8105C104.915 17.7561 104.988 17.7256 105.065 17.7256H121.822C121.899 17.7256 121.972 17.7561 122.027 17.8105C122.081 17.8649 122.112 17.9387 122.112 18.0156C122.11 18.092 122.079 18.1649 122.025 18.219C121.971 18.2731 121.898 18.3041 121.822 18.3056Z" fill="#FFBC0E"/>
<path d="M87.2536 21.7973H57.2734C57.1965 21.7973 57.1227 21.7667 57.0683 21.7123C57.0139 21.658 56.9834 21.5842 56.9834 21.5073C56.9834 21.4304 57.0139 21.3566 57.0683 21.3022C57.1227 21.2478 57.1965 21.2173 57.2734 21.2173H87.2536C87.3305 21.2173 87.4043 21.2478 87.4587 21.3022C87.513 21.3566 87.5436 21.4304 87.5436 21.5073C87.5436 21.5842 87.513 21.658 87.4587 21.7123C87.4043 21.7667 87.3305 21.7973 87.2536 21.7973Z" fill="#4460D9"/>
<path d="M100.182 21.7973H89.875C89.798 21.7973 89.7243 21.7667 89.6699 21.7123C89.6155 21.658 89.585 21.5842 89.585 21.5073C89.5864 21.4308 89.6175 21.3579 89.6715 21.3039C89.7256 21.2498 89.7985 21.2188 89.875 21.2173H100.182C100.258 21.2173 100.332 21.2478 100.387 21.3022C100.441 21.3566 100.472 21.4304 100.472 21.5073C100.472 21.5842 100.441 21.658 100.387 21.7123C100.332 21.7667 100.258 21.7973 100.182 21.7973Z" fill="#231F20"/>
<path d="M61.4203 28.1249H57.2617C57.1848 28.1249 57.111 28.0944 57.0566 28.04C57.0022 27.9856 56.9717 27.9118 56.9717 27.8349C56.9717 27.758 57.0022 27.6842 57.0566 27.6299C57.111 27.5755 57.1848 27.5449 57.2617 27.5449H61.4203C61.4967 27.5464 61.5696 27.5774 61.6237 27.6315C61.6778 27.6856 61.7088 27.7585 61.7103 27.8349C61.7103 27.9118 61.6797 27.9856 61.6253 28.04C61.5709 28.0944 61.4972 28.1249 61.4203 28.1249Z" fill="#FFBC0E"/>
<path d="M74.4753 28.1249H63.9599C63.883 28.1249 63.8092 28.0944 63.7549 28.04C63.7005 27.9856 63.6699 27.9118 63.6699 27.8349C63.6714 27.7585 63.7024 27.6856 63.7565 27.6315C63.8106 27.5774 63.8835 27.5464 63.9599 27.5449H74.4753C74.5522 27.5449 74.626 27.5755 74.6804 27.6299C74.7348 27.6842 74.7653 27.758 74.7653 27.8349C74.7653 27.9118 74.7348 27.9856 74.6804 28.04C74.626 28.0944 74.5522 28.1249 74.4753 28.1249Z" fill="#231F20"/>
<path d="M66.13 31.3847H57.2734C57.1965 31.3847 57.1227 31.3541 57.0683 31.2997C57.0139 31.2454 56.9834 31.1716 56.9834 31.0947C56.9834 31.0178 57.0139 30.944 57.0683 30.8896C57.1227 30.8352 57.1965 30.8047 57.2734 30.8047H66.13C66.2069 30.8047 66.2807 30.8352 66.3351 30.8896C66.3894 30.944 66.42 31.0178 66.42 31.0947C66.42 31.1716 66.3894 31.2454 66.3351 31.2997C66.2807 31.3541 66.2069 31.3847 66.13 31.3847Z" fill="#4460D9"/>
<path d="M85.2813 31.3847H68.1191C68.0427 31.3832 67.9697 31.3522 67.9157 31.2981C67.8616 31.244 67.8306 31.1711 67.8291 31.0947C67.8291 31.0178 67.8597 30.944 67.914 30.8896C67.9684 30.8352 68.0422 30.8047 68.1191 30.8047H85.2813C85.3582 30.8047 85.432 30.8352 85.4864 30.8896C85.5408 30.944 85.5713 31.0178 85.5713 31.0947C85.5713 31.1716 85.5408 31.2454 85.4864 31.2997C85.432 31.3541 85.3582 31.3847 85.2813 31.3847Z" fill="#231F20"/>
<path d="M96.986 31.3847H87.706C87.6296 31.3832 87.5567 31.3522 87.5026 31.2981C87.4485 31.244 87.4175 31.1711 87.416 31.0947C87.416 31.0178 87.4466 30.944 87.501 30.8896C87.5553 30.8352 87.6291 30.8047 87.706 30.8047H96.986C97.0629 30.8047 97.1367 30.8352 97.1911 30.8896C97.2455 30.944 97.276 31.0178 97.276 31.0947C97.276 31.1716 97.2455 31.2454 97.1911 31.2997C97.1367 31.3541 97.0629 31.3847 96.986 31.3847Z" fill="#FFBC0E"/>
<path d="M69.871 34.8761H57.2734C57.1965 34.8761 57.1227 34.8456 57.0683 34.7912C57.0139 34.7368 56.9834 34.6631 56.9834 34.5861C56.9834 34.5092 57.0139 34.4355 57.0683 34.3811C57.1227 34.3267 57.1965 34.2961 57.2734 34.2961H69.871C69.9474 34.2976 70.0203 34.3287 70.0744 34.3827C70.1285 34.4368 70.1595 34.5097 70.161 34.5861C70.161 34.6631 70.1304 34.7368 70.0761 34.7912C70.0217 34.8456 69.9479 34.8761 69.871 34.8761Z" fill="#4460D9"/>
<path d="M93.494 34.8761H72.4921C72.4152 34.8761 72.3415 34.8456 72.2871 34.7912C72.2327 34.7368 72.2021 34.6631 72.2021 34.5861C72.2021 34.5092 72.2327 34.4355 72.2871 34.3811C72.3415 34.3267 72.4152 34.2961 72.4921 34.2961H93.494C93.5704 34.2976 93.6433 34.3287 93.6974 34.3827C93.7514 34.4368 93.7825 34.5097 93.784 34.5861C93.784 34.6631 93.7534 34.7368 93.699 34.7912C93.6446 34.8456 93.5709 34.8761 93.494 34.8761Z" fill="#231F20"/>
<path d="M113.44 34.8761H96.5039C96.427 34.8761 96.3532 34.8456 96.2988 34.7912C96.2444 34.7368 96.2139 34.6631 96.2139 34.5861C96.2154 34.5097 96.2464 34.4368 96.3004 34.3827C96.3545 34.3287 96.4274 34.2976 96.5039 34.2961H113.44C113.517 34.2961 113.591 34.3267 113.645 34.3811C113.699 34.4355 113.73 34.5092 113.73 34.5861C113.73 34.6631 113.699 34.7368 113.645 34.7912C113.591 34.8456 113.517 34.8761 113.44 34.8761Z" fill="#FFBC0E"/>
<path d="M69.871 41.1171H57.2734C57.1965 41.1171 57.1227 41.0866 57.0683 41.0322C57.0139 40.9778 56.9834 40.904 56.9834 40.8271C56.9834 40.7502 57.0139 40.6764 57.0683 40.622C57.1227 40.5677 57.1965 40.5371 57.2734 40.5371H69.871C69.9479 40.5371 70.0217 40.5677 70.0761 40.622C70.1304 40.6764 70.161 40.7502 70.161 40.8271C70.1595 40.9036 70.1285 40.9765 70.0744 41.0305C70.0203 41.0846 69.9474 41.1156 69.871 41.1171Z" fill="#4460D9"/>
<path d="M76.7026 41.1171H72.2656C72.1887 41.1171 72.1149 41.0866 72.0605 41.0322C72.0061 40.9778 71.9756 40.904 71.9756 40.8271C71.9756 40.7502 72.0061 40.6764 72.0605 40.622C72.1149 40.5677 72.1887 40.5371 72.2656 40.5371H76.7026C76.7795 40.5371 76.8533 40.5677 76.9076 40.622C76.962 40.6764 76.9926 40.7502 76.9926 40.8271C76.9911 40.9036 76.9601 40.9765 76.906 41.0305C76.8519 41.0846 76.779 41.1156 76.7026 41.1171Z" fill="#231F20"/>
<path d="M87.7052 41.1171H78.8486C78.7717 41.1171 78.6979 41.0866 78.6435 41.0322C78.5891 40.9778 78.5586 40.904 78.5586 40.8271C78.5586 40.7502 78.5891 40.6764 78.6435 40.622C78.6979 40.5677 78.7717 40.5371 78.8486 40.5371H87.7052C87.7821 40.5371 87.8559 40.5677 87.9103 40.622C87.9646 40.6764 87.9952 40.7502 87.9952 40.8271C87.9952 40.904 87.9646 40.9778 87.9103 41.0322C87.8559 41.0866 87.7821 41.1171 87.7052 41.1171Z" fill="#231F20"/>
<path d="M65.5906 44.3708H57.2734C57.1965 44.3708 57.1227 44.3402 57.0683 44.2858C57.0139 44.2314 56.9834 44.1577 56.9834 44.0808C56.9834 44.0039 57.0139 43.9301 57.0683 43.8757C57.1227 43.8213 57.1965 43.7908 57.2734 43.7908H65.5906C65.6675 43.7908 65.7413 43.8213 65.7957 43.8757C65.85 43.9301 65.8806 44.0039 65.8806 44.0808C65.8791 44.1572 65.8481 44.2301 65.794 44.2842C65.7399 44.3383 65.667 44.3693 65.5906 44.3708Z" fill="#4460D9"/>
<path d="M102.444 44.3708H67.7597C67.6828 44.3708 67.6091 44.3402 67.5547 44.2858C67.5003 44.2314 67.4697 44.1577 67.4697 44.0808C67.4697 44.0039 67.5003 43.9301 67.5547 43.8757C67.6091 43.8213 67.6828 43.7908 67.7597 43.7908H102.444C102.521 43.7908 102.594 43.8213 102.649 43.8757C102.703 43.9301 102.734 44.0039 102.734 44.0808C102.734 44.1577 102.703 44.2314 102.649 44.2858C102.594 44.3402 102.521 44.3708 102.444 44.3708Z" fill="#231F20"/>
<path d="M122.9 44.3708H105.065C104.988 44.3708 104.915 44.3402 104.86 44.2858C104.806 44.2314 104.775 44.1577 104.775 44.0808C104.775 44.0039 104.806 43.9301 104.86 43.8757C104.915 43.8213 104.988 43.7908 105.065 43.7908H122.9C122.977 43.7908 123.051 43.8213 123.105 43.8757C123.16 43.9301 123.19 44.0039 123.19 44.0808C123.189 44.1572 123.158 44.2301 123.104 44.2842C123.05 44.3383 122.977 44.3693 122.9 44.3708Z" fill="#231F20"/>
<path d="M87.2537 48.0131H56.6123C56.5354 48.0131 56.4616 47.9826 56.4072 47.9282C56.3528 47.8738 56.3223 47.8 56.3223 47.7231C56.3223 47.6462 56.3528 47.5724 56.4072 47.518C56.4616 47.4637 56.5354 47.4331 56.6123 47.4331H87.2537C87.3306 47.4331 87.4043 47.4637 87.4587 47.518C87.5131 47.5724 87.5437 47.6462 87.5437 47.7231C87.5437 47.8 87.5131 47.8738 87.4587 47.9282C87.4043 47.9826 87.3306 48.0131 87.2537 48.0131Z" fill="#4460D9"/>
<path d="M99.2768 48.0131H89.875C89.798 48.0131 89.7243 47.9826 89.6699 47.9282C89.6155 47.8738 89.585 47.8 89.585 47.7231C89.5864 47.6467 89.6175 47.5738 89.6715 47.5197C89.7256 47.4656 89.7985 47.4346 89.875 47.4331H99.2768C99.3537 47.4331 99.4274 47.4637 99.4818 47.518C99.5362 47.5724 99.5668 47.6462 99.5668 47.7231C99.5668 47.8 99.5362 47.8738 99.4818 47.9282C99.4274 47.9826 99.3537 48.0131 99.2768 48.0131Z" fill="#231F20"/>
<path d="M49.9649 15.5157C50.4902 15.5157 50.9161 15.0898 50.9161 14.5645C50.9161 14.0391 50.4902 13.6133 49.9649 13.6133C49.4395 13.6133 49.0137 14.0391 49.0137 14.5645C49.0137 15.0898 49.4395 15.5157 49.9649 15.5157Z" fill="#4460D9"/>
<path d="M49.9649 18.9669C50.4902 18.9669 50.9161 18.541 50.9161 18.0157C50.9161 17.4903 50.4902 17.0645 49.9649 17.0645C49.4395 17.0645 49.0137 17.4903 49.0137 18.0157C49.0137 18.541 49.4395 18.9669 49.9649 18.9669Z" fill="#4460D9"/>
<path d="M49.9649 22.4178C50.4902 22.4178 50.9161 21.9919 50.9161 21.4666C50.9161 20.9412 50.4902 20.5154 49.9649 20.5154C49.4395 20.5154 49.0137 20.9412 49.0137 21.4666C49.0137 21.9919 49.4395 22.4178 49.9649 22.4178Z" fill="#4460D9"/>
<path d="M49.9649 28.8499C50.4902 28.8499 50.9161 28.424 50.9161 27.8987C50.9161 27.3734 50.4902 26.9475 49.9649 26.9475C49.4395 26.9475 49.0137 27.3734 49.0137 27.8987C49.0137 28.424 49.4395 28.8499 49.9649 28.8499Z" fill="#4460D9"/>
<path d="M49.9649 32.3011C50.4902 32.3011 50.9161 31.8752 50.9161 31.3499C50.9161 30.8245 50.4902 30.3987 49.9649 30.3987C49.4395 30.3987 49.0137 30.8245 49.0137 31.3499C49.0137 31.8752 49.4395 32.3011 49.9649 32.3011Z" fill="#4460D9"/>
<path d="M49.9649 35.752C50.4902 35.752 50.9161 35.3261 50.9161 34.8008C50.9161 34.2755 50.4902 33.8496 49.9649 33.8496C49.4395 33.8496 49.0137 34.2755 49.0137 34.8008C49.0137 35.3261 49.4395 35.752 49.9649 35.752Z" fill="#4460D9"/>
<path d="M49.9649 41.7781C50.4902 41.7781 50.9161 41.3523 50.9161 40.8269C50.9161 40.3016 50.4902 39.8757 49.9649 39.8757C49.4395 39.8757 49.0137 40.3016 49.0137 40.8269C49.0137 41.3523 49.4395 41.7781 49.9649 41.7781Z" fill="#4460D9"/>
<path d="M49.9649 45.2293C50.4902 45.2293 50.9161 44.8034 50.9161 44.2781C50.9161 43.7528 50.4902 43.3269 49.9649 43.3269C49.4395 43.3269 49.0137 43.7528 49.0137 44.2781C49.0137 44.8034 49.4395 45.2293 49.9649 45.2293Z" fill="#4460D9"/>
<path d="M49.9649 48.6744C50.4902 48.6744 50.9161 48.2485 50.9161 47.7232C50.9161 47.1978 50.4902 46.772 49.9649 46.772C49.4395 46.772 49.0137 47.1978 49.0137 47.7232C49.0137 48.2485 49.4395 48.6744 49.9649 48.6744Z" fill="#4460D9"/>
<path d="M9.6084 8.26001H33.1332V29.2618H9.6084V8.26001Z" fill="#0F1021"/>
<path d="M33.1332 29.5518H9.60836C9.53145 29.5518 9.45769 29.5212 9.4033 29.4668C9.34891 29.4124 9.31836 29.3387 9.31836 29.2618V8.25997C9.31836 8.18306 9.34891 8.1093 9.4033 8.05491C9.45769 8.00052 9.53145 7.96997 9.60836 7.96997H33.1332C33.2096 7.97146 33.2825 8.00249 33.3366 8.05655C33.3906 8.11062 33.4217 8.18352 33.4232 8.25997V29.2618C33.4232 29.3387 33.3926 29.4124 33.3382 29.4668C33.2838 29.5212 33.2101 29.5518 33.1332 29.5518ZM9.89836 28.9718H32.8432V8.54997H9.89836V28.9718Z" fill="#D1D3D4"/>
<path d="M17.2069 23.0327C17.136 23.0318 17.0679 23.005 17.0155 22.9573L12.9033 19.3323C12.8445 19.2782 12.8092 19.2033 12.8047 19.1235C12.804 19.0461 12.833 18.9713 12.8859 18.9147L16.9981 14.5821C17.0251 14.5549 17.0571 14.5334 17.0925 14.5186C17.1278 14.5039 17.1657 14.4963 17.204 14.4963C17.2423 14.4963 17.2802 14.5039 17.3155 14.5186C17.3509 14.5334 17.3829 14.5549 17.4099 14.5821C17.4369 14.6086 17.4584 14.6402 17.473 14.675C17.4877 14.7099 17.4952 14.7473 17.4952 14.7851C17.4952 14.8229 17.4877 14.8604 17.473 14.8952C17.4584 14.9301 17.4369 14.9617 17.4099 14.9881L13.5123 19.0945L17.3983 22.5223C17.4559 22.5736 17.4911 22.6454 17.4965 22.7223C17.5019 22.7992 17.4771 22.8752 17.4273 22.9341C17.3993 22.9649 17.3653 22.9895 17.3274 23.0064C17.2895 23.0234 17.2484 23.0324 17.2069 23.0327Z" fill="#D1D3D4"/>
<path d="M24.7237 23.0325C24.6637 23.0343 24.6046 23.0175 24.5545 22.9843C24.5045 22.9511 24.466 22.9032 24.4443 22.8472C24.4227 22.7911 24.419 22.7298 24.4337 22.6715C24.4484 22.6133 24.4809 22.5611 24.5265 22.5221L28.4125 19.0943L24.5091 14.9821C24.4821 14.9556 24.4607 14.9241 24.446 14.8892C24.4314 14.8543 24.4238 14.8169 24.4238 14.7791C24.4238 14.7413 24.4314 14.7039 24.446 14.669C24.4607 14.6341 24.4821 14.6026 24.5091 14.5761C24.5643 14.5226 24.6382 14.4927 24.715 14.4927C24.7919 14.4927 24.8657 14.5226 24.9209 14.5761L29.0331 18.9087C29.0596 18.9363 29.0801 18.9691 29.093 19.0051C29.106 19.0411 29.1113 19.0794 29.1085 19.1175C29.1087 19.1569 29.1005 19.1959 29.0845 19.2319C29.0685 19.2679 29.0451 19.3 29.0157 19.3263L24.9035 22.9513C24.8549 22.9985 24.7913 23.0273 24.7237 23.0325Z" fill="#D1D3D4"/>
<path d="M18.2913 24.1636C18.2445 24.1639 18.1985 24.1519 18.1579 24.1288C18.124 24.1117 18.0939 24.0879 18.0694 24.059C18.0448 24.03 18.0263 23.9964 18.015 23.9602C18.0036 23.924 17.9996 23.8859 18.0033 23.8481C18.0069 23.8103 18.018 23.7736 18.0361 23.7402L23.1401 13.9266C23.1563 13.8903 23.1799 13.8578 23.2093 13.831C23.2387 13.8042 23.2733 13.7838 23.3109 13.7709C23.3485 13.7581 23.3884 13.7531 23.428 13.7563C23.4676 13.7595 23.5062 13.7708 23.5413 13.7896C23.5763 13.8083 23.6072 13.834 23.6319 13.8652C23.6566 13.8963 23.6746 13.9322 23.6848 13.9707C23.6951 14.0091 23.6973 14.0492 23.6914 14.0885C23.6855 14.1278 23.6716 14.1655 23.6505 14.1992L18.5465 24.007C18.5222 24.0539 18.4856 24.0932 18.4406 24.1208C18.3957 24.1484 18.344 24.1632 18.2913 24.1636Z" fill="#D1D3D4"/>
<path d="M145.178 9.28076H181.555V62.9076H145.178V9.28076Z" fill="#0F1021"/>
<path d="M181.549 63.1975H145.178C145.101 63.1975 145.027 63.167 144.973 63.1126C144.918 63.0582 144.888 62.9844 144.888 62.9075V9.28072C144.888 9.20381 144.918 9.13005 144.973 9.07566C145.027 9.02128 145.101 8.99072 145.178 8.99072H181.549C181.626 8.99072 181.7 9.02128 181.755 9.07566C181.809 9.13005 181.839 9.20381 181.839 9.28072V62.9075C181.839 62.9844 181.809 63.0582 181.755 63.1126C181.7 63.167 181.626 63.1975 181.549 63.1975ZM145.468 62.6175H181.259V9.57072H145.468V62.6175Z" fill="#D1D3D4"/>
<path d="M181.549 13.1088H145.178C145.101 13.1088 145.027 13.0783 144.973 13.0239C144.918 12.9695 144.888 12.8957 144.888 12.8188C144.888 12.7419 144.918 12.6681 144.973 12.6137C145.027 12.5594 145.101 12.5288 145.178 12.5288H181.549C181.626 12.5288 181.7 12.5594 181.755 12.6137C181.809 12.6681 181.839 12.7419 181.839 12.8188C181.839 12.8957 181.809 12.9695 181.755 13.0239C181.7 13.0783 181.626 13.1088 181.549 13.1088Z" fill="#D1D3D4"/>
<path d="M161.574 22.9224H150.05C149.973 22.9224 149.899 22.8919 149.845 22.8375C149.79 22.7831 149.76 22.7093 149.76 22.6324V16.1828C149.76 16.1059 149.79 16.0321 149.845 15.9778C149.899 15.9234 149.973 15.8928 150.05 15.8928H161.574C161.651 15.8928 161.725 15.9234 161.779 15.9778C161.834 16.0321 161.864 16.1059 161.864 16.1828V22.6324C161.864 22.7093 161.834 22.7831 161.779 22.8375C161.725 22.8919 161.651 22.9224 161.574 22.9224ZM150.34 22.3424H161.284V16.4728H150.34V22.3424Z" fill="#D1D3D4"/>
<path d="M177.785 37.9617H166.261C166.184 37.9617 166.11 37.9312 166.056 37.8768C166.001 37.8224 165.971 37.7486 165.971 37.6717V31.2221C165.971 31.1452 166.001 31.0715 166.056 31.0171C166.11 30.9627 166.184 30.9321 166.261 30.9321H177.785C177.862 30.9321 177.936 30.9627 177.99 31.0171C178.045 31.0715 178.075 31.1452 178.075 31.2221V37.6717C178.075 37.7486 178.045 37.8224 177.99 37.8768C177.936 37.9312 177.862 37.9617 177.785 37.9617ZM166.551 37.3817H177.495V31.5121H166.551V37.3817Z" fill="#D1D3D4"/>
<path d="M161.574 41.1866H150.05C149.973 41.1866 149.899 41.156 149.845 41.1016C149.79 41.0473 149.76 40.9735 149.76 40.8966V34.447C149.76 34.3701 149.79 34.2963 149.845 34.2419C149.899 34.1875 149.973 34.157 150.05 34.157H161.574C161.651 34.1585 161.724 34.1895 161.778 34.2436C161.832 34.2976 161.863 34.3705 161.864 34.447V40.8966C161.864 40.9735 161.834 41.0473 161.779 41.1016C161.725 41.156 161.651 41.1866 161.574 41.1866ZM150.34 40.6066H161.284V34.737H150.34V40.6066Z" fill="#D1D3D4"/>
<path d="M170.234 58.1401H158.709C158.632 58.1401 158.558 58.1095 158.504 58.0551C158.45 58.0007 158.419 57.927 158.419 57.8501V51.4121C158.419 51.3352 158.45 51.2614 158.504 51.207C158.558 51.1526 158.632 51.1221 158.709 51.1221H170.234C170.31 51.1236 170.383 51.1546 170.437 51.2087C170.491 51.2627 170.522 51.3356 170.524 51.4121V57.8617C170.521 57.9366 170.489 58.0074 170.435 58.0593C170.381 58.1112 170.308 58.1401 170.234 58.1401ZM158.999 57.5601H169.944V51.7021H158.999V57.5601Z" fill="#D1D3D4"/>
<path d="M172.026 31.5121C171.949 31.5121 171.876 31.4815 171.821 31.4271C171.767 31.3728 171.736 31.299 171.736 31.2221V27.8929H155.81C155.733 27.8929 155.659 27.8623 155.604 27.8079C155.55 27.7536 155.52 27.6798 155.52 27.6029V22.6323C155.52 22.5554 155.55 22.4816 155.604 22.4272C155.659 22.3728 155.733 22.3423 155.81 22.3423C155.886 22.3423 155.96 22.3728 156.015 22.4272C156.069 22.4816 156.1 22.5554 156.1 22.6323V27.3129H172.026C172.103 27.3144 172.176 27.3454 172.23 27.3995C172.284 27.4535 172.315 27.5264 172.316 27.6029V31.2221C172.316 31.299 172.286 31.3728 172.231 31.4271C172.177 31.4815 172.103 31.5121 172.026 31.5121Z" fill="#D1D3D4"/>
<path d="M155.81 34.737C155.733 34.737 155.659 34.7064 155.604 34.6521C155.55 34.5977 155.52 34.5239 155.52 34.447V27.603C155.521 27.5265 155.552 27.4536 155.606 27.3996C155.66 27.3455 155.733 27.3145 155.81 27.313C155.886 27.313 155.96 27.3435 156.015 27.3979C156.069 27.4523 156.1 27.5261 156.1 27.603V34.447C156.1 34.5239 156.069 34.5977 156.015 34.6521C155.96 34.7064 155.886 34.737 155.81 34.737Z" fill="#D1D3D4"/>
<path d="M164.956 51.4063C164.879 51.4063 164.805 51.3757 164.751 51.3214C164.697 51.267 164.666 51.1932 164.666 51.1163V46.9055H155.81C155.733 46.9055 155.659 46.8749 155.604 46.8206C155.55 46.7662 155.52 46.6924 155.52 46.6155V40.8967C155.521 40.8202 155.552 40.7473 155.606 40.6933C155.66 40.6392 155.733 40.6082 155.81 40.6067C155.886 40.6067 155.96 40.6372 156.015 40.6916C156.069 40.746 156.1 40.8198 156.1 40.8967V46.3255H164.956C165.033 46.3255 165.107 46.356 165.161 46.4104C165.216 46.4648 165.246 46.5386 165.246 46.6155V51.1163C165.246 51.1932 165.216 51.267 165.161 51.3214C165.107 51.3757 165.033 51.4063 164.956 51.4063Z" fill="#D1D3D4"/>
<path d="M33.1332 11.3747H9.60836C9.53145 11.3747 9.45769 11.3441 9.4033 11.2897C9.34891 11.2354 9.31836 11.1616 9.31836 11.0847C9.31836 11.0078 9.34891 10.934 9.4033 10.8796C9.45769 10.8252 9.53145 10.7947 9.60836 10.7947H33.1332C33.2096 10.7962 33.2825 10.8272 33.3366 10.8813C33.3906 10.9353 33.4217 11.0082 33.4232 11.0847C33.4232 11.1616 33.3926 11.2354 33.3382 11.2897C33.2838 11.3441 33.2101 11.3747 33.1332 11.3747Z" fill="#D1D3D4"/>
<path d="M0.450195 41.8247H36.6944V79.5537H0.450195V41.8247Z" fill="#0F1021"/>
<path d="M36.6886 79.8435H0.450156C0.373243 79.8435 0.299481 79.8129 0.245095 79.7585C0.19071 79.7042 0.160156 79.6304 0.160156 79.5535V41.8535C0.160156 41.7766 0.19071 41.7028 0.245095 41.6484C0.299481 41.594 0.373243 41.5635 0.450156 41.5635H36.6886C36.7655 41.5635 36.8392 41.594 36.8936 41.6484C36.948 41.7028 36.9786 41.7766 36.9786 41.8535V79.5535C36.9786 79.6304 36.948 79.7042 36.8936 79.7585C36.8392 79.8129 36.7655 79.8435 36.6886 79.8435ZM0.728556 79.2635H36.387V42.1435H0.740156L0.728556 79.2635Z" fill="#D1D3D4"/>
<path d="M36.6886 45.8439H0.450156C0.373243 45.8439 0.299481 45.8134 0.245095 45.759C0.19071 45.7046 0.160156 45.6308 0.160156 45.5539C0.160156 45.477 0.19071 45.4032 0.245095 45.3489C0.299481 45.2945 0.373243 45.2639 0.450156 45.2639H36.6886C36.7655 45.2639 36.8392 45.2945 36.8936 45.3489C36.948 45.4032 36.9786 45.477 36.9786 45.5539C36.9786 45.6308 36.948 45.7046 36.8936 45.759C36.8392 45.8134 36.7655 45.8439 36.6886 45.8439Z" fill="#D1D3D4"/>
<path d="M8.06001 48.8598H3.62301C3.5461 48.8598 3.47233 48.8292 3.41795 48.7748C3.36356 48.7205 3.33301 48.6467 3.33301 48.5698C3.33301 48.4929 3.36356 48.4191 3.41795 48.3647C3.47233 48.3103 3.5461 48.2798 3.62301 48.2798H8.06001C8.13692 48.2798 8.21068 48.3103 8.26507 48.3647C8.31946 48.4191 8.35001 48.4929 8.35001 48.5698C8.35001 48.6467 8.31946 48.7205 8.26507 48.7748C8.21068 48.8292 8.13692 48.8598 8.06001 48.8598Z" fill="#D1D3D4"/>
<path d="M19.2132 48.8598H10.3798C10.3029 48.8598 10.2292 48.8292 10.1748 48.7748C10.1204 48.7205 10.0898 48.6467 10.0898 48.5698C10.0913 48.4933 10.1224 48.4204 10.1764 48.3664C10.2305 48.3123 10.3034 48.2813 10.3798 48.2798H19.2132C19.2902 48.2798 19.3639 48.3103 19.4183 48.3647C19.4727 48.4191 19.5032 48.4929 19.5032 48.5698C19.5032 48.6467 19.4727 48.7205 19.4183 48.7748C19.3639 48.8292 19.2902 48.8598 19.2132 48.8598Z" fill="#D1D3D4"/>
<path d="M21.8754 52.2182H13.042C12.965 52.2182 12.8913 52.1876 12.8369 52.1332C12.7825 52.0789 12.752 52.0051 12.752 51.9282C12.752 51.8513 12.7825 51.7775 12.8369 51.7231C12.8913 51.6687 12.965 51.6382 13.042 51.6382H21.8754C21.9523 51.6382 22.026 51.6687 22.0804 51.7231C22.1348 51.7775 22.1654 51.8513 22.1654 51.9282C22.1654 52.0051 22.1348 52.0789 22.0804 52.1332C22.026 52.1876 21.9523 52.2182 21.8754 52.2182Z" fill="#D1D3D4"/>
<path d="M9.09229 52.2182H4.66109C4.58418 52.2182 4.51042 52.1876 4.45603 52.1332C4.40165 52.0789 4.37109 52.0051 4.37109 51.9282C4.37258 51.8517 4.40361 51.7788 4.45768 51.7248C4.51174 51.6707 4.58465 51.6397 4.66109 51.6382H9.09229C9.16874 51.6397 9.24165 51.6707 9.29571 51.7248C9.34978 51.7788 9.38081 51.8517 9.38229 51.9282C9.38229 52.0051 9.35174 52.0789 9.29735 52.1332C9.24297 52.1876 9.16921 52.2182 9.09229 52.2182Z" fill="#D1D3D4"/>
<path d="M9.26038 55.5763H5.69918C5.62227 55.5763 5.5485 55.5458 5.49412 55.4914C5.43973 55.437 5.40918 55.3633 5.40918 55.2863C5.41066 55.2099 5.4417 55.137 5.49576 55.0829C5.54983 55.0289 5.62273 54.9978 5.69918 54.9963H9.26038C9.33683 54.9978 9.40973 55.0289 9.4638 55.0829C9.51786 55.137 9.54889 55.2099 9.55038 55.2863C9.55038 55.3633 9.51983 55.437 9.46544 55.4914C9.41106 55.5458 9.33729 55.5763 9.26038 55.5763Z" fill="#D1D3D4"/>
<path d="M23.4532 55.5763H12.3984C12.3215 55.5763 12.2477 55.5458 12.1933 55.4914C12.139 55.437 12.1084 55.3633 12.1084 55.2863C12.1084 55.2094 12.139 55.1357 12.1933 55.0813C12.2477 55.0269 12.3215 54.9963 12.3984 54.9963H23.4532C23.5301 54.9963 23.6039 55.0269 23.6583 55.0813C23.7126 55.1357 23.7432 55.2094 23.7432 55.2863C23.7432 55.3633 23.7126 55.437 23.6583 55.4914C23.6039 55.5458 23.5301 55.5763 23.4532 55.5763Z" fill="#D1D3D4"/>
<path d="M11.1685 58.9345H6.74312C6.66621 58.9345 6.59245 58.9039 6.53806 58.8496C6.48368 58.7952 6.45312 58.7214 6.45312 58.6445C6.45312 58.5676 6.48368 58.4938 6.53806 58.4394C6.59245 58.385 6.66621 58.3545 6.74312 58.3545H11.1685C11.2454 58.3545 11.3192 58.385 11.3736 58.4394C11.428 58.4938 11.4585 58.5676 11.4585 58.6445C11.4585 58.7214 11.428 58.7952 11.3736 58.8496C11.3192 58.9039 11.2454 58.9345 11.1685 58.9345Z" fill="#D1D3D4"/>
<path d="M25.7443 58.9345H12.5957C12.5188 58.9345 12.445 58.9039 12.3906 58.8496C12.3362 58.7952 12.3057 58.7214 12.3057 58.6445C12.3057 58.5676 12.3362 58.4938 12.3906 58.4394C12.445 58.385 12.5188 58.3545 12.5957 58.3545H25.7443C25.8207 58.356 25.8936 58.387 25.9477 58.4411C26.0017 58.4951 26.0328 58.568 26.0343 58.6445C26.0343 58.7214 26.0037 58.7952 25.9493 58.8496C25.8949 58.9039 25.8212 58.9345 25.7443 58.9345Z" fill="#D1D3D4"/>
<path d="M9.99079 62.2926H5.56539C5.48848 62.2926 5.41471 62.2621 5.36033 62.2077C5.30594 62.1533 5.27539 62.0796 5.27539 62.0026C5.27539 61.9257 5.30594 61.852 5.36033 61.7976C5.41471 61.7432 5.48848 61.7126 5.56539 61.7126H9.99079C10.0677 61.7126 10.1415 61.7432 10.1958 61.7976C10.2502 61.852 10.2808 61.9257 10.2808 62.0026C10.2808 62.0796 10.2502 62.1533 10.1958 62.2077C10.1415 62.2621 10.0677 62.2926 9.99079 62.2926Z" fill="#D1D3D4"/>
<path d="M18.8186 62.2926H11.6904C11.6135 62.2926 11.5397 62.2621 11.4853 62.2077C11.4309 62.1533 11.4004 62.0796 11.4004 62.0026C11.4004 61.9257 11.4309 61.852 11.4853 61.7976C11.5397 61.7432 11.6135 61.7126 11.6904 61.7126H18.8186C18.8955 61.7126 18.9693 61.7432 19.0237 61.7976C19.078 61.852 19.1086 61.9257 19.1086 62.0026C19.1086 62.0796 19.078 62.1533 19.0237 62.2077C18.9693 62.2621 18.8955 62.2926 18.8186 62.2926Z" fill="#D1D3D4"/>
<path d="M28.6731 62.2926H21.5449C21.468 62.2926 21.3942 62.2621 21.3398 62.2077C21.2854 62.1533 21.2549 62.0796 21.2549 62.0026C21.2549 61.9257 21.2854 61.852 21.3398 61.7976C21.3942 61.7432 21.468 61.7126 21.5449 61.7126H28.6731C28.75 61.7126 28.8238 61.7432 28.8781 61.7976C28.9325 61.852 28.9631 61.9257 28.9631 62.0026C28.9631 62.0796 28.9325 62.1533 28.8781 62.2077C28.8238 62.2621 28.75 62.2926 28.6731 62.2926Z" fill="#D1D3D4"/>
<path d="M7.09079 65.6799H5.56539C5.48848 65.6799 5.41471 65.6493 5.36033 65.5949C5.30594 65.5405 5.27539 65.4668 5.27539 65.3899C5.27539 65.3129 5.30594 65.2392 5.36033 65.1848C5.41471 65.1304 5.48848 65.0999 5.56539 65.0999H7.09079C7.1677 65.0999 7.24146 65.1304 7.29585 65.1848C7.35024 65.2392 7.38079 65.3129 7.38079 65.3899C7.38079 65.4668 7.35024 65.5405 7.29585 65.5949C7.24146 65.6493 7.1677 65.6799 7.09079 65.6799Z" fill="#D1D3D4"/>
<path d="M18.8186 65.6799H9.68941C9.6125 65.6799 9.53874 65.6493 9.48435 65.5949C9.42997 65.5405 9.39941 65.4668 9.39941 65.3899C9.4009 65.3134 9.43193 65.2405 9.48599 65.1864C9.54006 65.1324 9.61297 65.1013 9.68941 65.0999H18.8186C18.8955 65.0999 18.9693 65.1304 19.0237 65.1848C19.0781 65.2392 19.1086 65.3129 19.1086 65.3899C19.1086 65.4668 19.0781 65.5405 19.0237 65.5949C18.9693 65.6493 18.8955 65.6799 18.8186 65.6799Z" fill="#D1D3D4"/>
<path d="M22.4143 65.6799H19.8681C19.7912 65.6799 19.7174 65.6493 19.6631 65.5949C19.6087 65.5405 19.5781 65.4668 19.5781 65.3899C19.5781 65.3129 19.6087 65.2392 19.6631 65.1848C19.7174 65.1304 19.7912 65.0999 19.8681 65.0999H22.4143C22.4912 65.0999 22.565 65.1304 22.6194 65.1848C22.6738 65.2392 22.7043 65.3129 22.7043 65.3899C22.7043 65.4668 22.6738 65.5405 22.6194 65.5949C22.565 65.6493 22.4912 65.6799 22.4143 65.6799Z" fill="#D1D3D4"/>
<path d="M7.96079 69.0092H5.56539C5.48848 69.0092 5.41471 68.9786 5.36033 68.9243C5.30594 68.8699 5.27539 68.7961 5.27539 68.7192C5.27539 68.6423 5.30594 68.5685 5.36033 68.5141C5.41471 68.4597 5.48848 68.4292 5.56539 68.4292H7.96079C8.0377 68.4292 8.11146 68.4597 8.16585 68.5141C8.22024 68.5685 8.25079 68.6423 8.25079 68.7192C8.25079 68.7961 8.22024 68.8699 8.16585 68.9243C8.11146 68.9786 8.0377 69.0092 7.96079 69.0092Z" fill="#D1D3D4"/>
<path d="M21.0521 69.0092H10.2177C10.1408 69.0092 10.0671 68.9786 10.0127 68.9243C9.95829 68.8699 9.92773 68.7961 9.92773 68.7192C9.92922 68.6428 9.96025 68.5698 10.0143 68.5158C10.0684 68.4617 10.1413 68.4307 10.2177 68.4292H21.0521C21.129 68.4292 21.2028 68.4597 21.2572 68.5141C21.3116 68.5685 21.3421 68.6423 21.3421 68.7192C21.3421 68.7961 21.3116 68.8699 21.2572 68.9243C21.2028 68.9786 21.129 69.0092 21.0521 69.0092Z" fill="#D1D3D4"/>
<path d="M26.5504 69.0092H22.125C22.048 69.0092 21.9743 68.9786 21.9199 68.9243C21.8655 68.8699 21.835 68.7961 21.835 68.7192C21.835 68.6423 21.8655 68.5685 21.9199 68.5141C21.9743 68.4597 22.048 68.4292 22.125 68.4292H26.5504C26.6273 68.4292 26.701 68.4597 26.7554 68.5141C26.8098 68.5685 26.8404 68.6423 26.8404 68.7192C26.8404 68.7961 26.8098 68.8699 26.7554 68.9243C26.701 68.9786 26.6273 69.0092 26.5504 69.0092Z" fill="#D1D3D4"/>
<path d="M6.8995 72.3674H4.5273C4.45039 72.3674 4.37663 72.3368 4.32224 72.2824C4.26786 72.228 4.2373 72.1543 4.2373 72.0774C4.2373 72.0004 4.26786 71.9267 4.32224 71.8723C4.37663 71.8179 4.45039 71.7874 4.5273 71.7874H6.8995C6.97595 71.7888 7.04886 71.8199 7.10292 71.8739C7.15699 71.928 7.18802 72.0009 7.18951 72.0774C7.18951 72.1543 7.15895 72.228 7.10457 72.2824C7.05018 72.3368 6.97642 72.3674 6.8995 72.3674Z" fill="#D1D3D4"/>
<path d="M19.8686 72.3674H9.60836C9.53145 72.3674 9.45769 72.3368 9.4033 72.2824C9.34891 72.228 9.31836 72.1543 9.31836 72.0774C9.31984 72.0009 9.35088 71.928 9.40494 71.8739C9.45901 71.8199 9.53191 71.7888 9.60836 71.7874H19.8686C19.9455 71.7874 20.0192 71.8179 20.0736 71.8723C20.128 71.9267 20.1586 72.0004 20.1586 72.0774C20.1586 72.1543 20.128 72.228 20.0736 72.2824C20.0192 72.3368 19.9455 72.3674 19.8686 72.3674Z" fill="#D1D3D4"/>
<path d="M8.95271 75.7255H4.5273C4.45039 75.7255 4.37663 75.695 4.32224 75.6406C4.26786 75.5862 4.2373 75.5124 4.2373 75.4355C4.2373 75.3586 4.26786 75.2848 4.32224 75.2304C4.37663 75.1761 4.45039 75.1455 4.5273 75.1455H8.95271C9.02962 75.1455 9.10338 75.1761 9.15777 75.2304C9.21215 75.2848 9.24271 75.3586 9.24271 75.4355C9.24271 75.5124 9.21215 75.5862 9.15777 75.6406C9.10338 75.695 9.02962 75.7255 8.95271 75.7255Z" fill="#D1D3D4"/>
<path d="M33.5158 58.9345H27.5302C27.4533 58.9345 27.3796 58.9039 27.3252 58.8496C27.2708 58.7952 27.2402 58.7214 27.2402 58.6445C27.2402 58.5676 27.2708 58.4938 27.3252 58.4394C27.3796 58.385 27.4533 58.3545 27.5302 58.3545H33.5158C33.5927 58.3545 33.6665 58.385 33.7209 58.4394C33.7753 58.4938 33.8058 58.5676 33.8058 58.6445C33.8058 58.7214 33.7753 58.7952 33.7209 58.8496C33.6665 58.9039 33.5927 58.9345 33.5158 58.9345Z" fill="#D1D3D4"/>
<path d="M24.5546 48.86C21.556 48.86 21.4922 48.86 21.4574 48.86C21.3846 48.8372 21.3237 48.7867 21.2879 48.7194C21.2521 48.6521 21.2442 48.5734 21.266 48.5004C21.285 48.4333 21.328 48.3756 21.3868 48.3381C21.4456 48.3007 21.5162 48.2862 21.585 48.2974H31.561C31.6379 48.2974 31.7117 48.3279 31.766 48.3823C31.8204 48.4367 31.851 48.5105 31.851 48.5874C31.851 48.6643 31.8204 48.7381 31.766 48.7924C31.7117 48.8468 31.6379 48.8774 31.561 48.8774C28.2608 48.86 26.0394 48.86 24.5546 48.86Z" fill="#D1D3D4"/>
<path d="M25.5351 72.3674H21.0517C20.9748 72.3674 20.901 72.3368 20.8467 72.2824C20.7923 72.228 20.7617 72.1543 20.7617 72.0774C20.7632 72.0009 20.7942 71.928 20.8483 71.8739C20.9024 71.8199 20.9753 71.7888 21.0517 71.7874H25.5351C25.6116 71.7888 25.6845 71.8199 25.7385 71.8739C25.7926 71.928 25.8236 72.0009 25.8251 72.0774C25.8251 72.1543 25.7946 72.228 25.7402 72.2824C25.6858 72.3368 25.612 72.3674 25.5351 72.3674Z" fill="#D1D3D4"/>
<path d="M15.2572 75.7255H11.957C11.8801 75.7255 11.8063 75.695 11.7519 75.6406C11.6975 75.5862 11.667 75.5124 11.667 75.4355C11.6685 75.3591 11.6995 75.2862 11.7536 75.2321C11.8076 75.178 11.8805 75.147 11.957 75.1455H15.2572C15.3336 75.147 15.4065 75.178 15.4606 75.2321C15.5147 75.2862 15.5457 75.3591 15.5472 75.4355C15.5472 75.5124 15.5166 75.5862 15.4623 75.6406C15.4079 75.695 15.3341 75.7255 15.2572 75.7255Z" fill="#D1D3D4"/>
<path d="M24.3406 75.7255H16.5048C16.4279 75.7255 16.3542 75.695 16.2998 75.6406C16.2454 75.5862 16.2148 75.5124 16.2148 75.4355C16.2163 75.3591 16.2474 75.2862 16.3014 75.2321C16.3555 75.178 16.4284 75.147 16.5048 75.1455H24.3406C24.4171 75.147 24.49 75.178 24.5441 75.2321C24.5981 75.2862 24.6292 75.3591 24.6306 75.4355C24.6306 75.5124 24.6001 75.5862 24.5457 75.6406C24.4913 75.695 24.4176 75.7255 24.3406 75.7255Z" fill="#D1D3D4"/>
<path d="M161.864 98.8038C169.943 98.8038 176.492 92.2548 176.492 84.1762C176.492 76.0976 169.943 69.5486 161.864 69.5486C153.785 69.5486 147.236 76.0976 147.236 84.1762C147.236 92.2548 153.785 98.8038 161.864 98.8038Z" fill="#4460D9"/>
<path d="M161.865 99.0938C158.914 99.0938 156.03 98.2189 153.577 96.5797C151.124 94.9405 149.212 92.6107 148.083 89.8849C146.954 87.159 146.658 84.1596 147.234 81.2659C147.81 78.3721 149.23 75.7141 151.317 73.6278C153.403 71.5416 156.061 70.1208 158.955 69.5452C161.848 68.9696 164.848 69.265 167.574 70.3941C170.299 71.5232 172.629 73.4352 174.268 75.8884C175.908 78.3416 176.782 81.2257 176.782 84.1762C176.778 88.1311 175.205 91.9228 172.408 94.7194C169.612 97.516 165.82 99.0891 161.865 99.0938ZM161.865 69.8443C159.029 69.8443 156.257 70.6854 153.899 72.2611C151.541 73.8368 149.703 76.0763 148.618 78.6965C147.533 81.3167 147.25 84.1998 147.803 86.9812C148.357 89.7626 149.723 92.3173 151.729 94.3222C153.734 96.3271 156.29 97.6922 159.071 98.2448C161.853 98.7973 164.736 98.5126 167.356 97.4265C169.975 96.3404 172.214 94.5018 173.789 92.1433C175.364 89.7847 176.204 87.0121 176.202 84.1762C176.198 80.3755 174.686 76.732 171.998 74.0451C169.31 71.3582 165.665 69.8474 161.865 69.8443Z" fill="#231F20"/>
<path d="M168.29 94.8592L168.295 94.8563C168.982 94.4577 169.216 93.5775 168.817 92.8903L167.053 89.8501C166.655 89.163 165.775 88.9291 165.088 89.3277L165.082 89.3307C164.395 89.7293 164.161 90.6095 164.56 91.2966L166.324 94.3369C166.723 95.024 167.603 95.2579 168.29 94.8592Z" fill="#4460D9"/>
<path d="M167.56 95.347C167.41 95.3481 167.259 95.3286 167.114 95.289C166.894 95.2314 166.688 95.1304 166.507 94.992C166.327 94.8535 166.176 94.6804 166.064 94.4828L164.324 91.4494C164.096 91.052 164.033 90.5805 164.151 90.1375C164.268 89.6944 164.555 89.3155 164.95 89.083C165.348 88.8547 165.819 88.7925 166.262 88.9097C166.705 89.027 167.084 89.3144 167.317 89.7094L169.057 92.7486C169.285 93.1468 169.346 93.6188 169.228 94.0619C169.109 94.5051 168.821 94.8836 168.425 95.115C168.162 95.2664 167.864 95.3464 167.56 95.347ZM165.82 89.46C165.617 89.4602 165.418 89.5121 165.24 89.6108C164.977 89.7658 164.785 90.0184 164.707 90.3138C164.629 90.6092 164.671 90.9235 164.823 91.1884L166.563 94.2218C166.734 94.4475 166.982 94.6026 167.26 94.658C167.538 94.7134 167.826 94.6652 168.071 94.5225C168.316 94.3798 168.5 94.1524 168.588 93.8834C168.677 93.6143 168.664 93.3221 168.552 93.0618L166.812 90.0284C166.66 89.7642 166.41 89.5704 166.116 89.489C166.019 89.4681 165.92 89.4584 165.82 89.46Z" fill="#231F20"/>
<path d="M161.864 92.9631C166.935 92.9631 171.045 88.8525 171.045 83.7817C171.045 78.711 166.935 74.6003 161.864 74.6003C156.793 74.6003 152.683 78.711 152.683 83.7817C152.683 88.8525 156.793 92.9631 161.864 92.9631Z" fill="#4460D9"/>
<path d="M161.882 93.259C161.057 93.2588 160.237 93.1516 159.44 92.94C158.236 92.6236 157.106 92.0717 156.117 91.3161C155.127 90.5605 154.297 89.6162 153.675 88.5378C152.629 86.734 152.208 84.6357 152.476 82.5682C152.745 80.5006 153.688 78.5794 155.159 77.1025C156.631 75.6256 158.549 74.6754 160.615 74.3995C162.682 74.1236 164.782 74.5372 166.589 75.5763C168.397 76.6153 169.811 78.2218 170.612 80.1464C171.414 82.0711 171.558 84.2065 171.022 86.2214C170.487 88.2363 169.301 90.0181 167.649 91.2905C165.998 92.5629 163.972 93.2548 161.888 93.259H161.882ZM161.882 74.8962C160.322 74.8978 158.79 75.3101 157.439 76.0917C156.089 76.8734 154.969 77.9967 154.19 79.3488C153.412 80.7008 153.003 82.234 153.005 83.7941C153.008 85.3542 153.42 86.8863 154.203 88.2362C154.984 89.5881 156.107 90.7105 157.46 91.4904C158.813 92.2703 160.347 92.6802 161.908 92.6789C163.47 92.6776 165.003 92.2652 166.355 91.483C167.706 90.7009 168.828 89.5767 169.607 88.2234C170.386 86.8702 170.795 85.3357 170.792 83.7742C170.79 82.2128 170.377 80.6795 169.594 79.3286C168.811 77.9777 167.686 76.8568 166.332 76.0787C164.978 75.3006 163.443 74.8928 161.882 74.8962Z" fill="#231F20"/>
<path d="M161.864 91.316C166.025 91.316 169.398 87.9428 169.398 83.7818C169.398 79.6207 166.025 76.2476 161.864 76.2476C157.703 76.2476 154.33 79.6207 154.33 83.7818C154.33 87.9428 157.703 91.316 161.864 91.316Z" fill="#231F20"/>
</svg>
