<svg width="100" height="119" viewBox="0 0 100 119" fill="none" xmlns="http://www.w3.org/2000/svg">
<path d="M96.0149 62.2852H3.98452C2.53361 62.2852 1.35742 63.4613 1.35742 64.9123V111.249C1.35742 112.7 2.53361 113.876 3.98452 113.876H96.0149C97.4658 113.876 98.642 112.7 98.642 111.249V64.9123C98.642 63.4613 97.4658 62.2852 96.0149 62.2852Z" fill="#0E42C8"/>
<path d="M95.99 114.507H4.01003C3.1467 114.505 2.31921 114.162 1.70875 113.551C1.09829 112.941 0.754595 112.113 0.75293 111.25V64.9133C0.754595 64.05 1.09829 63.2225 1.70875 62.6121C2.31921 62.0016 3.1467 61.6579 4.01003 61.6562H95.99C96.8534 61.6579 97.6809 62.0016 98.2913 62.6121C98.9018 63.2225 99.2455 64.05 99.2471 64.9133V111.25C99.2455 112.113 98.9018 112.941 98.2913 113.551C97.6809 114.162 96.8534 114.505 95.99 114.507ZM4.01003 62.9162C3.48037 62.9162 2.97239 63.1267 2.59786 63.5012C2.22334 63.8757 2.01293 64.3837 2.01293 64.9133V111.25C2.01293 111.78 2.22334 112.287 2.59786 112.662C2.97239 113.037 3.48037 113.247 4.01003 113.247H95.99C96.5197 113.247 97.0277 113.037 97.4022 112.662C97.7767 112.287 97.9871 111.78 97.9871 111.25V64.9133C97.9871 64.3837 97.7767 63.8757 97.4022 63.5012C97.0277 63.1267 96.5197 62.9162 95.99 62.9162H4.01003Z" fill="#0E42C8"/>
<path d="M96.0149 59.4062H3.98452C2.53361 59.4062 1.35742 60.5824 1.35742 62.0333V108.37C1.35742 109.821 2.53361 110.997 3.98452 110.997H96.0149C97.4658 110.997 98.642 109.821 98.642 108.37V62.0333C98.642 60.5824 97.4658 59.4062 96.0149 59.4062Z" fill="#4460D9"/>
<path d="M95.99 111.625H4.01003C3.1467 111.623 2.31921 111.28 1.70875 110.669C1.09828 110.059 0.754595 109.231 0.75293 108.368V62.0188C0.754595 61.1555 1.09828 60.328 1.70875 59.7175C2.31921 59.1071 3.1467 58.7634 4.01003 58.7617H95.99C96.8534 58.7634 97.6808 59.1071 98.2913 59.7175C98.9018 60.328 99.2455 61.1555 99.2471 62.0188V108.355C99.248 108.784 99.1644 109.208 99.0011 109.605C98.8379 110.001 98.5982 110.361 98.2958 110.665C97.9933 110.968 97.634 111.209 97.2384 111.374C96.8428 111.539 96.4186 111.624 95.99 111.625ZM4.01003 60.0343C3.48088 60.036 2.97387 60.2469 2.5997 60.6211C2.22553 60.9953 2.01459 61.5023 2.01293 62.0314V108.368C2.01293 108.898 2.22333 109.406 2.59786 109.78C2.97239 110.155 3.48036 110.365 4.01003 110.365H95.99C96.5197 110.365 97.0277 110.155 97.4022 109.78C97.7767 109.406 97.9871 108.898 97.9871 108.368V62.0188C97.9855 61.4897 97.7745 60.9827 97.4004 60.6085C97.0262 60.2343 96.5192 60.0234 95.99 60.0217L4.01003 60.0343Z" fill="#0E42C8"/>
<path d="M88.7824 91.8689H11.2168C10.2772 91.8689 9.37601 91.4961 8.71101 90.8323C8.04602 90.1685 7.67159 89.2679 7.66992 88.3283V67.4375C7.67159 66.4973 8.04582 65.5961 8.71063 64.9313C9.37544 64.2665 10.2766 63.8923 11.2168 63.8906H88.7824C89.7226 63.8923 90.6238 64.2665 91.2886 64.9313C91.9534 65.5961 92.3277 66.4973 92.3293 67.4375V88.3283C92.3277 89.2679 91.9532 90.1685 91.2882 90.8323C90.6232 91.4961 89.722 91.8689 88.7824 91.8689ZM11.2168 65.1695C10.6108 65.1712 10.0301 65.4127 9.60158 65.8412C9.17306 66.2697 8.93158 66.8504 8.92992 67.4564V88.3472C8.93159 88.9527 9.17326 89.5327 9.60196 89.9602C10.0307 90.3878 10.6114 90.6278 11.2168 90.6278H88.7824C89.3879 90.6278 89.9686 90.3878 90.3973 89.9602C90.826 89.5327 91.0677 88.9527 91.0693 88.3472V67.4375C91.0677 66.8315 90.8262 66.2508 90.3977 65.8223C89.9691 65.3938 89.3884 65.1523 88.7824 65.1506L11.2168 65.1695Z" fill="#DFEAEF"/>
<path d="M59.9418 107.02H40.0653C39.7082 107.021 39.3545 106.952 39.0243 106.815C38.6941 106.679 38.3941 106.479 38.1413 106.227C37.8885 105.975 37.6879 105.675 37.551 105.346C37.4142 105.016 37.3437 104.662 37.3438 104.305V96.745C37.3438 96.0232 37.6305 95.331 38.1409 94.8206C38.6513 94.3102 39.3435 94.0234 40.0653 94.0234H59.9418C60.6626 94.0251 61.3532 94.3126 61.8622 94.8228C62.3713 95.333 62.6571 96.0243 62.6571 96.745V104.305C62.6571 105.025 62.3711 105.716 61.8619 106.225C61.3526 106.734 60.662 107.02 59.9418 107.02ZM40.0653 95.3149C39.6777 95.3149 39.3059 95.4689 39.0318 95.743C38.7577 96.0171 38.6037 96.3889 38.6037 96.7765V104.337C38.6054 104.723 38.7601 105.093 39.0341 105.366C39.308 105.639 39.6788 105.792 40.0653 105.792H59.9418C60.3273 105.79 60.6965 105.636 60.9691 105.364C61.2416 105.091 61.3955 104.722 61.3971 104.337V96.7765C61.3971 96.39 61.244 96.0192 60.9713 95.7452C60.6985 95.4713 60.3284 95.3166 59.9418 95.3149H40.0653Z" fill="#DFEAEF"/>
<path d="M70.084 114.492V104.739C70.084 104.739 64.5777 100.291 63.513 98.2753C62.4483 96.2593 61.0749 89.1592 63.513 88.7371C65.9511 88.315 65.9511 92.6557 66.5874 93.6133C67.2237 94.5709 69.1074 95.5033 69.1074 95.5033V76.7608C69.1074 72.5209 73.5553 74.4802 73.9837 76.9183C73.9837 76.9183 73.8199 72.4705 76.0501 72.7855C78.2803 73.1005 78.5701 76.2064 78.5701 77.2396C78.5701 77.2396 78.6015 73.4911 80.7372 73.888C83.5848 74.4235 84.0573 79.0666 84.0573 79.0666C84.0573 79.0666 84.2715 74.6566 86.5773 76.1245C88.8831 77.5924 88.7761 81.2149 88.9839 82.8025C89.1919 84.3901 88.9839 99.5479 88.9839 102.515C88.9839 105.483 85.7017 106.541 85.7017 106.541V114.492H70.084Z" fill="white"/>
<path d="M85.7714 115.122H70.0844C69.9173 115.122 69.7571 115.055 69.639 114.937C69.5208 114.819 69.4544 114.659 69.4544 114.492V105.042C68.3708 104.147 63.9482 100.449 62.9591 98.5715C62.1086 96.9524 60.8234 91.6415 61.9826 89.2664C62.1076 88.9725 62.3027 88.7137 62.551 88.5127C62.7992 88.3117 63.0929 88.1746 63.4064 88.1135C65.7311 87.7103 66.3611 90.3941 66.7391 92.0006C66.8158 92.4332 66.9404 92.8558 67.1108 93.2606C67.5007 93.7318 67.9723 94.1287 68.5031 94.4324V76.7924C68.5031 74.0834 70.1663 73.7306 70.6766 73.6865C71.2109 73.6725 71.7421 73.772 72.2351 73.9783C72.7281 74.1846 73.1718 74.4931 73.5368 74.8835C73.6421 74.0536 74.0058 73.2778 74.5763 72.6659C74.7877 72.4718 75.0405 72.3284 75.3156 72.2465C75.5907 72.1646 75.8808 72.1465 76.1639 72.1934C76.7392 72.2921 77.277 72.5445 77.7206 72.9238C78.1642 73.303 78.497 73.7951 78.6839 74.348C78.8289 74.1098 79.0119 73.897 79.2257 73.718C79.4553 73.531 79.7238 73.3977 80.0116 73.3279C80.2994 73.2582 80.5992 73.2537 80.8889 73.3148C82.5773 73.6298 83.5412 75.0914 84.0767 76.4648C84.2756 76.0266 84.6058 75.6611 85.0217 75.419C85.3367 75.274 85.6856 75.2185 86.03 75.2585C86.3745 75.2985 86.7013 75.4325 86.9747 75.6458C89.1986 77.057 89.4317 79.9676 89.5892 81.8891C89.5892 82.223 89.6396 82.5191 89.6774 82.7711C89.8223 83.9051 89.7782 91.0934 89.7089 98.3573C89.7089 100.247 89.6774 101.81 89.6774 102.566C89.6774 105.281 87.3842 106.585 86.3951 107.02V114.542C86.3825 114.699 86.3115 114.846 86.196 114.953C86.0806 115.06 85.9291 115.121 85.7714 115.122ZM70.7144 113.862H85.1414V106.541C85.1415 106.408 85.1836 106.279 85.2617 106.171C85.3398 106.064 85.4498 105.984 85.5761 105.943C85.6895 105.905 88.4237 104.979 88.4237 102.515C88.4237 101.759 88.4237 100.21 88.4552 98.2943C88.5056 92.9582 88.5812 84.0248 88.4552 82.8845C88.4237 82.6199 88.3922 82.2986 88.367 81.9395C88.2284 80.2637 88.0205 77.7311 86.3321 76.6601C86.0297 76.4648 85.7903 76.4081 85.6328 76.49C85.1099 76.7609 84.8012 78.2036 84.7571 79.0982C84.749 79.2598 84.6791 79.4121 84.5618 79.5235C84.4445 79.6349 84.2889 79.6969 84.1271 79.6967C83.9704 79.6975 83.819 79.6399 83.7025 79.535C83.586 79.4302 83.5128 79.2857 83.4971 79.1297C83.4971 79.0919 83.0372 74.9465 80.6873 74.5118C80.5795 74.4807 80.4657 74.4765 80.3559 74.4996C80.246 74.5227 80.1435 74.5723 80.0573 74.6441C79.4966 75.1103 79.2761 76.4837 79.2635 77.246C79.2635 77.4131 79.1972 77.5734 79.079 77.6915C78.9609 77.8097 78.8006 77.876 78.6335 77.876C78.4664 77.876 78.3062 77.8097 78.1881 77.6915C78.0699 77.5734 78.0035 77.4131 78.0035 77.246C78.0035 77.1011 78.0035 73.6991 76.0064 73.4156C75.9062 73.3938 75.8022 73.3967 75.7034 73.4241C75.6046 73.4516 75.514 73.5027 75.4394 73.5731C74.7275 74.2031 74.633 76.2443 74.6582 76.9058C74.6749 77.0729 74.6246 77.2398 74.5183 77.3698C74.4119 77.4997 74.2583 77.5821 74.0912 77.5988C73.9241 77.6155 73.7573 77.5652 73.6273 77.4589C73.4973 77.3525 73.4149 77.1989 73.3982 77.0318C73.2444 76.449 72.9096 75.9301 72.442 75.5497C71.9745 75.1693 71.3982 74.9471 70.7963 74.915C69.9521 74.9906 69.7757 75.9671 69.7757 76.7672V95.5286C69.7754 95.636 69.7476 95.7416 69.695 95.8352C69.6425 95.9288 69.5668 96.0075 69.4753 96.0637C69.3838 96.1198 69.2794 96.1517 69.1721 96.1562C69.0648 96.1607 68.9581 96.1377 68.8622 96.0893C68.6543 95.9822 66.7832 95.0309 66.0776 93.9662C65.8064 93.4423 65.6193 92.8789 65.5232 92.2967C65.0381 90.2177 64.616 89.1908 63.6332 89.3672C63.5009 89.3672 63.3056 89.4617 63.1229 89.8271C62.2787 91.5533 63.2615 96.4232 64.0868 98.0171C64.9121 99.611 68.9882 103.057 70.4939 104.286C70.567 104.345 70.6259 104.42 70.6662 104.505C70.7066 104.59 70.7273 104.683 70.727 104.777L70.7144 113.862Z" fill="#0E42C8"/>
<path d="M74.0089 87.9882C73.8418 87.9882 73.6816 87.9218 73.5634 87.8036C73.4453 87.6855 73.3789 87.5253 73.3789 87.3582V76.9191C73.3789 76.752 73.4453 76.5917 73.5634 76.4736C73.6816 76.3554 73.8418 76.2891 74.0089 76.2891C74.176 76.2891 74.3362 76.3554 74.4544 76.4736C74.5725 76.5917 74.6389 76.752 74.6389 76.9191V87.3582C74.6389 87.5253 74.5725 87.6855 74.4544 87.8036C74.3362 87.9218 74.176 87.9882 74.0089 87.9882Z" fill="#0E42C8"/>
<path d="M78.6144 87.458C78.4473 87.458 78.287 87.3916 78.1689 87.2735C78.0507 87.1553 77.9844 86.9951 77.9844 86.828V77.2394C77.9844 77.0723 78.0507 76.912 78.1689 76.7939C78.287 76.6757 78.4473 76.6094 78.6144 76.6094C78.7815 76.6094 78.9417 76.6757 79.0599 76.7939C79.178 76.912 79.2444 77.0723 79.2444 77.2394V86.828C79.2444 86.9951 79.178 87.1553 79.0599 87.2735C78.9417 87.3916 78.7815 87.458 78.6144 87.458Z" fill="#0E42C8"/>
<path d="M84.1017 87.4591C83.9346 87.4591 83.7743 87.3927 83.6562 87.2746C83.5381 87.1564 83.4717 86.9962 83.4717 86.8291V79.0675C83.4717 78.9004 83.5381 78.7402 83.6562 78.622C83.7743 78.5039 83.9346 78.4375 84.1017 78.4375C84.2688 78.4375 84.429 78.5039 84.5472 78.622C84.6653 78.7402 84.7317 78.9004 84.7317 79.0675V86.8291C84.7317 86.9962 84.6653 87.1564 84.5472 87.2746C84.429 87.3927 84.2688 87.4591 84.1017 87.4591Z" fill="#0E42C8"/>
<path d="M68.5596 109.277H87.8061V117.789H68.5596V109.277Z" fill="#68E1FD"/>
<path d="M87.7999 118.418H68.5597C68.3926 118.418 68.2324 118.352 68.1142 118.234C67.9961 118.116 67.9297 117.955 67.9297 117.788V109.271C67.9297 109.104 67.9961 108.943 68.1142 108.825C68.2324 108.707 68.3926 108.641 68.5597 108.641H87.7999C87.967 108.641 88.1272 108.707 88.2454 108.825C88.3635 108.943 88.4299 109.104 88.4299 109.271V117.782C88.4307 117.865 88.415 117.948 88.3837 118.025C88.3525 118.102 88.3062 118.172 88.2476 118.231C88.189 118.291 88.1193 118.338 88.0424 118.37C87.9656 118.402 87.8831 118.418 87.7999 118.418ZM69.1897 117.158H87.1699V109.901H69.1897V117.158Z" fill="#0E42C8"/>
<path d="M89.6143 118.089V115.758C89.6143 115.09 89.3488 114.449 88.8762 113.976C88.4036 113.504 87.7626 113.238 87.0943 113.238H68.8999C68.2315 113.238 67.5906 113.504 67.118 113.976C66.6454 114.449 66.3799 115.09 66.3799 115.758V118.089H89.6143Z" fill="#68E1FD"/>
<path d="M89.6144 118.72H66.38C66.2129 118.72 66.0527 118.654 65.9345 118.536C65.8164 118.418 65.75 118.257 65.75 118.09V115.759C65.75 114.924 66.0819 114.123 66.6726 113.532C67.2634 112.941 68.0646 112.609 68.9 112.609H87.1133C87.9487 112.609 88.7499 112.941 89.3407 113.532C89.9314 114.123 90.2633 114.924 90.2633 115.759V118.09C90.2633 118.175 90.2464 118.258 90.2136 118.336C90.1808 118.414 90.1327 118.484 90.0721 118.543C90.0116 118.601 89.9399 118.647 89.8613 118.678C89.7827 118.708 89.6987 118.723 89.6144 118.72ZM67.01 117.46H89.0033V115.759C89.0033 115.258 88.8042 114.777 88.4497 114.423C88.0953 114.068 87.6146 113.869 87.1133 113.869H68.9C68.3987 113.869 67.918 114.068 67.5636 114.423C67.2091 114.777 67.01 115.258 67.01 115.759V117.46Z" fill="#0E42C8"/>
<path d="M29.7452 110.236V100.483C29.7452 100.483 35.2577 96.0356 36.3161 94.0196C37.3745 92.0036 38.7542 84.9098 36.3161 84.4814C33.878 84.053 33.878 88.4063 33.2417 89.3576C32.6054 90.3089 30.7217 91.2476 30.7217 91.2476V72.5051C30.7217 68.2715 26.2739 70.2308 25.8518 72.6689C25.8518 72.6689 26.0093 68.2148 23.7854 68.5361C21.5615 68.8574 21.2654 71.9507 21.2654 72.9839C21.2654 72.9839 21.2654 69.2039 19.1045 69.6386C16.2569 70.1678 15.7781 74.8109 15.7781 74.8109C15.7781 74.8109 15.5702 70.4009 13.2581 71.8688C10.946 73.3367 11.0594 76.9592 10.8452 78.5468C10.631 80.1344 10.8452 95.2922 10.8452 98.2595C10.8452 101.227 14.1275 102.285 14.1275 102.285V110.236H29.7452Z" fill="white"/>
<path d="M29.7458 110.864H14.0903C13.9232 110.864 13.7629 110.798 13.6448 110.68C13.5266 110.562 13.4603 110.401 13.4603 110.234V102.712C12.4775 102.278 10.1779 100.973 10.1779 98.2581C10.1779 97.5021 10.178 95.9586 10.1465 94.0497C10.0835 86.7858 10.0331 79.5975 10.1843 78.4635C10.2158 78.2178 10.2409 77.9154 10.2661 77.5815C10.4173 75.7734 10.6631 72.7494 12.8807 71.3382C13.1553 71.1247 13.4836 70.9911 13.8293 70.9522C14.175 70.9133 14.5247 70.9706 14.84 71.1177C15.2552 71.3558 15.584 71.7199 15.7786 72.1572C16.3204 70.7901 17.2781 69.3285 18.9665 69.0072C19.2562 68.9461 19.556 68.9505 19.8438 69.0203C20.1315 69.0901 20.4001 69.2234 20.6297 69.4104C20.8433 69.5896 21.0263 69.8024 21.1715 70.0404C21.3571 69.4868 21.6896 68.994 22.1334 68.6146C22.5772 68.2351 23.1157 67.9832 23.6915 67.8858C23.9741 67.838 24.2639 67.8552 24.539 67.9359C24.814 68.0167 25.0671 68.159 25.279 68.352C25.8485 68.9646 26.212 69.74 26.3186 70.5696C26.6867 70.1833 27.131 69.8775 27.6232 69.6715C28.1155 69.4655 28.6452 69.3637 29.1787 69.3726C29.6891 69.4167 31.3522 69.7758 31.3522 72.4785V90.1815C31.8829 89.8776 32.3545 89.4807 32.7446 89.0097C32.9134 88.6043 33.038 88.1818 33.1162 87.7497C33.4942 86.1495 34.118 83.4594 36.449 83.8689C36.7624 83.9278 37.0565 84.0633 37.3049 84.2634C37.5533 84.4634 37.7484 84.7218 37.8728 85.0155C39.032 87.3717 37.753 92.7015 36.8962 94.3206C35.9072 96.2106 31.4846 99.8961 30.401 100.791V110.241C30.4002 110.325 30.3825 110.408 30.3489 110.486C30.3153 110.563 30.2665 110.633 30.2054 110.691C30.1442 110.749 30.0721 110.795 29.9931 110.824C29.9142 110.854 29.8301 110.868 29.7458 110.864ZM14.6888 109.604H29.1158V100.482C29.1164 100.389 29.1376 100.297 29.1779 100.213C29.2182 100.129 29.2766 100.056 29.3489 99.9969C30.8546 98.781 34.9369 95.2845 35.7622 93.7284C36.5875 92.1723 37.5704 87.2898 36.7199 85.5384C36.5372 85.173 36.3419 85.0974 36.2096 85.0785C35.2394 84.9084 34.811 85.929 34.3196 88.008C34.2251 88.5926 34.038 89.1583 33.7652 89.6838C33.0595 90.7422 31.1947 91.6998 30.9806 91.8006C30.8846 91.8489 30.778 91.872 30.6707 91.8675C30.5634 91.863 30.459 91.8311 30.3675 91.7749C30.276 91.7188 30.2003 91.6401 30.1477 91.5465C30.0952 91.4528 30.0674 91.3473 30.0671 91.2399V72.5037C30.0671 71.7036 29.8907 70.7271 29.0465 70.6578C28.4434 70.686 27.8652 70.9068 27.3969 71.2878C26.9286 71.6688 26.5948 72.1899 26.4446 72.7746C26.427 72.9417 26.3438 73.095 26.2133 73.2007C26.0827 73.3065 25.9155 73.356 25.7484 73.3385C25.5813 73.3209 25.428 73.2377 25.3223 73.1072C25.2166 72.9766 25.167 72.8094 25.1846 72.6423C25.2161 71.6595 25.0334 69.8829 24.3971 69.3159C24.3232 69.2465 24.2336 69.1959 24.136 69.1685C24.0384 69.1411 23.9356 69.1376 23.8364 69.1584C21.8519 69.4419 21.8329 72.8376 21.8329 72.9825C21.8329 73.1496 21.7666 73.3098 21.6484 73.428C21.5303 73.5461 21.37 73.6125 21.2029 73.6125C21.0359 73.6125 20.8756 73.5461 20.7575 73.428C20.6393 73.3098 20.5729 73.1496 20.5729 72.9825C20.5729 72.2202 20.3461 70.8468 19.7854 70.3806C19.698 70.3111 19.5955 70.2629 19.4861 70.2399C19.3767 70.217 19.2635 70.2198 19.1554 70.2483C16.8055 70.683 16.3457 74.8284 16.3457 74.8725C16.3285 75.0273 16.2547 75.1703 16.1383 75.2738C16.022 75.3774 15.8714 75.4342 15.7157 75.4332C15.5486 75.4332 15.3883 75.3668 15.2702 75.2487C15.152 75.1305 15.0857 74.9703 15.0857 74.8032C15.0416 73.9149 14.7329 72.4659 14.2162 72.195C14.0525 72.1131 13.8194 72.195 13.5107 72.3651C11.8223 73.4424 11.6207 75.975 11.4821 77.6508C11.4821 78.0036 11.4254 78.3249 11.3876 78.5895C11.2364 79.7298 11.3183 88.6695 11.3876 94.0056C11.3876 95.8956 11.419 97.4643 11.419 98.2203C11.419 100.684 14.1533 101.61 14.2667 101.648C14.393 101.689 14.503 101.769 14.5811 101.876C14.6592 101.984 14.7013 102.113 14.7014 102.246L14.6888 109.604Z" fill="#0E42C8"/>
<path d="M25.8273 83.7343C25.6602 83.7343 25.4999 83.6679 25.3818 83.5497C25.2636 83.4316 25.1973 83.2713 25.1973 83.1043V72.6652C25.1973 72.4981 25.2636 72.3378 25.3818 72.2197C25.4999 72.1015 25.6602 72.0352 25.8273 72.0352C25.9944 72.0352 26.1546 72.1015 26.2727 72.2197C26.3909 72.3378 26.4573 72.4981 26.4573 72.6652V83.1043C26.4573 83.2713 26.3909 83.4316 26.2727 83.5497C26.1546 83.6679 25.9944 83.7343 25.8273 83.7343Z" fill="#0E42C8"/>
<path d="M21.215 83.2002C21.0479 83.2002 20.8876 83.1338 20.7695 83.0156C20.6513 82.8975 20.585 82.7373 20.585 82.5702V72.9816C20.585 72.8145 20.6513 72.6542 20.7695 72.5361C20.8876 72.4179 21.0479 72.3516 21.215 72.3516C21.382 72.3516 21.5423 72.4179 21.6604 72.5361C21.7786 72.6542 21.845 72.8145 21.845 72.9816V82.5702C21.845 82.7373 21.7786 82.8975 21.6604 83.0156C21.5423 83.1338 21.382 83.2002 21.215 83.2002Z" fill="#0E42C8"/>
<path d="M15.7277 83.2013C15.5606 83.2013 15.4003 83.1349 15.2822 83.0168C15.164 82.8986 15.0977 82.7384 15.0977 82.5713V74.8097C15.0977 74.6426 15.164 74.4824 15.2822 74.3642C15.4003 74.2461 15.5606 74.1797 15.7277 74.1797C15.8947 74.1797 16.055 74.2461 16.1731 74.3642C16.2913 74.4824 16.3577 74.6426 16.3577 74.8097V82.5713C16.3577 82.7384 16.2913 82.8986 16.1731 83.0168C16.055 83.1349 15.8947 83.2013 15.7277 83.2013Z" fill="#0E42C8"/>
<path d="M31.2764 113.535H12.0299V105.024H31.2764V113.535Z" fill="#68E1FD"/>
<path d="M31.2759 114.164H12.0294C11.8623 114.164 11.7021 114.098 11.5839 113.98C11.4658 113.862 11.3994 113.701 11.3994 113.534V105.017C11.3994 104.85 11.4658 104.689 11.5839 104.571C11.7021 104.453 11.8623 104.387 12.0294 104.387H31.2759C31.443 104.387 31.6032 104.453 31.7214 104.571C31.8395 104.689 31.9059 104.85 31.9059 105.017V113.534C31.9059 113.701 31.8395 113.862 31.7214 113.98C31.6032 114.098 31.443 114.164 31.2759 114.164ZM12.6594 112.904H30.6459V105.647H12.6594V112.904Z" fill="#0E42C8"/>
<path d="M33.4687 118.092V111.508C33.4687 110.84 33.2032 110.199 32.7306 109.726C32.258 109.254 31.617 108.988 30.9487 108.988H12.7417C12.0733 108.988 11.4324 109.254 10.9598 109.726C10.4872 110.199 10.2217 110.84 10.2217 111.508V118.092H33.4687Z" fill="#68E1FD"/>
<path d="M33.4688 118.719H10.2218C10.0547 118.719 9.89447 118.653 9.77632 118.534C9.65817 118.416 9.5918 118.256 9.5918 118.089V111.505C9.5918 110.67 9.92367 109.869 10.5144 109.278C11.1051 108.687 11.9064 108.355 12.7418 108.355H30.9488C31.7842 108.355 32.5854 108.687 33.1762 109.278C33.7669 109.869 34.0988 110.67 34.0988 111.505V118.089C34.0988 118.256 34.0324 118.416 33.9143 118.534C33.7961 118.653 33.6359 118.719 33.4688 118.719ZM10.8518 117.459H32.8388V111.499C32.8388 110.998 32.6397 110.517 32.2852 110.163C31.9308 109.808 31.4501 109.609 30.9488 109.609H12.7418C12.2405 109.609 11.7598 109.808 11.4054 110.163C11.0509 110.517 10.8518 110.998 10.8518 111.499V117.459Z" fill="#0E42C8"/>
<path d="M98.2514 2.42694V57.8669C98.2514 58.7048 97.2749 59.3852 96.0716 59.3852H3.53722C2.32762 59.3852 1.35742 58.7048 1.35742 57.8669V2.42694C1.35742 1.58274 2.32762 0.902344 3.53722 0.902344H96.0716C97.2497 0.908644 98.2514 1.58274 98.2514 2.42694Z" fill="#4460D9"/>
<path d="M96.0717 60.0359H3.53734C1.96234 60.0359 0.727539 59.0972 0.727539 57.8876V2.44757C0.727539 1.23797 1.98754 0.292969 3.53734 0.292969H96.0717C97.6467 0.292969 98.8815 1.23797 98.8815 2.44757V57.8876C98.8815 59.0972 97.6467 60.0359 96.0717 60.0359ZM3.53734 1.54037C2.62384 1.54037 1.98754 2.01287 1.98754 2.43497V57.875C1.98754 58.2971 2.61754 58.7633 3.53734 58.7633H96.0717C96.96 58.7633 97.6215 58.2971 97.6215 57.875V2.43497C97.6215 2.01287 96.9915 1.54037 96.0717 1.54037H3.53734Z" fill="#0E42C8"/>
<path d="M98.2513 2.42846V57.8685C98.2513 58.7064 97.2748 59.3868 96.0715 59.3868H34.5205V0.910156H96.0715C97.2496 0.910156 98.2513 1.58426 98.2513 2.42846Z" fill="#0F1021"/>
<path d="M96.0716 60.0368H34.5206C34.3535 60.0368 34.1933 59.9704 34.0752 59.8522C33.957 59.7341 33.8906 59.5738 33.8906 59.4068V0.91125C33.8906 0.744164 33.957 0.58392 34.0752 0.465772C34.1933 0.347624 34.3535 0.28125 34.5206 0.28125H96.0716C97.6466 0.28125 98.8814 1.22625 98.8814 2.43585V57.8759C98.8814 59.0981 97.6466 60.0368 96.0716 60.0368ZM35.1506 58.7768H96.0716C96.9599 58.7768 97.6214 58.3106 97.6214 57.8885V2.44845C97.6214 2.02635 96.9914 1.55385 96.0716 1.55385H35.1506V58.7768Z" fill="#0E42C8"/>
<path d="M98.2514 2.42694V8.67024H1.35742V2.42694C1.35742 1.58274 2.32762 0.902344 3.53722 0.902344H96.0716C97.2497 0.908644 98.2514 1.58274 98.2514 2.42694Z" fill="#4460D9"/>
<path d="M98.2515 9.30134H1.35754C1.19045 9.30134 1.03021 9.23496 0.912061 9.11681C0.793913 8.99867 0.727539 8.83842 0.727539 8.67134V2.42804C0.727539 1.21844 1.98754 0.273438 3.53734 0.273438H96.0717C97.6467 0.273438 98.8815 1.21844 98.8815 2.42804V8.67134C98.8815 8.83842 98.8152 8.99867 98.697 9.11681C98.5789 9.23496 98.4186 9.30134 98.2515 9.30134ZM1.98754 8.04134H97.6215V2.42804C97.6215 2.00594 96.9915 1.53344 96.0717 1.53344H3.53734C2.62384 1.53344 1.98754 2.00594 1.98754 2.42804V8.04134Z" fill="#0E42C8"/>
<path d="M23.8422 14.1702H7.36145C7.19436 14.1702 7.03412 14.1038 6.91597 13.9856C6.79782 13.8675 6.73145 13.7072 6.73145 13.5402C6.73145 13.3731 6.79782 13.2128 6.91597 13.0947C7.03412 12.9765 7.19436 12.9102 7.36145 12.9102H23.8422C24.0093 12.9102 24.1696 12.9765 24.2877 13.0947C24.4059 13.2128 24.4722 13.3731 24.4722 13.5402C24.4722 13.7072 24.4059 13.8675 24.2877 13.9856C24.1696 14.1038 24.0093 14.1702 23.8422 14.1702Z" fill="#DFEAEF"/>
<path d="M26.6902 19.3342H12.8302C12.6631 19.3342 12.5029 19.2678 12.3847 19.1497C12.2666 19.0315 12.2002 18.8713 12.2002 18.7042C12.2002 18.5371 12.2666 18.3769 12.3847 18.2587C12.5029 18.1406 12.6631 18.0742 12.8302 18.0742H26.6902C26.8573 18.0742 27.0175 18.1406 27.1357 18.2587C27.2538 18.3769 27.3202 18.5371 27.3202 18.7042C27.3202 18.8713 27.2538 19.0315 27.1357 19.1497C27.0175 19.2678 26.8573 19.3342 26.6902 19.3342Z" fill="#DFEAEF"/>
<path d="M28.5796 24.4944H17.0128C16.8457 24.4944 16.6855 24.428 16.5673 24.3099C16.4492 24.1917 16.3828 24.0315 16.3828 23.8644C16.3828 23.6973 16.4492 23.537 16.5673 23.4189C16.6855 23.3007 16.8457 23.2344 17.0128 23.2344H28.5796C28.7467 23.2344 28.9069 23.3007 29.0251 23.4189C29.1432 23.537 29.2096 23.6973 29.2096 23.8644C29.2096 24.0315 29.1432 24.1917 29.0251 24.3099C28.9069 24.428 28.7467 24.4944 28.5796 24.4944Z" fill="#DFEAEF"/>
<path d="M24.8003 29.6623H10.1905C10.0235 29.6623 9.86322 29.596 9.74507 29.4778C9.62692 29.3597 9.56055 29.1994 9.56055 29.0323C9.56055 28.8653 9.62692 28.705 9.74507 28.5869C9.86322 28.4687 10.0235 28.4023 10.1905 28.4023H24.8003C24.9673 28.4023 25.1276 28.4687 25.2457 28.5869C25.3639 28.705 25.4303 28.8653 25.4303 29.0323C25.4303 29.1994 25.3639 29.3597 25.2457 29.4778C25.1276 29.596 24.9673 29.6623 24.8003 29.6623Z" fill="#DFEAEF"/>
<path d="M20.8623 34.8225H7.36145C7.19436 34.8225 7.03412 34.7561 6.91597 34.638C6.79782 34.5198 6.73145 34.3596 6.73145 34.1925C6.73145 34.0254 6.79782 33.8652 6.91597 33.747C7.03412 33.6289 7.19436 33.5625 7.36145 33.5625H20.8623C21.0294 33.5625 21.1897 33.6289 21.3078 33.747C21.426 33.8652 21.4923 34.0254 21.4923 34.1925C21.4923 34.3596 21.426 34.5198 21.3078 34.638C21.1897 34.7561 21.0294 34.8225 20.8623 34.8225Z" fill="#DFEAEF"/>
<path d="M23.842 39.967H11.9161C11.749 39.967 11.5888 39.9007 11.4707 39.7825C11.3525 39.6644 11.2861 39.5041 11.2861 39.337C11.2861 39.1699 11.3525 39.0097 11.4707 38.8916C11.5888 38.7734 11.749 38.707 11.9161 38.707H23.842C24.0091 38.707 24.1694 38.7734 24.2875 38.8916C24.4057 39.0097 24.472 39.1699 24.472 39.337C24.472 39.5041 24.4057 39.6644 24.2875 39.7825C24.1694 39.9007 24.0091 39.967 23.842 39.967Z" fill="#DFEAEF"/>
<path d="M19.722 45.1467H7.36145C7.19436 45.1467 7.03412 45.0803 6.91597 44.9622C6.79782 44.844 6.73145 44.6838 6.73145 44.5167C6.73145 44.3496 6.79782 44.1894 6.91597 44.0712C7.03412 43.9531 7.19436 43.8867 7.36145 43.8867H19.722C19.8891 43.8867 20.0494 43.9531 20.1675 44.0712C20.2857 44.1894 20.352 44.3496 20.352 44.5167C20.352 44.6838 20.2857 44.844 20.1675 44.9622C20.0494 45.0803 19.8891 45.1467 19.722 45.1467Z" fill="#DFEAEF"/>
<path d="M23.842 50.3147H11.9161C11.749 50.3147 11.5888 50.2483 11.4707 50.1302C11.3525 50.012 11.2861 49.8518 11.2861 49.6847C11.2861 49.5176 11.3525 49.3574 11.4707 49.2392C11.5888 49.1211 11.749 49.0547 11.9161 49.0547H23.842C24.0091 49.0547 24.1694 49.1211 24.2875 49.2392C24.4057 49.3574 24.472 49.5176 24.472 49.6847C24.472 49.8518 24.4057 50.012 24.2875 50.1302C24.1694 50.2483 24.0091 50.3147 23.842 50.3147Z" fill="#DFEAEF"/>
<path d="M50.9257 14.1702H40.8898C40.7227 14.1702 40.5624 14.1038 40.4443 13.9856C40.3261 13.8675 40.2598 13.7072 40.2598 13.5402C40.2598 13.3731 40.3261 13.2128 40.4443 13.0947C40.5624 12.9765 40.7227 12.9102 40.8898 12.9102H50.9257C51.0928 12.9102 51.253 12.9765 51.3711 13.0947C51.4893 13.2128 51.5557 13.3731 51.5557 13.5402C51.5557 13.7072 51.4893 13.8675 51.3711 13.9856C51.253 14.1038 51.0928 14.1702 50.9257 14.1702Z" fill="#4460D9"/>
<path d="M64.7983 19.3381H44.1847C44.0176 19.3381 43.8574 19.2718 43.7392 19.1536C43.6211 19.0355 43.5547 18.8752 43.5547 18.7081C43.5547 18.541 43.6211 18.3808 43.7392 18.2626C43.8574 18.1445 44.0176 18.0781 44.1847 18.0781H64.7983C64.9654 18.0781 65.1256 18.1445 65.2438 18.2626C65.3619 18.3808 65.4283 18.541 65.4283 18.7081C65.4283 18.8752 65.3619 19.0355 65.2438 19.1536C65.1256 19.2718 64.9654 19.3381 64.7983 19.3381Z" fill="#FFBC0E"/>
<path d="M59.6827 24.4983H44.1847C44.0176 24.4983 43.8574 24.4319 43.7392 24.3138C43.6211 24.1956 43.5547 24.0354 43.5547 23.8683C43.5547 23.7012 43.6211 23.541 43.7392 23.4228C43.8574 23.3047 44.0176 23.2383 44.1847 23.2383H59.6827C59.8498 23.2383 60.01 23.3047 60.1282 23.4228C60.2463 23.541 60.3127 23.7012 60.3127 23.8683C60.3127 24.0354 60.2463 24.1956 60.1282 24.3138C60.01 24.4319 59.8498 24.4983 59.6827 24.4983Z" fill="#FFBC0E"/>
<path d="M51.5061 29.6623H42.6105C42.4434 29.6623 42.2831 29.596 42.165 29.4778C42.0468 29.3597 41.9805 29.1994 41.9805 29.0323C41.9805 28.8653 42.0468 28.705 42.165 28.5869C42.2831 28.4687 42.4434 28.4023 42.6105 28.4023H51.5061C51.6732 28.4023 51.8334 28.4687 51.9515 28.5869C52.0697 28.705 52.1361 28.8653 52.1361 29.0323C52.1361 29.1994 52.0697 29.3597 51.9515 29.4778C51.8334 29.596 51.6732 29.6623 51.5061 29.6623Z" fill="#4460D9"/>
<path d="M55.0404 34.8225H44.9982C44.8311 34.8225 44.6708 34.7561 44.5527 34.638C44.4345 34.5198 44.3682 34.3596 44.3682 34.1925C44.3682 34.0254 44.4345 33.8652 44.5527 33.747C44.6708 33.6289 44.8311 33.5625 44.9982 33.5625H55.0404C55.2075 33.5625 55.3677 33.6289 55.4858 33.747C55.604 33.8652 55.6704 34.0254 55.6704 34.1925C55.6704 34.3596 55.604 34.5198 55.4858 34.638C55.3677 34.7561 55.2075 34.8225 55.0404 34.8225Z" fill="#F56132"/>
<path d="M60.1558 39.9709H44.6515C44.4844 39.9709 44.3242 39.9046 44.206 39.7864C44.0879 39.6683 44.0215 39.508 44.0215 39.3409C44.0215 39.1739 44.0879 39.0136 44.206 38.8955C44.3242 38.7773 44.4844 38.7109 44.6515 38.7109H60.1558C60.3229 38.7109 60.4831 38.7773 60.6013 38.8955C60.7194 39.0136 60.7858 39.1739 60.7858 39.3409C60.7858 39.508 60.7194 39.6683 60.6013 39.7864C60.4831 39.9046 60.3229 39.9709 60.1558 39.9709Z" fill="#4460D9"/>
<path d="M48.4185 45.1467H40.8585C40.6914 45.1467 40.5312 45.0803 40.413 44.9622C40.2949 44.844 40.2285 44.6838 40.2285 44.5167C40.2285 44.3496 40.2949 44.1894 40.413 44.0712C40.5312 43.9531 40.6914 43.8867 40.8585 43.8867H48.4185C48.5856 43.8867 48.7458 43.9531 48.864 44.0712C48.9821 44.1894 49.0485 44.3496 49.0485 44.5167C49.0485 44.6838 48.9821 44.844 48.864 44.9622C48.7458 45.0803 48.5856 45.1467 48.4185 45.1467Z" fill="#4460D9"/>
<path d="M60.1556 50.3147H43.6622C43.4951 50.3147 43.3349 50.2483 43.2167 50.1302C43.0986 50.012 43.0322 49.8518 43.0322 49.6847C43.0322 49.5176 43.0986 49.3574 43.2167 49.2392C43.3349 49.1211 43.4951 49.0547 43.6622 49.0547H60.1556C60.3227 49.0547 60.483 49.1211 60.6011 49.2392C60.7192 49.3574 60.7856 49.5176 60.7856 49.6847C60.7856 49.8518 60.7192 50.012 60.6011 50.1302C60.483 50.2483 60.3227 50.3147 60.1556 50.3147Z" fill="#70CC40"/>
<path d="M75.9625 50.3147H65.1202C64.9531 50.3147 64.7929 50.2483 64.6748 50.1302C64.5566 50.012 64.4902 49.8518 64.4902 49.6847C64.4902 49.5176 64.5566 49.3574 64.6748 49.2392C64.7929 49.1211 64.9531 49.0547 65.1202 49.0547H75.9499C76.117 49.0547 76.2773 49.1211 76.3954 49.2392C76.5136 49.3574 76.5799 49.5176 76.5799 49.6847C76.5799 49.8518 76.5136 50.012 76.3954 50.1302C76.2773 50.2483 76.117 50.3147 75.9499 50.3147H75.9625Z" fill="#FFBC0E"/>
<path d="M72.4471 24.4983H64.7989C64.6319 24.4983 64.4716 24.4319 64.3535 24.3138C64.2353 24.1956 64.1689 24.0354 64.1689 23.8683C64.1689 23.7012 64.2353 23.541 64.3535 23.4228C64.4716 23.3047 64.6319 23.2383 64.7989 23.2383H72.4471C72.6142 23.2383 72.7745 23.3047 72.8926 23.4228C73.0108 23.541 73.0771 23.7012 73.0771 23.8683C73.0771 24.0354 73.0108 24.1956 72.8926 24.3138C72.7745 24.4319 72.6142 24.4983 72.4471 24.4983Z" fill="#4460D9"/>
<path d="M83.3526 19.3381H68.6232C68.4561 19.3381 68.2958 19.2718 68.1777 19.1536C68.0595 19.0355 67.9932 18.8752 67.9932 18.7081C67.9932 18.541 68.0595 18.3808 68.1777 18.2626C68.2958 18.1445 68.4561 18.0781 68.6232 18.0781H83.3526C83.5197 18.0781 83.6799 18.1445 83.798 18.2626C83.9162 18.3808 83.9826 18.541 83.9826 18.7081C83.9826 18.8752 83.9162 19.0355 83.798 19.1536C83.6799 19.2718 83.5197 19.3381 83.3526 19.3381Z" fill="#68E1FD"/>
<path d="M80.9138 24.4983H76.6046C76.4375 24.4983 76.2773 24.4319 76.1591 24.3138C76.041 24.1956 75.9746 24.0354 75.9746 23.8683C75.9746 23.7012 76.041 23.541 76.1591 23.4228C76.2773 23.3047 76.4375 23.2383 76.6046 23.2383H80.9138C81.0809 23.2383 81.2411 23.3047 81.3593 23.4228C81.4774 23.541 81.5438 23.7012 81.5438 23.8683C81.5438 24.0354 81.4774 24.1956 81.3593 24.3138C81.2411 24.4319 81.0809 24.4983 80.9138 24.4983Z" fill="#F56132"/>
<path d="M62.3098 34.8225H58.007C57.8399 34.8225 57.6796 34.7561 57.5615 34.638C57.4433 34.5198 57.377 34.3596 57.377 34.1925C57.377 34.0254 57.4433 33.8652 57.5615 33.747C57.6796 33.6289 57.8399 33.5625 58.007 33.5625H62.3098C62.4769 33.5625 62.6372 33.6289 62.7553 33.747C62.8735 33.8652 62.9398 34.0254 62.9398 34.1925C62.9398 34.3596 62.8735 34.5198 62.7553 34.638C62.6372 34.7561 62.4769 34.8225 62.3098 34.8225Z" fill="#F56132"/>
<path d="M83.3521 34.8225H65.8507C65.6836 34.8225 65.5234 34.7561 65.4052 34.638C65.2871 34.5198 65.2207 34.3596 65.2207 34.1925C65.2207 34.0254 65.2871 33.8652 65.4052 33.747C65.5234 33.6289 65.6836 33.5625 65.8507 33.5625H83.3521C83.5192 33.5625 83.6794 33.6289 83.7976 33.747C83.9157 33.8652 83.9821 34.0254 83.9821 34.1925C83.9821 34.3596 83.9157 34.5198 83.7976 34.638C83.6794 34.7561 83.5192 34.8225 83.3521 34.8225Z" fill="#FFBC0E"/>
<path d="M68.623 39.9709H64.7989C64.6319 39.9709 64.4716 39.9046 64.3535 39.7864C64.2353 39.6683 64.1689 39.508 64.1689 39.3409C64.1689 39.1739 64.2353 39.0136 64.3535 38.8955C64.4716 38.7773 64.6319 38.7109 64.7989 38.7109H68.623C68.7901 38.7109 68.9504 38.7773 69.0685 38.8955C69.1867 39.0136 69.253 39.1739 69.253 39.3409C69.253 39.508 69.1867 39.6683 69.0685 39.7864C68.9504 39.9046 68.7901 39.9709 68.623 39.9709Z" fill="#68E1FD"/>
<path d="M83.3523 50.3147H80.9142C80.7471 50.3147 80.5868 50.2483 80.4687 50.1302C80.3506 50.012 80.2842 49.8518 80.2842 49.6847C80.2842 49.5176 80.3506 49.3574 80.4687 49.2392C80.5868 49.1211 80.7471 49.0547 80.9142 49.0547H83.3523C83.5194 49.0547 83.6796 49.1211 83.7978 49.2392C83.9159 49.3574 83.9823 49.5176 83.9823 49.6847C83.9823 49.8518 83.9159 50.012 83.7978 50.1302C83.6796 50.2483 83.5194 50.3147 83.3523 50.3147Z" fill="#4460D9"/>
<path d="M6.35317 6.01883C7.19866 6.01883 7.88407 5.33342 7.88407 4.48793C7.88407 3.64244 7.19866 2.95703 6.35317 2.95703C5.50768 2.95703 4.82227 3.64244 4.82227 4.48793C4.82227 5.33342 5.50768 6.01883 6.35317 6.01883Z" fill="#F56132"/>
<path d="M6.35319 6.65471C5.92429 6.65595 5.50467 6.52991 5.14744 6.29253C4.79022 6.05515 4.51147 5.71712 4.34647 5.32123C4.18147 4.92534 4.13766 4.48939 4.22056 4.06858C4.30347 3.64777 4.50938 3.26102 4.81222 2.9573C5.11505 2.65358 5.5012 2.44655 5.92177 2.36242C6.34233 2.27829 6.77841 2.32083 7.17478 2.48468C7.57115 2.64852 7.90999 2.92629 8.1484 3.28282C8.38682 3.63935 8.51408 4.0586 8.51408 4.4875C8.51409 5.06119 8.28662 5.61147 7.88156 6.01772C7.47649 6.42397 6.92687 6.65304 6.35319 6.65471ZM6.35319 3.5866C6.17323 3.58536 5.99697 3.63766 5.84682 3.73687C5.69667 3.83607 5.57941 3.97769 5.50997 4.14371C5.44053 4.30974 5.42204 4.49266 5.45684 4.66923C5.49164 4.84579 5.57817 5.00802 5.70542 5.13527C5.83268 5.26252 5.9949 5.34905 6.17146 5.38386C6.34803 5.41866 6.53096 5.40016 6.69698 5.33072C6.863 5.26128 7.00462 5.14402 7.10382 4.99387C7.20303 4.84372 7.25533 4.66746 7.25408 4.4875C7.25408 4.24857 7.15917 4.01942 6.99022 3.85047C6.82126 3.68152 6.59212 3.5866 6.35319 3.5866Z" fill="#0E42C8"/>
<path d="M12.5465 6.01883C13.392 6.01883 14.0774 5.33342 14.0774 4.48793C14.0774 3.64244 13.392 2.95703 12.5465 2.95703C11.701 2.95703 11.0156 3.64244 11.0156 4.48793C11.0156 5.33342 11.701 6.01883 12.5465 6.01883Z" fill="#FFBC0E"/>
<path d="M12.5466 6.65471C12.1183 6.65346 11.6999 6.5253 11.3443 6.28641C10.9888 6.04752 10.712 5.70861 10.5489 5.3125C10.3858 4.91639 10.3438 4.48084 10.4282 4.06086C10.5125 3.64088 10.7194 3.25531 11.0227 2.95285C11.3261 2.65039 11.7122 2.44461 12.1325 2.3615C12.5527 2.27838 12.9881 2.32167 13.3837 2.48588C13.7794 2.6501 14.1175 2.92787 14.3553 3.28413C14.5932 3.64039 14.7201 4.05914 14.7201 4.4875C14.7201 4.77264 14.6639 5.05497 14.5546 5.31831C14.4453 5.58166 14.2851 5.82085 14.0832 6.02218C13.8812 6.2235 13.6416 6.38301 13.3779 6.49155C13.1143 6.60009 12.8318 6.65553 12.5466 6.65471ZM12.5466 3.5866C12.3672 3.58785 12.1922 3.64228 12.0437 3.743C11.8952 3.84372 11.7799 3.98621 11.7124 4.15245C11.6449 4.31869 11.6282 4.50122 11.6644 4.67695C11.7007 4.85268 11.7882 5.01372 11.9159 5.13971C12.0437 5.2657 12.2059 5.35097 12.3822 5.38476C12.5584 5.41854 12.7406 5.39931 12.9059 5.3295C13.0712 5.25969 13.2121 5.14243 13.3107 4.99256C13.4094 4.84269 13.4614 4.66693 13.4601 4.4875C13.4593 4.36837 13.435 4.25056 13.3887 4.14081C13.3423 4.03106 13.2748 3.93151 13.19 3.84786C13.1052 3.7642 13.0047 3.69807 12.8943 3.65324C12.7839 3.60842 12.6658 3.58577 12.5466 3.5866Z" fill="#0E42C8"/>
<path d="M18.7399 6.01883C19.5854 6.01883 20.2708 5.33342 20.2708 4.48793C20.2708 3.64244 19.5854 2.95703 18.7399 2.95703C17.8944 2.95703 17.209 3.64244 17.209 4.48793C17.209 5.33342 17.8944 6.01883 18.7399 6.01883Z" fill="#70CC40"/>
<path d="M18.7389 6.65471C18.31 6.65595 17.8904 6.52991 17.5332 6.29253C17.176 6.05515 16.8972 5.71712 16.7322 5.32123C16.5672 4.92534 16.5234 4.48939 16.6063 4.06858C16.6892 3.64777 16.8951 3.26102 17.198 2.9573C17.5008 2.65358 17.8869 2.44655 18.3075 2.36242C18.7281 2.27829 19.1641 2.32083 19.5605 2.48468C19.9569 2.64852 20.2957 2.92629 20.5341 3.28282C20.7726 3.63935 20.8998 4.0586 20.8998 4.4875C20.8998 5.06119 20.6724 5.61147 20.2673 6.01772C19.8622 6.42397 19.3126 6.65304 18.7389 6.65471ZM18.7389 3.5866C18.559 3.58536 18.3827 3.63766 18.2326 3.73687C18.0824 3.83607 17.9652 3.97769 17.8957 4.14371C17.8263 4.30974 17.8078 4.49266 17.8426 4.66923C17.8774 4.84579 17.9639 5.00802 18.0912 5.13527C18.2184 5.26252 18.3806 5.34905 18.5572 5.38386C18.7338 5.41866 18.9167 5.40016 19.0827 5.33072C19.2487 5.26128 19.3904 5.14402 19.4896 4.99387C19.5888 4.84372 19.6411 4.66746 19.6398 4.4875C19.6382 4.24908 19.5427 4.02089 19.3741 3.85229C19.2055 3.6837 18.9774 3.58825 18.7389 3.5866Z" fill="#0E42C8"/>
</svg>
