<svg width="39" height="39" viewBox="0 0 39 39" fill="none" xmlns="http://www.w3.org/2000/svg">
<path d="M39 19.5C39 8.72747 30.2652 0 19.5 0C8.72747 0 0 8.72747 0 19.5C0 29.2305 7.12847 37.2986 16.4531 38.7599V25.1379H11.5013V19.5012H16.4531V15.2027C16.4531 10.3167 19.3598 7.61841 23.8156 7.61841C25.9496 7.61841 28.1836 7.99866 28.1836 7.99866V12.7969H25.7205C23.3025 12.7969 22.5469 14.302 22.5469 15.8437V19.5H27.9545L27.0855 25.1367H22.5469V38.7587C31.8642 37.2974 39 29.2293 39 19.4988V19.5Z" fill="white"/>
</svg>
