<svg width="38" height="37" viewBox="0 0 38 37" fill="none" xmlns="http://www.w3.org/2000/svg">
<path d="M19.0013 0.666656C16.5937 0.666656 14.2097 1.14086 11.9854 2.0622C9.76114 2.98353 7.74008 4.33396 6.03768 6.03637C2.59951 9.47453 0.667969 14.1377 0.667969 19C0.667969 27.1033 5.92964 33.9783 13.208 36.4167C14.1246 36.5633 14.418 35.995 14.418 35.5C14.418 35.0783 14.418 33.9233 14.418 32.4017C9.33963 33.5017 8.25797 29.945 8.25797 29.945C7.41463 27.8183 6.22297 27.25 6.22297 27.25C4.55464 26.1133 6.3513 26.15 6.3513 26.15C8.18463 26.2783 9.1563 28.0383 9.1563 28.0383C10.7513 30.825 13.4463 30 14.4913 29.56C14.6563 28.3683 15.133 27.5617 15.6463 27.1033C11.5763 26.645 7.30464 25.0683 7.30464 18.0833C7.30464 16.0483 8.0013 14.4167 9.19297 13.115C9.00963 12.6567 8.36797 10.75 9.3763 8.27499C9.3763 8.27499 10.9163 7.77999 14.418 10.145C15.8663 9.74166 17.443 9.53999 19.0013 9.53999C20.5596 9.53999 22.1363 9.74166 23.5846 10.145C27.0863 7.77999 28.6263 8.27499 28.6263 8.27499C29.6346 10.75 28.993 12.6567 28.8096 13.115C30.0013 14.4167 30.698 16.0483 30.698 18.0833C30.698 25.0867 26.408 26.6267 22.3196 27.085C22.9796 27.6533 23.5846 28.7717 23.5846 30.4767V35.5C23.5846 35.995 23.878 36.5817 24.813 36.4167C32.0913 33.96 37.3346 27.1033 37.3346 19C37.3346 16.5924 36.8604 14.2084 35.9391 11.9841C35.0178 9.75982 33.6673 7.73877 31.9649 6.03637C30.2625 4.33396 28.2415 2.98353 26.0172 2.0622C23.7929 1.14086 21.4089 0.666656 19.0013 0.666656Z" fill="white"/>
</svg>
