<svg width="36" height="36" viewBox="0 0 36 36" fill="none" xmlns="http://www.w3.org/2000/svg">
<path d="M35.1596 14.5726H33.75V14.5H18V21.5H27.8901C26.4473 25.5749 22.5701 28.5 18 28.5C12.2014 28.5 7.5 23.7986 7.5 18C7.5 12.2014 12.2014 7.5 18 7.5C20.6766 7.5 23.1117 8.50975 24.9659 10.1591L29.9158 5.20925C26.7903 2.29638 22.6095 0.5 18 0.5C8.33562 0.5 0.5 8.33562 0.5 18C0.5 27.6644 8.33562 35.5 18 35.5C27.6644 35.5 35.5 27.6644 35.5 18C35.5 16.8266 35.3792 15.6813 35.1596 14.5726Z" fill="white"/>
<path d="M2.51953 9.85462L8.26916 14.0712C9.82491 10.2195 13.5927 7.5 18.0018 7.5C20.6784 7.5 23.1135 8.50975 24.9677 10.1591L29.9175 5.20925C26.792 2.29638 22.6113 0.5 18.0018 0.5C11.28 0.5 5.45078 4.29487 2.51953 9.85462Z" fill="white"/>
<path d="M18.0013 35.5C22.5215 35.5 26.6287 33.7701 29.7341 30.957L24.3179 26.3737C22.5609 27.7046 20.3769 28.5 18.0013 28.5C13.4495 28.5 9.58462 25.5976 8.12862 21.5472L2.42188 25.9441C5.31813 31.6115 11.1999 35.5 18.0013 35.5Z" fill="white"/>
<path d="M35.1596 14.5726H33.75V14.5H18V21.5H27.8901C27.1971 23.4574 25.938 25.1452 24.314 26.3746C24.3149 26.3737 24.3157 26.3737 24.3166 26.3729L29.7329 30.9561C29.3496 31.3044 35.5 26.75 35.5 18C35.5 16.8266 35.3792 15.6813 35.1596 14.5726Z" fill="white"/>
</svg>
