<svg width="311" height="234" viewBox="0 0 311 234" fill="none" xmlns="http://www.w3.org/2000/svg">
<path d="M137.218 49.3407L4.59022 126.569C3.30218 127.319 2.23528 128.397 1.49777 129.693C0.760261 130.989 0.378395 132.458 0.390924 133.949C0.403452 135.441 0.809929 136.903 1.56911 138.186C2.32828 139.47 3.41314 140.529 4.71359 141.258L167.067 232.203C169.029 233.302 171.237 233.888 173.485 233.907C175.734 233.925 177.95 233.376 179.931 232.31L304.663 165.159C306.254 164.303 307.588 163.038 308.529 161.494C309.469 159.95 309.982 158.183 310.014 156.375C310.045 154.567 309.595 152.783 308.71 151.207C307.824 149.631 306.535 148.32 304.975 147.408L137.218 49.3407Z" fill="url(#paint0_linear_701_183)"/>
<path d="M63.7934 110.638C73.8642 110.638 82.0282 106.598 82.0282 101.614C82.0282 96.6305 73.8642 92.5904 63.7934 92.5904C53.7226 92.5904 45.5586 96.6305 45.5586 101.614C45.5586 106.598 53.7226 110.638 63.7934 110.638Z" fill="#6B44D9"/>
<path d="M82.02 77.5811V102.116C82.02 102.116 68.4488 114.689 45.5586 102.322V77.6222" fill="url(#paint1_linear_701_183)"/>
<path d="M48.2899 86.3495C48.2899 86.3495 45.2713 81.7224 42.4255 84.39C39.5796 87.0576 42.0718 96.3118 50.4202 97.201V100.939C50.4202 100.939 39.9333 99.5146 38.5104 90.0875C37.0874 80.6603 43.8484 79.203 47.2206 81.7965" fill="#6B44D9"/>
<path d="M151.503 110.234L135.768 117.817C135.176 118.102 134.671 118.543 134.31 119.093C133.949 119.643 133.744 120.281 133.718 120.939C133.692 121.597 133.845 122.249 134.161 122.827C134.478 123.404 134.945 123.884 135.514 124.215L172.814 145.992C173.62 146.463 174.576 146.604 175.483 146.386C176.39 146.168 177.179 145.608 177.683 144.823L186.731 130.711" fill="#6CFFED"/>
<path d="M167.707 182.416V189.316L188.977 202.489L214.499 186.879V181" fill="#6DE1FC"/>
<path d="M167.707 182.416V189.316L188.977 202.489L214.499 186.879V181" fill="#0F1021"/>
<path d="M214.499 181L192.826 168.024L167.707 182.416L189.38 195.598L214.499 181Z" fill="#6CFFED"/>
<path d="M193.927 185.66C193.366 184.982 192.888 184.238 192.505 183.445C192.414 182.918 193.697 180.407 193.936 180.481C194.797 180.913 195.603 181.447 196.337 182.07" fill="#6B44D9"/>
<path d="M194.158 181.543C194.208 181.741 193.451 185.52 193.928 185.66C194.938 185.754 195.954 185.754 196.963 185.66C197.154 184.295 197.269 182.921 197.308 181.543" fill="#56403D"/>
<path d="M197.737 176.719L193.937 177.781C193.937 177.871 193.312 181.296 193.789 181.807C194.396 182.239 195.027 182.635 195.681 182.992C195.676 184.189 195.745 185.385 195.886 186.574C196.112 186.616 196.343 186.616 196.569 186.574C196.725 185.331 196.939 182.803 196.939 182.803C196.939 182.803 198.049 182.416 198.115 182.07C198.181 181.724 197.737 176.719 197.737 176.719Z" fill="#6B44D9"/>
<path d="M205.476 203.502C205.476 203.502 203.831 201.402 203.699 200.735C203.567 200.068 205.188 196.94 205.492 197.03C206.565 197.57 207.57 198.236 208.486 199.014" fill="#6B44D9"/>
<path d="M205.766 198.348C205.823 198.595 204.877 203.288 205.478 203.502C206.739 203.619 208.008 203.619 209.269 203.502C209.467 203.502 209.697 198.348 209.697 198.348" fill="#56403D"/>
<path d="M210.239 192.37L205.493 193.696C205.493 193.811 204.712 198.084 205.304 198.718C205.896 199.352 207.705 200.085 207.664 200.2C207.659 201.691 207.744 203.182 207.919 204.663C208.191 204.712 208.47 204.712 208.742 204.663C208.931 203.106 209.202 199.953 209.202 199.953C209.202 199.953 210.592 199.467 210.666 199.039C210.741 198.611 210.239 192.37 210.239 192.37Z" fill="#6B44D9"/>
<path d="M237.119 73.7443L111.606 1.36504C110.743 0.866394 109.764 0.604586 108.768 0.606086C107.771 0.607585 106.793 0.872339 105.932 1.37358C105.071 1.87483 104.357 2.5948 103.863 3.46071C103.368 4.32663 103.111 5.3078 103.117 6.30504V81.5989C103.111 82.432 103.325 83.252 103.738 83.9752C104.151 84.6985 104.749 85.299 105.47 85.7155L239.258 163.018C239.719 163.286 240.243 163.427 240.777 163.428C241.311 163.428 241.835 163.288 242.297 163.02C242.759 162.753 243.143 162.369 243.409 161.906C243.676 161.443 243.815 160.918 243.814 160.384V85.3368C243.814 82.9861 243.195 80.6769 242.02 78.6418C240.844 76.6067 239.154 74.9175 237.119 73.7443Z" fill="url(#paint2_linear_701_183)"/>
<path d="M111.623 7.05432L233.353 77.1447C234.654 77.8938 235.735 78.9735 236.486 80.2746C237.237 81.5756 237.632 83.0521 237.63 84.5547V141.002C237.629 141.543 237.487 142.073 237.217 142.541C236.947 143.009 236.559 143.398 236.092 143.669C235.625 143.94 235.095 144.083 234.555 144.085C234.015 144.086 233.485 143.946 233.016 143.678L108.909 72.3776C108.445 72.1122 108.059 71.7288 107.79 71.2662C107.521 70.8035 107.38 70.278 107.379 69.7429V9.53256C107.384 9.03705 107.518 8.55139 107.767 8.12303C108.016 7.69466 108.371 7.33823 108.799 7.08854C109.226 6.83886 109.711 6.70445 110.206 6.69845C110.701 6.69245 111.189 6.81507 111.623 7.05432Z" fill="#0F1021"/>
<path d="M104.219 90.565C106.456 90.1945 132.373 106.431 132.373 106.431V112.779L121.746 118.748L92.8516 102.882V95.4227L104.219 90.565Z" fill="#6DE1FC"/>
<path d="M104.219 90.565C106.456 90.1945 132.373 106.431 132.373 106.431V112.779L121.746 118.748L92.8516 102.882V95.4227L104.219 90.565Z" fill="#0F1021"/>
<path d="M86.7017 106.324L53.8017 125.112C53.4583 125.31 53.173 125.595 52.9747 125.938C52.7763 126.281 52.6719 126.671 52.6719 127.067C52.6719 127.464 52.7763 127.854 52.9747 128.197C53.173 128.54 53.4583 128.825 53.8017 129.023L145.025 181.543C146.132 182.182 147.387 182.518 148.665 182.518C149.942 182.518 151.197 182.182 152.304 181.543L183.025 163.784C183.391 163.58 183.697 163.282 183.91 162.92C184.122 162.558 184.234 162.146 184.234 161.726C184.234 161.306 184.122 160.894 183.91 160.532C183.697 160.17 183.391 159.871 183.025 159.667L90.7402 106.307C90.1224 105.962 89.4262 105.782 88.7188 105.785C88.0113 105.788 87.3166 105.973 86.7017 106.324Z" fill="#0F1021"/>
<path d="M107.773 167.802C107.701 167.368 107.526 166.959 107.26 166.609C106.995 166.259 106.649 165.979 106.251 165.793L101.382 162.977L93.856 158.614L84.866 153.402L75.3004 147.853L66.0472 142.493L58.0032 137.833L52.0565 134.383L48.931 132.571C48.931 132.637 48.8241 132.637 48.7583 132.621C48.3824 132.522 47.9874 132.524 47.6123 132.625C47.2373 132.727 46.8952 132.925 46.6201 133.199C46.3449 133.474 46.1463 133.816 46.0438 134.191C45.9413 134.566 45.9386 134.961 46.0358 135.338C46.5348 136.767 47.4772 137.999 48.7254 138.854C52.3654 141.469 56.1645 143.856 60.1006 146V144.592C57.4521 143.143 51.744 139.866 49.3423 137.396L50.4855 138.063L53.6357 139.907L58.3733 142.682L64.2871 146.14L70.9658 150.043L77.9899 154.159L84.9483 158.235L91.4296 162.022L97.0144 165.315L101.291 167.785C102.599 168.551 104.014 169.589 105.535 169.885C105.821 169.905 106.108 169.867 106.379 169.771C106.649 169.676 106.897 169.526 107.106 169.33C107.316 169.135 107.484 168.898 107.598 168.635C107.713 168.372 107.772 168.089 107.773 167.802Z" fill="#6DE1FC"/>
<path d="M162.82 113.525C164.256 113.248 165.164 111.691 164.848 110.048C164.532 108.405 163.111 107.297 161.675 107.574C160.239 107.851 159.33 109.408 159.647 111.051C159.963 112.694 161.383 113.802 162.82 113.525Z" fill="white"/>
<path d="M162.725 46.8296L198.199 67.4129C198.563 67.6237 198.862 67.9298 199.065 68.2983C199.268 68.6668 199.367 69.0837 199.351 69.5042L198.125 101.375C198.11 101.774 197.993 102.161 197.784 102.501C197.576 102.84 197.283 103.12 196.935 103.313C196.586 103.506 196.194 103.606 195.796 103.602C195.398 103.599 195.008 103.493 194.663 103.294L160.414 83.5914C160.061 83.3884 159.768 83.0957 159.564 82.743C159.36 82.3902 159.253 81.9899 159.254 81.5825V48.8385C159.253 48.4313 159.359 48.031 159.561 47.678C159.764 47.3249 160.056 47.0317 160.408 46.8279C160.76 46.6241 161.16 46.5169 161.567 46.5172C161.974 46.5175 162.373 46.6252 162.725 46.8296Z" fill="#6B44D9"/>
<path d="M175.432 52.42C175.434 52.3954 175.434 52.3706 175.432 52.3459L175.3 51.2344C173.927 51.1685 173.145 51.4979 171.772 51.5061C171.093 52.2029 170.642 53.0904 170.48 54.0502C170.48 54.7336 170.563 55.6969 171.402 55.5981C171.533 56.232 171.903 57.0636 172.652 56.8907L172.751 56.8495C172.8 57.2694 172.932 57.6729 173.335 57.7964C173.738 57.9199 173.993 57.6976 174.157 57.3271C174.305 57.8869 174.568 58.7432 175.136 58.735C175.909 58.735 175.958 57.5905 175.761 56.4543C175.744 55.1036 175.634 53.7556 175.432 52.42Z" fill="white"/>
<path d="M171.599 53.6796C171.381 54.2946 171.286 54.9464 171.319 55.598C171.319 55.8038 171.64 55.8038 171.631 55.598C171.601 54.9741 171.693 54.3502 171.903 53.762C171.969 53.5726 171.664 53.4903 171.599 53.6796Z" fill="#56403D"/>
<path d="M172.749 54.3054L172.617 56.9483C172.617 57.1542 172.922 57.1542 172.93 56.9483L173.061 54.3054C173.061 54.1078 172.765 54.1078 172.749 54.3054Z" fill="#56403D"/>
<path d="M173.887 53.9267V57.4259C173.887 57.4674 173.903 57.5071 173.932 57.5365C173.962 57.5658 174.002 57.5823 174.043 57.5823C174.084 57.5823 174.124 57.5658 174.154 57.5365C174.183 57.5071 174.199 57.4674 174.199 57.4259V53.9267C174.199 53.8852 174.183 53.8454 174.154 53.8161C174.124 53.7867 174.084 53.7703 174.043 53.7703C174.002 53.7703 173.962 53.7867 173.932 53.8161C173.903 53.8454 173.887 53.8852 173.887 53.9267Z" fill="#56403D"/>
<path d="M175.285 51.2344C176.307 52.3087 176.92 53.7067 177.021 55.1864L175.532 54.2478L175.285 51.2344Z" fill="white"/>
<path d="M189.119 58.6937C189.119 58.6937 188.017 58.8913 187.992 58.8749C187.038 59.4759 184.612 60.7191 183.6 61.2049C183 61.4931 181.511 62.1188 181.84 63.0245C182.013 63.5102 182.498 63.5926 183.123 63.4526C183.078 63.5816 183.08 63.7223 183.128 63.8501C183.176 63.978 183.268 64.0849 183.386 64.1524C183.581 64.2428 183.796 64.2784 184.009 64.2551C184.222 64.2319 184.425 64.1509 184.595 64.0207C184.627 64.1737 184.711 64.3106 184.834 64.4077C185.352 64.8523 186.339 64.3583 186.906 64.0948C186.897 64.1988 186.897 64.3036 186.906 64.4077C186.906 64.737 187.235 65.0581 187.54 64.8934C188.996 64.1195 191.282 61.2955 191.948 59.9534C190.567 59.4265 190.476 59.2701 189.119 58.6937Z" fill="white"/>
<path d="M188.131 62.6705C187.75 63.2036 187.295 63.6803 186.782 64.0866C186.634 64.2019 186.839 64.3995 186.987 64.2925C187.52 63.8695 187.991 63.3734 188.386 62.8187C188.484 62.6705 188.237 62.5223 188.131 62.6705Z" fill="#56403D"/>
<path d="M187.268 61.9377C186.429 62.6074 185.574 63.2551 184.702 63.8808C184.554 63.9878 184.702 64.2348 184.85 64.1278C185.766 63.4856 186.64 62.8297 187.474 62.16C187.614 62.0283 187.408 61.8225 187.268 61.9377Z" fill="#56403D"/>
<path d="M185.91 61.5754C185.013 62.2089 184.061 62.76 183.065 63.2221C182.9 63.3044 183.065 63.5514 183.213 63.4691C184.209 63.007 185.161 62.4559 186.059 61.8224C186.223 61.7154 186.059 61.4684 185.91 61.5754Z" fill="#56403D"/>
<path d="M187.992 58.8666C187.992 58.8666 186.602 57.8457 184.258 59.41L186.224 60.6368" fill="white"/>
<path d="M218.663 113.281C218.646 113.223 218.617 113.17 218.578 113.124C218.539 113.078 218.491 113.041 218.437 113.015C218.383 112.988 218.324 112.974 218.264 112.971C218.204 112.969 218.144 112.979 218.088 113.001C218.111 112.727 218.111 112.451 218.088 112.177C218.088 111.791 218.014 111.239 217.594 111.074C217.472 111.029 217.339 111.025 217.214 111.062C217.09 111.099 216.981 111.176 216.903 111.28C216.856 111.028 216.787 110.78 216.698 110.539C216.67 110.449 216.614 110.37 216.539 110.314C216.463 110.258 216.372 110.227 216.278 110.226C215.809 110.226 215.571 110.605 215.456 111.05C215.456 111.008 215.283 110.852 215.242 110.827C215.165 110.772 215.073 110.74 214.979 110.737C214.802 110.726 214.627 110.779 214.485 110.885C214.349 111.018 214.267 111.197 214.255 111.387C214.217 111.702 214.217 112.019 214.255 112.334C214.255 112.721 214.337 113.1 214.362 113.487C214.386 113.874 214.362 114.03 214.362 114.31C214 113.61 213.49 112.737 212.898 113.149C212.305 113.561 212.824 114.121 212.988 114.508C213.327 115.275 213.729 116.013 214.189 116.714C214.127 117.06 214.041 117.401 213.934 117.735C215.035 118.185 216.099 118.719 217.117 119.332C217.444 118.239 217.836 117.167 218.293 116.121C218.788 115.261 218.921 114.239 218.663 113.281Z" fill="white"/>
<path d="M215.372 111.041C215.339 112.106 215.281 113.168 215.199 114.228C215.199 114.318 215.339 114.318 215.339 114.228C215.421 113.168 215.479 112.106 215.512 111.041C215.52 110.943 215.372 110.943 215.372 111.041Z" fill="#56403D"/>
<path d="M216.802 111.313C216.709 112.274 216.594 113.229 216.457 114.178C216.457 114.269 216.58 114.31 216.597 114.178C216.739 113.212 216.857 112.243 216.951 111.272C216.951 111.222 216.811 111.222 216.802 111.313Z" fill="#56403D"/>
<path d="M218.055 113.091C217.983 113.761 217.879 114.425 217.742 115.084C217.742 115.174 217.866 115.216 217.882 115.084C218.019 114.414 218.123 113.739 218.195 113.058C218.203 113.001 218.063 113.001 218.055 113.091Z" fill="#56403D"/>
<path d="M185.539 113.116C185.44 112.894 185.342 112.672 185.251 112.441C185.2 112.322 185.18 112.191 185.194 112.062C185.265 111.714 185.315 111.362 185.342 111.008C185.32 109.879 185.095 108.763 184.675 107.715C184.624 107.548 184.534 107.395 184.413 107.269C184.293 107.143 184.144 107.046 183.98 106.987C183.816 106.928 183.64 106.908 183.467 106.929C183.293 106.949 183.127 107.01 182.981 107.106L182.677 106.554C182.109 105.55 181.501 103.821 180.209 103.689C180.11 103.687 180.011 103.71 179.922 103.754C179.833 103.799 179.756 103.865 179.698 103.946C179.64 104.026 179.602 104.12 179.588 104.219C179.574 104.318 179.584 104.418 179.617 104.512C179.864 105.163 180.119 105.805 180.382 106.439C180.327 106.38 180.26 106.333 180.186 106.301C180.111 106.268 180.031 106.252 179.95 106.252C179.869 106.252 179.789 106.268 179.715 106.301C179.641 106.333 179.574 106.38 179.518 106.439C179.367 106.593 179.266 106.79 179.229 107.004C179.192 107.217 179.221 107.436 179.313 107.633H179.157C179.019 107.562 178.867 107.523 178.712 107.517C178.589 107.525 178.468 107.559 178.359 107.617C178.25 107.676 178.154 107.757 178.079 107.855C177.993 107.972 177.937 108.108 177.914 108.251C177.891 108.394 177.903 108.54 177.947 108.678H177.841C177.717 108.724 177.606 108.799 177.517 108.896C177.429 108.993 177.365 109.111 177.331 109.238C177.286 109.411 177.286 109.592 177.331 109.765C177.265 110.407 180.621 113.552 180.621 113.552L182.611 115.734L185.95 114.145C186 114.03 185.58 113.207 185.539 113.116Z" fill="white"/>
<path d="M208.182 143.431C202.252 133.288 196.667 143.201 196.667 143.201C194.366 146.35 192.576 149.842 191.362 153.55C189.997 158.21 190.005 173.31 190.679 177.805C193.147 178.76 198.666 178.472 201.24 177.74V159.626C201.25 159.576 201.277 159.53 201.317 159.497C201.357 159.464 201.407 159.447 201.458 159.447C201.51 159.447 201.56 159.464 201.599 159.497C201.639 159.53 201.666 159.576 201.676 159.626L201.799 195.598C206.13 195.758 210.448 195.047 214.499 193.506C214.499 193.506 213.759 152.974 208.182 143.431Z" fill="#0F1021"/>
<path d="M185.58 112.103C183.795 112.54 182.578 113.478 181.031 114.466C181.599 116.459 187.817 132.02 195.639 135.313L196.264 124.239C196.264 124.239 192.801 123.91 185.58 112.103Z" fill="#0F1021"/>
<path d="M212.945 116.936C212.701 118.863 212.03 120.711 210.981 122.345C209.933 123.979 208.532 125.357 206.883 126.38L207.944 136.548C212.69 133.494 217.69 122.14 218.422 119.176C217.702 118.46 216.847 117.893 215.907 117.509C214.967 117.125 213.96 116.93 212.945 116.936Z" fill="#0F1021"/>
<path d="M194.75 135.939L195.795 145.053C195.795 145.053 203.296 147.894 208.848 145.053V135.815" fill="#0F1021"/>
<path d="M212.377 133.321C212.226 132.807 211.974 132.328 211.637 131.913C211.112 131.303 210.54 130.736 209.926 130.217C209.775 130.097 209.657 129.941 209.581 129.764C209.326 128.99 210.23 127.804 210.107 126.858C209.918 125.458 209.029 124.989 208.158 124.066C207.685 123.594 207.377 122.982 207.278 122.321C206.777 121.313 206.391 120.253 206.126 119.159C205.493 117.373 204.481 115.397 202.565 114.746C201.505 114.406 200.37 114.373 199.292 114.65C198.214 114.926 197.236 115.502 196.47 116.311C195.154 117.817 195.409 119.867 195.261 121.753C195.346 121.924 195.404 122.107 195.434 122.296C195.689 124.124 193.287 124.206 193.065 125.655C193.035 125.93 193.049 126.208 193.106 126.479C193.293 127.518 193.74 128.492 194.405 129.311C196.05 131.534 192.226 132.678 192.242 134.737C192.289 135.479 192.53 136.195 192.941 136.814C193.353 137.433 193.92 137.932 194.586 138.261C197.832 139.874 201.54 140.297 205.065 139.455C207.697 138.853 213.282 136.663 212.377 133.321ZM197.737 129.929C197.737 129.887 197.737 129.838 197.737 129.797H197.885L197.737 129.929Z" fill="black"/>
<path d="M201.243 159.61L192.902 157.749L200.831 163.94L201.243 159.61Z" fill="#56403D"/>
<path d="M181.551 108.423C180.897 107.132 180.347 105.792 179.906 104.413C179.84 104.199 179.495 104.29 179.569 104.504C180.007 105.918 180.557 107.294 181.214 108.621C181.346 108.802 181.65 108.621 181.551 108.423Z" fill="#56403D"/>
<path d="M180.244 109.246C179.919 108.691 179.628 108.116 179.372 107.526C179.281 107.32 178.977 107.526 179.067 107.707C179.323 108.297 179.614 108.872 179.939 109.428C179.963 109.468 180.002 109.497 180.048 109.509C180.093 109.52 180.142 109.513 180.182 109.489C180.222 109.465 180.251 109.426 180.263 109.381C180.275 109.335 180.268 109.287 180.244 109.246Z" fill="#56403D"/>
<path d="M178.975 110.16C178.613 109.69 178.334 109.161 178.152 108.596C178.086 108.382 177.741 108.473 177.815 108.687C177.993 109.278 178.272 109.835 178.638 110.333C178.818 110.523 179.115 110.341 178.975 110.16Z" fill="#56403D"/>
<path d="M184.208 109.131C183.868 108.44 183.555 107.734 183.27 107.015C183.188 106.809 182.842 106.9 182.933 107.106C183.229 107.852 183.553 108.585 183.903 109.304C184.002 109.518 184.307 109.337 184.208 109.131Z" fill="#56403D"/>
<path d="M105.945 45.611C105.996 45.5268 106.022 45.4296 106.019 45.3311C106.023 44.8443 105.926 44.3618 105.735 43.9141C105.544 43.4664 105.263 43.063 104.908 42.7294C104.77 42.6039 104.605 42.512 104.425 42.4607C104.246 42.4093 104.057 42.4 103.873 42.4335C103.69 42.4669 103.516 42.5422 103.366 42.6534C103.216 42.7647 103.094 42.909 103.009 43.0752C102.235 44.6642 104.004 46.2533 105.418 46.4426C105.813 46.492 105.97 46.1627 105.904 45.8498C105.935 45.7743 105.949 45.6927 105.945 45.611Z" fill="#FBB5AD"/>
<path d="M104.541 73.0774L101.695 71.4883L104.064 77.9762L104.541 73.0774Z" fill="#6B44D9"/>
<path d="M136.291 136.26L126.914 141.818L133.872 145.86C135.838 144.716 141.464 141.389 143.274 140.319L136.291 136.26Z" fill="white"/>
<path d="M126.017 130.299L116.641 135.857L125.45 140.978C126.988 140.089 132.671 136.729 134.859 135.437L126.017 130.299Z" fill="white"/>
<path d="M88.7081 108.612L79.1836 114.088L87.6553 119.028C88.996 118.254 94.7453 114.853 97.0647 113.487L88.7081 108.612Z" fill="white"/>
<path d="M108.771 120.271L99.3945 125.828L106.353 129.871C107.998 128.916 113.648 125.573 115.762 124.33L108.771 120.271Z" fill="white"/>
<path d="M98.4976 114.302L89.1211 119.859L97.9301 124.98C98.9664 124.388 104.864 120.864 107.339 119.439L98.4976 114.302Z" fill="white"/>
<path d="M144.705 141.2L135.328 146.758L141.982 150.627C143.981 149.458 149.615 146.132 151.383 145.086L144.705 141.2Z" fill="white"/>
<path d="M117.185 125.161L107.809 130.719L115.211 135C116.947 133.996 122.614 130.661 124.62 129.459L117.185 125.161Z" fill="white"/>
<path d="M152.821 145.877L143.453 151.442L152.262 156.563C154.105 155.493 159.73 152.167 161.663 151.022L152.821 145.877Z" fill="white"/>
<path d="M163.095 151.854L153.727 157.411L169.535 166.6L179.051 161.125L163.095 151.854Z" fill="white"/>
<path d="M77.9738 115.677L68.4492 121.152L80.7867 128.307C82.4317 127.368 88.0576 124.025 90.1961 122.766L77.9738 115.677Z" fill="white"/>
<path d="M101.87 129.599L92.4609 135.157L99.4193 139.199C101.278 138.113 106.904 134.794 108.82 133.658L101.87 129.599Z" fill="white"/>
<path d="M119.115 139.627L109.73 145.185L118.539 150.306C120.308 149.277 125.942 145.951 127.949 144.765L119.115 139.627Z" fill="white"/>
<path d="M110.291 134.49L100.914 140.047L108.317 144.329C110.249 143.201 115.875 139.874 117.718 138.788L110.291 134.49Z" fill="white"/>
<path d="M129.388 145.597L120.012 151.154L127.003 155.197C129.15 153.937 134.817 150.594 136.404 149.656L129.388 145.597Z" fill="white"/>
<path d="M137.81 150.487L128.434 156.02L135.088 159.89C137.275 158.614 142.951 155.263 144.489 154.349L137.81 150.487Z" fill="white"/>
<path d="M91.6382 123.63L82.2617 129.188L91.0707 134.309C92.4689 133.485 98.1935 130.118 100.48 128.768L91.6382 123.63Z" fill="white"/>
<path d="M145.923 155.197L136.547 160.754L145.364 165.9C147.404 164.714 153.03 161.38 154.765 160.359L145.923 155.197Z" fill="white"/>
<path d="M146.828 166.74L158.795 173.697L168.32 168.222L156.196 161.182L146.828 166.74Z" fill="white"/>
<path d="M139.819 165.785L132.844 169.934L140.929 174.619L148.011 170.552L139.819 165.785Z" fill="white"/>
<path d="M142.598 175.591L149.474 179.576L156.564 175.525L149.564 171.449L142.598 175.591Z" fill="white"/>
<path d="M66.2214 123.004L58.9258 127.063L67.2084 131.863L74.3723 127.747L66.2214 123.004Z" fill="white"/>
<path d="M75.9195 128.644L68.8789 132.827L77.7208 137.956L84.8765 133.848L75.9195 128.644Z" fill="white"/>
<path d="M86.4308 134.753L79.3984 138.928L131.158 168.955L138.257 164.879L86.4308 134.753Z" fill="white"/>
<path d="M121.454 47.9414C126.303 47.8042 130.053 41.2446 129.828 33.2903C129.603 25.336 125.49 18.999 120.64 19.1363C115.791 19.2736 112.042 25.8331 112.266 33.7875C112.491 41.7418 116.605 48.0787 121.454 47.9414Z" fill="#E2E2E2"/>
<path d="M127.936 31.8862C128.591 24.5925 125.19 18.3256 120.339 17.8885C115.487 17.4514 111.023 23.0098 110.367 30.3034C109.711 37.597 113.113 43.864 117.964 44.301C122.815 44.7381 127.28 39.1798 127.936 31.8862Z" fill="#6B44D9"/>
<path d="M122.46 29.9451C122.657 27.8308 121.27 25.9722 119.361 25.794C117.452 25.6157 115.745 27.1853 115.548 29.2996C115.351 31.4139 116.739 33.2724 118.647 33.4507C120.556 33.6289 122.263 32.0594 122.46 29.9451Z" fill="white"/>
<path d="M111.465 38.0611C111.465 38.0611 113.521 33.508 117.173 34.0844C120.825 34.6607 123.144 36.5544 124.65 41.7002C123.77 42.9867 122.5 43.9552 121.027 44.4624C119.555 44.9696 117.958 44.9884 116.474 44.516C115.176 43.9311 114.041 43.037 113.168 41.9118C112.295 40.7866 111.71 39.4646 111.465 38.0611Z" fill="white"/>
<path d="M130.466 35.1629C130.447 35.1108 130.423 35.0611 130.392 35.0147C130.503 34.9093 130.59 34.7811 130.647 34.639C130.704 34.4969 130.729 34.3442 130.721 34.1913C130.71 34.0892 130.678 33.9904 130.627 33.9012C130.576 33.8119 130.507 33.7341 130.425 33.6726C130.502 33.5858 130.55 33.4768 130.561 33.3613C130.573 33.2458 130.548 33.1296 130.489 33.0292C130.431 32.9289 130.342 32.8495 130.236 32.8024C130.13 32.7553 130.012 32.7429 129.899 32.767C129.076 32.9234 128.566 33.9773 128.139 34.603C127.818 35.0641 127.522 35.5416 127.242 36.0191C127.193 35.3275 127.094 34.6277 127.045 33.9773C126.995 33.3268 125.984 33.2857 125.984 33.9773C126.041 35.0196 125.933 36.0645 125.663 37.073C125.558 37.1247 125.464 37.1943 125.383 37.2788C122.399 40.4121 118.66 42.7254 114.526 43.9972C114.32 44.0666 114.141 44.2021 114.019 44.3828C113.897 44.5634 113.837 44.7793 113.849 44.9972C113.861 45.2151 113.945 45.423 114.086 45.5889C114.228 45.7548 114.42 45.8696 114.633 45.9156C114.647 46.1161 114.723 46.3074 114.849 46.4636C114.976 46.6197 115.147 46.7331 115.341 46.7883C115.371 46.942 115.434 47.0875 115.525 47.2152C115.615 47.3429 115.732 47.4499 115.867 47.5293L115.168 47.834C114.033 48.3115 114.535 50.1887 115.686 49.7112C120.022 47.8978 123.828 45.0142 126.749 41.3296C127.086 41.0085 127.415 40.6874 127.744 40.3499C128.254 39.8312 130.721 37.3529 130.113 36.2908C130.294 35.9203 130.647 35.6404 130.466 35.1629Z" fill="white"/>
<path d="M113.356 23.6198C112.196 24.0808 111.299 26.5838 111.398 27.1107L112.311 26.6496L112.476 26.4685C112.638 25.4833 112.934 24.5249 113.356 23.6198Z" fill="#FBB5AD"/>
<path d="M113.515 25.6534C113.452 25.609 113.383 25.5756 113.309 25.5546L113.235 25.4887C112.783 25.1347 112.084 25.5958 111.673 25.8181C111.146 26.0958 110.65 26.4268 110.192 26.8061C109.983 27.0915 109.835 27.4164 109.756 27.7611C109.583 28.1728 109.411 28.5845 109.213 28.9879C108.812 29.8386 108.359 30.6635 107.856 31.4579C106.874 32.9964 105.714 34.414 104.402 35.6816C103.793 36.2744 104.722 37.1965 105.331 36.6037L105.767 36.1674C105.858 36.2279 105.966 36.2602 106.075 36.2602C106.185 36.2602 106.292 36.2279 106.384 36.1674C106.492 36.0932 106.593 36.0107 106.688 35.9204L106.828 35.8051C106.867 35.9057 106.93 35.995 107.012 36.0651C107.093 36.1352 107.191 36.1838 107.296 36.2067C107.402 36.2296 107.511 36.2259 107.614 36.196C107.718 36.1662 107.812 36.1111 107.889 36.0356L108.333 35.5663C108.475 35.5135 108.59 35.4071 108.654 35.2699C108.654 35.2699 108.72 36.1674 108.736 36.1427C109.452 35.3852 110.299 33.2857 111.015 32.026C111.01 31.9681 111.024 31.9102 111.056 31.8613C111.486 31.1134 111.678 30.2516 111.607 29.3913C111.605 28.8005 111.657 28.2107 111.763 27.6294L112.931 26.7237C113.211 26.5097 113.515 26.1886 113.457 25.9004C113.492 25.8225 113.511 25.7386 113.515 25.6534Z" fill="white"/>
<path d="M117.864 42.153C113.71 43.3715 112.995 42.9104 111.029 42.8446C109.063 42.7787 106.974 40.0205 106.974 40.0205C106.974 40.0205 106.48 33.8538 102.804 38.6785C100.065 42.2847 99.0122 52.7246 98.6914 57.7798C100.141 58.7765 101.825 59.378 103.577 59.5253C104.705 59.7144 105.847 59.8108 106.99 59.8135C107.694 59.8084 108.388 59.657 109.03 59.3689L110.98 50.3122C114.113 50.4822 117.213 49.5919 119.78 47.7846L117.864 42.153Z" fill="url(#paint3_linear_701_183)"/>
<path d="M108.906 34.7347C108.906 34.7347 111.579 39.8723 108.906 41.3214C106.233 42.7705 104.193 40.3746 103.971 39.7571C103.837 39.076 103.871 38.3724 104.07 37.7075C104.269 37.0425 104.627 36.4363 105.114 35.9414C105.6 35.4465 106.2 35.0779 106.861 34.8676C107.521 34.6573 108.224 34.6117 108.906 34.7347Z" fill="white"/>
<path d="M109.137 33.9691C108.462 33.5397 107.703 33.2614 106.911 33.1534C106.119 33.0454 105.312 33.1102 104.548 33.3434C103.201 33.59 101.961 34.242 100.994 35.2123C100.653 34.9814 100.255 34.8477 99.8429 34.8254C99.344 34.788 98.8461 34.9096 98.4206 35.1729C97.9951 35.4362 97.6637 35.8275 97.4741 36.2909C97.319 36.7269 97.3159 37.2026 97.4652 37.6406C97.6146 38.0786 97.9076 38.4531 98.2966 38.7033C98.8997 39.0196 99.6033 39.0847 100.254 38.8844V39.0079C100.345 39.9794 99.4316 40.4652 99.0697 41.2885C98.8948 41.6636 98.8457 42.0853 98.9299 42.4906C99.0204 42.894 99.4398 43.3139 99.4316 43.7421C99.3579 44.0472 99.2111 44.3298 99.0039 44.5654C98.8156 44.8453 98.661 45.1466 98.5433 45.4628C100.55 46.3919 102.815 46.6041 104.959 46.0639C107.254 45.6616 109.358 44.5265 110.955 42.8282C110.862 42.6173 110.724 42.4292 110.552 42.2765C110.194 42.0354 109.81 41.8338 109.409 41.6755C108.841 41.3462 109.409 40.3499 109.409 39.8148C109.409 38.8926 108.701 38.5057 107.936 38.1681C107.385 37.9376 107.361 37.6 107.352 37.0401C107.303 36.5949 107.395 36.1454 107.615 35.7557C107.781 35.7797 107.95 35.7447 108.093 35.6569C108.379 35.4843 108.685 35.3487 109.006 35.2535C109.166 35.1957 109.298 35.0769 109.372 34.9229C109.445 34.7688 109.456 34.5918 109.4 34.4302C109.4 34.337 109.376 34.2455 109.33 34.1647C109.284 34.0838 109.217 34.0164 109.137 33.9691Z" fill="black"/>
<path d="M107.114 36.0191C107.971 35.8314 108.8 35.5353 109.582 35.1381C109.582 35.0558 109.837 31.8448 104.17 32.9645C98.5029 34.0843 101.192 40.8603 101.192 40.8603" fill="black"/>
<path d="M160.848 43.2891L200.509 66.6553C200.916 66.8982 201.25 67.2468 201.476 67.6642C201.702 68.0815 201.811 68.5523 201.792 69.0265L200.418 105.179C200.407 105.627 200.279 106.065 200.048 106.449C199.817 106.833 199.49 107.15 199.099 107.369C198.708 107.589 198.267 107.702 197.819 107.699C197.371 107.697 196.932 107.577 196.544 107.353L158.257 85.0074C157.86 84.7742 157.531 84.4409 157.303 84.0407C157.075 83.6405 156.956 83.1875 156.957 82.7268V45.5615C156.952 45.1035 157.068 44.6522 157.294 44.2537C157.52 43.8551 157.847 43.5236 158.242 43.2927C158.637 43.0618 159.087 42.9398 159.544 42.9392C160.002 42.9386 160.452 43.0593 160.848 43.2891V43.2891Z" stroke="#56403D" stroke-miterlimit="10" stroke-linecap="round" stroke-dasharray="3.04 5.06"/>
<path d="M185.303 33.1046C183.716 32.3719 179.949 29.8854 175.195 32.1743C170.441 34.4631 165.933 38.6951 170.844 51.1603C172.429 51.7693 174.181 51.7869 175.779 51.2097C175.779 51.2097 174.767 40.3006 176.297 39.0326L192.27 47.9164C192.447 49.9931 192.014 52.0764 191.025 53.9105C190.036 55.7446 188.533 57.2497 186.702 58.241L191.102 62.2836C194.704 62.2259 202.617 50.7569 200.149 42.6059C197.682 34.4549 184.209 32.6847 184.209 32.6847" fill="#6DE1FC"/>
<path d="M185.303 33.1046C183.716 32.3719 179.949 29.8854 175.195 32.1743C170.441 34.4631 165.933 38.6951 170.844 51.1603C172.429 51.7693 174.181 51.7869 175.779 51.2097C175.779 51.2097 174.767 40.3006 176.297 39.0326L192.27 47.9164C192.447 49.9931 192.014 52.0764 191.025 53.9105C190.036 55.7446 188.533 57.2497 186.702 58.241L191.102 62.2836C194.704 62.2259 202.617 50.7569 200.149 42.6059C197.682 34.4549 184.209 32.6847 184.209 32.6847" fill="url(#paint4_linear_701_183)"/>
<path d="M190.393 32.4294C189.308 33.6315 187.227 33.0881 185.853 32.7752C184.208 32.3965 182.275 31.3838 182.423 29.3995C182.423 29.1031 181.979 29.1031 181.954 29.3995C181.798 31.4661 183.682 32.6929 185.466 33.1622C187.054 33.5574 189.456 34.1584 190.722 32.7587C190.92 32.52 190.591 32.2071 190.393 32.4294Z" fill="#009245"/>
<path d="M181.508 28.1482C181.508 28.1482 181.508 38.2669 185.217 38.9256C189.33 39.6501 191.583 35.0148 191.583 35.0148C191.583 35.0148 192.11 26.0734 188.055 25.2912C184 24.509 181.631 26.8555 181.508 28.1482Z" fill="white"/>
<path d="M184.626 34.99C184.531 34.9955 184.436 34.9815 184.346 34.9488C184.425 34.0045 184.552 33.0647 184.725 32.133C184.734 32.0655 184.717 31.9971 184.676 31.9421C184.636 31.8871 184.576 31.8499 184.509 31.8382C184.442 31.8264 184.373 31.8412 184.317 31.8793C184.26 31.9174 184.221 31.9759 184.207 32.0425C184.018 33.039 183.884 34.0449 183.804 35.0559C183.795 35.1134 183.805 35.172 183.832 35.2236C183.858 35.2752 183.9 35.3173 183.952 35.344C184.168 35.4711 184.416 35.5339 184.667 35.5252C185.013 35.484 184.972 34.99 184.626 34.99Z" fill="#56403D"/>
<path d="M186.339 35.1793C186.192 35.5359 185.913 35.8214 185.56 35.9751C185.206 36.1288 184.807 36.1387 184.447 36.0027C184.233 35.9286 184.143 36.2661 184.357 36.3402C184.788 36.498 185.263 36.4873 185.686 36.3103C186.11 36.1333 186.452 35.803 186.643 35.3852C186.742 35.1546 186.437 34.99 186.339 35.1793Z" fill="#56403D"/>
<path d="M185.876 33.7468C185.807 33.7468 185.74 33.7746 185.69 33.824C185.641 33.8734 185.613 33.9404 185.613 34.0103C185.613 34.0802 185.641 34.1472 185.69 34.1966C185.74 34.246 185.807 34.2738 185.876 34.2738C185.946 34.2738 186.013 34.246 186.063 34.1966C186.112 34.1472 186.14 34.0802 186.14 34.0103C186.14 33.9404 186.112 33.8734 186.063 33.824C186.013 33.7746 185.946 33.7468 185.876 33.7468Z" fill="#56403D"/>
<path d="M182.611 33.0387C182.541 33.0387 182.474 33.0665 182.425 33.1159C182.375 33.1653 182.348 33.2323 182.348 33.3022C182.348 33.372 182.375 33.4391 182.425 33.4885C182.474 33.5379 182.541 33.5656 182.611 33.5656C182.681 33.5656 182.748 33.5379 182.797 33.4885C182.846 33.4391 182.874 33.372 182.874 33.3022C182.874 33.2323 182.846 33.1653 182.797 33.1159C182.748 33.0665 182.681 33.0387 182.611 33.0387Z" fill="#56403D"/>
<path d="M188.691 34.0102C188.691 34.0102 189.67 30.1241 190.756 31.4085C191.842 32.6929 188.996 35.484 188.996 35.484" fill="white"/>
<path d="M194.316 28.6009C194.02 26.5837 192.671 25.604 190.936 24.5666L190.5 24.336C190.849 24.0631 191.13 23.7139 191.323 23.3151C191.346 23.2749 191.358 23.2292 191.358 23.1828C191.358 23.1363 191.345 23.0907 191.322 23.0506C191.299 23.0105 191.265 22.9773 191.225 22.9543C191.184 22.9314 191.139 22.9195 191.092 22.9199C190.864 22.929 190.64 22.9857 190.434 23.0864C190.229 23.187 190.047 23.3294 189.9 23.5045C189.693 23.0882 189.415 22.7118 189.077 22.393C189.044 22.3616 189.003 22.3392 188.959 22.3279C188.914 22.3166 188.868 22.3166 188.823 22.3282C188.779 22.3397 188.738 22.3622 188.705 22.3937C188.672 22.4252 188.647 22.4646 188.633 22.5082C188.554 22.7037 188.518 22.9142 188.53 23.1249C188.541 23.3355 188.599 23.541 188.699 23.7268C186.879 23.3462 184.982 23.6387 183.361 24.5501C182.761 24.8884 182.249 25.362 181.864 25.9333C181.37 25.8811 180.871 25.9696 180.424 26.1885C179.946 26.4115 179.554 26.7847 179.308 27.2515C179.061 27.7182 178.974 28.2528 179.059 28.7738C179.226 29.3111 179.597 29.7612 180.093 30.0276C180.588 30.2939 181.168 30.3552 181.708 30.1982C182.27 30.0939 182.797 29.8473 183.237 29.4819C182.908 30.0335 182.744 30.7416 183.813 30.9886C185.672 31.4167 186.552 30.3052 186.667 31.2356C186.766 31.993 187.811 32.4129 188.559 32.4294C188.617 32.5447 188.756 32.8493 188.921 33.2527C189.295 33.129 189.695 33.1062 190.081 33.1869C190.11 33.1537 190.147 33.128 190.189 33.112C190.23 33.0961 190.275 33.0903 190.319 33.0951C190.364 33.0999 190.406 33.1152 190.443 33.1398C190.48 33.1644 190.511 33.1974 190.533 33.2363C191.175 34.3395 191.026 35.5416 190.78 36.8178C191.796 35.9595 192.634 34.9107 193.247 33.7303C194.098 32.1623 194.47 30.3786 194.316 28.6009ZM189.052 23.1751L189.127 23.2904C189.122 23.3177 189.122 23.3455 189.127 23.3727C189.127 23.4551 189.192 23.5456 189.225 23.628C189.13 23.4941 189.071 23.3383 189.052 23.1751Z" fill="black"/>
<path d="M209.062 76.98L232.66 90.7544C232.878 90.8823 233.059 91.0651 233.184 91.2847C233.31 91.5042 233.376 91.7529 233.376 92.0058C233.376 92.2611 233.309 92.5119 233.181 92.7329C233.053 92.9539 232.869 93.1371 232.648 93.2641C232.427 93.3911 232.176 93.4574 231.921 93.4562C231.666 93.455 231.416 93.3864 231.196 93.2573L207.607 79.5653C207.387 79.4384 207.205 79.256 207.078 79.0364C206.951 78.8167 206.883 78.5676 206.883 78.3138V78.2315C206.883 77.9762 206.95 77.7254 207.077 77.5044C207.205 77.2834 207.389 77.1002 207.61 76.9732C207.831 76.8461 208.082 76.7799 208.337 76.7811C208.592 76.7823 208.842 76.8509 209.062 76.98Z" fill="#6B44D9"/>
<path d="M209.063 84.39L232.661 98.1643C232.879 98.2923 233.059 98.4751 233.185 98.6946C233.31 98.9142 233.376 99.1628 233.376 99.4158C233.376 99.6711 233.309 99.9219 233.182 100.143C233.054 100.364 232.87 100.547 232.649 100.674C232.428 100.801 232.177 100.867 231.922 100.866C231.667 100.865 231.417 100.796 231.197 100.667L207.607 87.0164C207.388 86.8895 207.205 86.7071 207.078 86.4875C206.951 86.2679 206.884 86.0187 206.883 85.7649V85.6826C206.876 85.4238 206.938 85.1678 207.062 84.941C207.187 84.7142 207.37 84.525 207.593 84.393C207.815 84.2611 208.069 84.1912 208.327 84.1907C208.586 84.1901 208.84 84.259 209.063 84.39Z" fill="#6B44D9"/>
<path d="M209.062 91.8741L232.66 105.648C232.878 105.776 233.059 105.959 233.184 106.179C233.31 106.398 233.376 106.647 233.376 106.9C233.376 107.155 233.309 107.406 233.181 107.627C233.053 107.848 232.869 108.031 232.648 108.158C232.427 108.285 232.176 108.352 231.921 108.35C231.666 108.349 231.416 108.28 231.196 108.151L207.607 94.4594C207.387 94.3325 207.205 94.1501 207.078 93.9305C206.951 93.7108 206.883 93.4617 206.883 93.2079V93.1256C206.883 92.8703 206.95 92.6195 207.077 92.3985C207.205 92.1775 207.389 91.9943 207.61 91.8673C207.831 91.7402 208.082 91.674 208.337 91.6752C208.592 91.6764 208.842 91.745 209.062 91.8741Z" fill="#6B44D9"/>
<path d="M209.062 99.317L232.66 113.091C232.878 113.219 233.059 113.402 233.184 113.622C233.31 113.841 233.376 114.09 233.376 114.343C233.376 114.598 233.309 114.849 233.181 115.07C233.053 115.291 232.869 115.474 232.648 115.601C232.427 115.728 232.176 115.794 231.921 115.793C231.666 115.792 231.416 115.723 231.196 115.594L207.607 101.91C207.387 101.784 207.205 101.601 207.078 101.382C206.951 101.162 206.883 100.913 206.883 100.659V100.577C206.881 100.321 206.947 100.069 207.074 99.8467C207.201 99.6246 207.385 99.4402 207.607 99.3122C207.828 99.1842 208.079 99.1172 208.335 99.118C208.591 99.1189 208.842 99.1875 209.062 99.317Z" fill="#81FF6C"/>
<path d="M149.827 51.2261V75.0698L131.395 64.4982V40.8604L149.827 51.2261Z" fill="#6B44D9"/>
<path d="M133.523 64.4983V70.3275L138.22 66.2355L133.523 64.4983Z" fill="#6B44D9"/>
<path d="M138.664 53.6385L134.552 56.1744C134.424 56.2499 134.332 56.3729 134.295 56.5164C134.258 56.6599 134.279 56.8123 134.355 56.9401L137.562 61.312C137.982 61.8883 138.952 61.312 138.525 60.7521L135.276 56.3967L135.078 57.1624L139.191 54.6265C139.799 54.256 139.24 53.2845 138.632 53.6632L138.664 53.6385Z" fill="white"/>
<path d="M141.455 55.8945L144.868 60.7274L145.066 59.9617L140.888 62.053C140.246 62.3741 140.814 63.3374 141.447 63.0163L145.625 60.925C145.753 60.8496 145.845 60.7266 145.882 60.583C145.919 60.4395 145.898 60.2871 145.823 60.1593L142.409 55.3264C141.998 54.7418 141.027 55.3264 141.447 55.8862L141.455 55.8945Z" fill="white"/>
<path d="M232.586 82.4799C233.317 82.4799 233.91 81.8348 233.91 81.039C233.91 80.2433 233.317 79.5982 232.586 79.5982C231.855 79.5982 231.262 80.2433 231.262 81.039C231.262 81.8348 231.855 82.4799 232.586 82.4799Z" fill="#155A93"/>
<path d="M228.359 80.3145C229.091 80.3145 229.684 79.6694 229.684 78.8737C229.684 78.0779 229.091 77.4329 228.359 77.4329C227.628 77.4329 227.035 78.0779 227.035 78.8737C227.035 79.6694 227.628 80.3145 228.359 80.3145Z" fill="#659FE4"/>
<path d="M224.133 78.215C224.864 78.215 225.457 77.5699 225.457 76.7741C225.457 75.9784 224.864 75.3333 224.133 75.3333C223.401 75.3333 222.809 75.9784 222.809 76.7741C222.809 77.5699 223.401 78.215 224.133 78.215Z" fill="#C5E9FF"/>
<path d="M92.8438 95.4227L121.812 111.865L132.373 106.431" stroke="white" stroke-miterlimit="10"/>
<path d="M121.723 112.103V118.748" stroke="white" stroke-miterlimit="10"/>
<path d="M100.929 106.62C100.321 106.509 99.7536 106.239 99.2835 105.838C98.9908 105.294 98.8704 104.674 98.9381 104.059C98.9381 103.511 98.9381 102.937 98.9381 102.339C98.906 102.313 98.8798 102.28 98.8613 102.243C98.8429 102.206 98.8326 102.166 98.8311 102.125C98.7995 101.659 98.7995 101.191 98.8311 100.725L96.4788 100.494C96.072 101.971 95.7453 103.469 95.5 104.982C95.5658 105.443 97.803 108.505 98.9463 108.711C100.09 108.917 103.248 107.888 103.511 107.484C102.656 107.229 101.784 106.958 100.929 106.62Z" fill="white"/>
<path d="M117.197 98.2549C115.86 98.2647 114.525 98.3887 113.208 98.6254C113.208 98.6254 112.756 95.999 112.822 95.8672L109.474 96.0978C109.474 96.0978 109.055 100.972 109.055 101.614C109.055 102.791 110.519 103.17 110.84 103.121C111.07 103.042 111.295 102.948 111.514 102.841C111.392 102.234 111.329 101.616 111.325 100.997C111.325 100.717 111.399 100.511 111.67 100.412C112.314 100.329 112.968 100.388 113.587 100.585C114.187 100.7 114.779 100.84 115.38 100.947C116.309 100.547 117.163 99.9899 117.905 99.3005C118.119 98.6501 118.39 98.4937 117.197 98.2549Z" fill="white"/>
<path d="M118.317 98.469L118.235 98.3784C117.98 98.1314 117.306 98.1561 116.993 98.1396C115.717 98.1481 114.446 98.3112 113.21 98.6254C113.21 98.6254 116.245 98.2137 116.36 98.7571C116.409 98.9751 116.407 99.2015 116.354 99.4186C116.301 99.6357 116.199 99.8376 116.055 100.009C114.789 101.137 112.806 99.8933 111.573 99.3582L109.278 98.3702L109.13 100.239C109.05 101.094 109.05 101.954 109.13 102.808C109.286 103.071 110.643 103.788 110.931 103.631C111.219 103.475 112.107 102.948 112.107 102.948L111.926 100.692C111.926 100.692 113.818 101.515 114.715 101.285C115.397 101.12 119.107 99.5229 118.317 98.469Z" fill="#56403D"/>
<path d="M97.6794 105.08C97.6794 105.08 98.9132 108.934 99.3244 109.197C99.7357 109.461 104.506 107.937 103.799 107.032C103.346 106.455 100.509 106.464 100.237 106.389C100.237 106.389 101.743 106.883 101.743 107.122C101.183 107.62 100.492 107.945 99.7521 108.061C99.6534 107.88 97.5972 104.504 97.5972 104.504L95.6643 103.821L94.1016 107.353L95.4505 107.929C95.4505 107.929 95.8617 109.008 96.0015 109.008C96.4645 108.378 96.8796 107.715 97.2435 107.023C97.3322 107.513 97.4901 107.987 97.7123 108.431C97.9015 108.571 99.4725 109.864 100.18 108.876L98.8556 107.386" fill="#56403D"/>
<path d="M94.1016 107.353L94.3483 108.234L96.0015 109.008V107.353L95.0474 107.023" fill="#56403D"/>
<path d="M107.517 97.4234C108.97 97.7625 110.481 97.7597 111.933 97.4154C113.384 97.0711 114.736 96.3947 115.882 95.4392C115.932 90.4992 116.392 85.9956 116.244 81.0391C116.006 72.9457 114.829 65.0006 109.154 58.6856L98.8236 57.0966C94.6288 65.0829 93.7734 101.614 93.7734 101.614C93.7734 101.614 99.0374 104.973 103.043 103.327L104.598 72.8634C104.598 72.8634 107.336 76.1073 107.83 77.9187C108.192 79.2854 107.452 91.3061 107.517 97.4234Z" fill="#0F1021"/>
<path d="M63.7934 86.7118C73.8642 86.7118 82.0282 82.6717 82.0282 77.688C82.0282 72.7044 73.8642 68.6643 63.7934 68.6643C53.7226 68.6643 45.5586 72.7044 45.5586 77.688C45.5586 82.6717 53.7226 86.7118 63.7934 86.7118Z" fill="#6DE1FC"/>
<path d="M63.7934 86.7118C73.8642 86.7118 82.0282 82.6717 82.0282 77.688C82.0282 72.7044 73.8642 68.6643 63.7934 68.6643C53.7226 68.6643 45.5586 72.7044 45.5586 77.688C45.5586 82.6717 53.7226 86.7118 63.7934 86.7118Z" fill="black"/>
<defs>
<linearGradient id="paint0_linear_701_183" x1="155.203" y1="49.3407" x2="179.685" y2="234.015" gradientUnits="userSpaceOnUse">
<stop offset="0.520854" stop-color="#6B44D9"/>
<stop offset="1" stop-color="#6CFFED"/>
</linearGradient>
<linearGradient id="paint1_linear_701_183" x1="63.7893" y1="77.5811" x2="68.3734" y2="118.247" gradientUnits="userSpaceOnUse">
<stop stop-color="#6B44D9"/>
<stop offset="1" stop-color="#7335DA"/>
</linearGradient>
<linearGradient id="paint2_linear_701_183" x1="117.304" y1="0.484745" x2="285.946" y2="204.655" gradientUnits="userSpaceOnUse">
<stop stop-color="#6B44D9"/>
<stop offset="1" stop-color="#6CFFED"/>
</linearGradient>
<linearGradient id="paint3_linear_701_183" x1="109.236" y1="36.8342" x2="124.03" y2="75.8374" gradientUnits="userSpaceOnUse">
<stop stop-color="#6B44D9"/>
<stop offset="1" stop-color="#6CFFED"/>
</linearGradient>
<linearGradient id="paint4_linear_701_183" x1="184.668" y1="31.2273" x2="186.698" y2="68.0981" gradientUnits="userSpaceOnUse">
<stop stop-color="#6B44D9"/>
<stop offset="1" stop-color="#6CFFED"/>
</linearGradient>
</defs>
</svg>
